<svg xmlns="http://www.w3.org/2000/svg" width="77.341" height="85.442" viewBox="0 0 77.341 85.442"><defs><style>.a{fill:#2f80ed;}.b{fill:#555;}</style></defs><g transform="translate(-151.33 -1211.779)"><path class="a" d="M113.693,103.364a16.73,16.73,0,1,0-16.729,16.729A16.73,16.73,0,0,0,113.693,103.364Zm-20.228,7.425a1.258,1.258,0,0,1-.895-.371l-6.156-6.159a1.266,1.266,0,1,1,1.79-1.79l5.293,5.292,12.263-11.48a1.266,1.266,0,0,1,1.73,1.848L94.334,110.446A1.266,1.266,0,0,1,93.465,110.789Z" transform="translate(114.977 1177.128)"/><path class="b" d="M-361.657-1724.224H-405V-1796h14.341v4.53a1.267,1.267,0,0,0,1.266,1.265h27.268a1.267,1.267,0,0,0,1.266-1.265V-1796h14.339v44.12a19.218,19.218,0,0,0-12.106,6.186H-395.3a1.267,1.267,0,0,0-1.265,1.266,1.267,1.267,0,0,0,1.265,1.265h34.732a19.131,19.131,0,0,0-2.478,5.646H-395.3a1.267,1.267,0,0,0-1.265,1.266,1.267,1.267,0,0,0,1.265,1.265h31.789a19.581,19.581,0,0,0-.135,2.245,19.236,19.236,0,0,0,1.991,8.515Zm-33.646-29.655a1.267,1.267,0,0,0-1.265,1.265,1.267,1.267,0,0,0,1.265,1.265h39.086a1.267,1.267,0,0,0,1.265-1.265,1.267,1.267,0,0,0-1.265-1.265Zm0-8.181a1.267,1.267,0,0,0-1.265,1.266,1.267,1.267,0,0,0,1.265,1.265h39.086a1.267,1.267,0,0,0,1.265-1.265,1.267,1.267,0,0,0-1.265-1.266Zm1.973-20.173a3,3,0,0,0-3,3v7a3,3,0,0,0,3,3h7a3,3,0,0,0,3-3v-7a3,3,0,0,0-3-3Z" transform="translate(556.33 3013.232)"/><rect class="a" width="24.737" height="8.717" transform="translate(168.202 1211.779)"/></g></svg>