<svg xmlns="http://www.w3.org/2000/svg" width="68.138" height="61.324" viewBox="0 0 68.138 61.324"><defs><style>.a{fill:#2f80ed;}.b{fill:#555;}</style></defs><g transform="translate(-8 -12)"><rect class="a" width="7" height="24" rx="2" transform="translate(42.069 25.662)"/><path class="b" d="M43.772,53.476a5.116,5.116,0,0,1-5.11-5.11V27.924a5.116,5.116,0,0,1,5.11-5.11l7.926-.053.217-.024C56.12,22.274,58.492,20.006,59,16H16.517A8.526,8.526,0,0,0,8,24.517V55.179A8.526,8.526,0,0,0,16.517,63.7H28.441v8.517a1.7,1.7,0,0,0,2.725,1.364L44.34,63.7H57.4a8.526,8.526,0,0,0,8.517-8.517v-1.7Z" transform="translate(0 -0.593)"/><path class="a" d="M77.034,22.221h0C77,16.2,76.605,12,71.924,12a1.7,1.7,0,0,0-1.7,1.7c0,8.8-5.976,11.359-10.221,11.828V49.476H77.034a6.822,6.822,0,0,0,6.814-6.814V29.034A6.822,6.822,0,0,0,77.034,22.221Z" transform="translate(-7.71 0)"/></g></svg>