<svg xmlns="http://www.w3.org/2000/svg" width="86.252" height="63.252" viewBox="0 0 86.252 63.252"><defs><style>.a{fill:#555;}.b,.c{fill:#2f80ed;}.b,.d{opacity:0;}</style></defs><g transform="translate(-5.495 -21.927)"><g transform="translate(5.495 21.927)"><path class="a" d="M593.377,107.126h-8.625v40.251h-2.875V92.75h2.875V87H553.126v5.75H556v54.627h-2.875V107.126H512.875v40.251H510v2.875h86.252v-2.875h-2.875Zm-51.751,5.75h5.75v5.75h-5.75Zm0,11.5h5.75v5.75h-5.75Zm0,11.5h5.75v5.75h-5.75Zm-11.5-23h5.75v5.75h-5.75Zm0,11.5h5.75v5.75h-5.75Zm0,11.5h5.75v5.75h-5.75Zm-11.5-23h5.75v5.75h-5.75Zm0,11.5h5.75v5.75h-5.75Zm0,11.5h5.75v5.75h-5.75Zm57.5,11.5H561.751v-11.5h14.375Zm-7.188-28.751A10.063,10.063,0,1,1,579,108.563,10.063,10.063,0,0,1,568.939,118.626Z" transform="translate(-510 -87)"/><rect class="a" width="40" height="3" transform="translate(3.126 14.626)"/><path class="b" d="M537.063,91a10.063,10.063,0,1,0,10.063,10.063A10.061,10.061,0,0,0,537.063,91Zm7.188,11.5H538.5v5.75h-2.875V102.5h-5.75V99.625h5.75v-5.75H538.5v5.75h5.75Z" transform="translate(-478.124 -79.5)"/><path d="M536.625,92H533.75v5.75H528v2.875h5.75v5.75h2.875v-5.75h5.75V97.75h-5.75Z" transform="translate(-476.249 -77.625)"/><path class="c" d="M536.625,92H533.75v5.75H528v2.875h5.75v5.75h2.875v-5.75h5.75V97.75h-5.75Z" transform="translate(-476.249 -77.625)"/><rect class="d" width="14" height="12" transform="translate(52.126 48.626)"/><rect class="a" width="7" height="3" transform="translate(75.126 14.626)"/></g></g></svg>