<svg xmlns="http://www.w3.org/2000/svg" width="78.38" height="67.378" viewBox="0 0 78.38 67.378"><defs><style>.a{fill:#555;}.b{fill:#2f80ed;}</style></defs><g transform="translate(-2.5 -9.149)"><path class="a" d="M64.442,55.613a14.549,14.549,0,0,1-3.3-9.231V39.953A16.093,16.093,0,0,0,48.453,24.211V21.162a3.462,3.462,0,0,0-6.923,0v3.049A16.093,16.093,0,0,0,28.837,39.953v6.429a14.549,14.549,0,0,1-3.3,9.231l-2.72,3.462a3.737,3.737,0,0,0,2.885,6.1H64.442a3.737,3.737,0,0,0,2.885-6.1Z" transform="translate(-3.425 -1.503)"/><path class="b" d="M68.331,20.52a2.86,2.86,0,0,0,.082,4.039,21.266,21.266,0,0,1,6.511,14.011,2.878,2.878,0,0,0,2.885,2.637h.165a2.8,2.8,0,0,0,2.637-3.049,27.45,27.45,0,0,0-8.242-17.72A2.939,2.939,0,0,0,68.331,20.52Z" transform="translate(-11.434 -1.85)"/><path class="b" d="M22.386,38.663A22.063,22.063,0,0,1,28.9,24.652a2.856,2.856,0,0,0-3.956-4.121A27.45,27.45,0,0,0,16.7,38.251,2.859,2.859,0,0,0,19.337,41.3H19.5A2.873,2.873,0,0,0,22.386,38.663Z" transform="translate(-2.496 -1.862)"/><path class="b" d="M18.819,14.142a2.858,2.858,0,1,0-3.874-4.2A38.985,38.985,0,0,0,2.5,38.456V39.2a2.92,2.92,0,0,0,2.885,2.885A2.92,2.92,0,0,0,8.269,39.2v-.742A32.8,32.8,0,0,1,18.819,14.142Z" transform="translate(0 -0.006)"/><path class="b" d="M81.471,9.933a2.858,2.858,0,1,0-3.874,4.2A32.8,32.8,0,0,1,88.147,38.45v.742a2.885,2.885,0,1,0,5.769,0V38.45A39.621,39.621,0,0,0,81.471,9.933Z" transform="translate(-13.036)"/><path class="b" d="M48.242,89.142A8.266,8.266,0,0,0,56.484,80.9H40A8.266,8.266,0,0,0,48.242,89.142Z" transform="translate(-6.593 -12.615)"/></g></svg>