<svg xmlns="http://www.w3.org/2000/svg" width="79.417" height="74.513" viewBox="0 0 79.417 74.513"><defs><style>.a{fill:#555;}.a,.b{fill-rule:evenodd;}.b,.c{fill:#2f80ed;}</style></defs><g transform="translate(-10.27 -13.564)"><path class="a" d="M89.687,86.192a3,3,0,0,1-3.195,1.883c-2.969-.074-5.939-.02-8.909-.023A2.5,2.5,0,0,1,74.8,85.279q0-19.1,0-38.2a2.5,2.5,0,0,1,2.785-2.769c2.97,0,5.94.052,8.909-.022a2.994,2.994,0,0,1,3.194,1.883Z"/><path class="b" d="M89.687,31.439A6.474,6.474,0,0,1,88.594,32.9a2.447,2.447,0,0,1-3.866-1.82c-.271-2.334-.531-4.67-.957-7.144a3.215,3.215,0,0,1-.182.384C75.308,37.21,64.061,46.773,50.518,53.759a93.838,93.838,0,0,1-23.4,8.608,59.825,59.825,0,0,1-13.065,1.457,10.711,10.711,0,0,1-1.852-.147,2.664,2.664,0,0,1-1.929-1.836V60.6c.676-1.458,1.8-1.851,3.386-1.794a47.805,47.805,0,0,0,12.821-1.439c17.4-4.164,32.567-12.3,44.908-25.4a69.486,69.486,0,0,0,8.334-10.871c.148-.238.281-.487.484-.843-.292.055-.48.077-.662.128-2.581.733-5.155,1.492-7.741,2.2a2.453,2.453,0,0,1-3.222-2.763,2.31,2.31,0,0,1,1.75-1.97q7.287-2.1,14.589-4.157a2.427,2.427,0,0,1,3.065,2.146c.527,4.541,1.035,9.084,1.557,13.625a4.182,4.182,0,0,0,.146.586Q89.687,30.741,89.687,31.439Z"/><path class="a" d="M10.271,73.163a2.98,2.98,0,0,1,3.191-1.883c2.991.077,5.987.019,8.98.023a2.5,2.5,0,0,1,2.719,2.76q0,5.613,0,11.226a2.514,2.514,0,0,1-2.792,2.765c-2.968,0-5.937-.05-8.9.021a2.993,2.993,0,0,1-3.193-1.883Q10.272,79.677,10.271,73.163Z"/><path class="a" d="M68.166,73.474q0,5.815,0,11.633c0,2.032-.907,2.945-2.917,2.947q-4.576,0-9.151,0a2.531,2.531,0,0,1-2.82-2.831q-.006-11.786,0-23.573a2.521,2.521,0,0,1,2.744-2.754q4.653,0,9.306,0c1.9,0,2.841.95,2.842,2.868q.006,5.854,0,11.711Z"/><path class="a" d="M31.791,78.03c0-2.4,0-4.807,0-7.209a2.5,2.5,0,0,1,2.747-2.738q4.611-.011,9.224,0a2.584,2.584,0,0,1,2.921,2.9q0,7.053,0,14.107c0,2.014-.936,2.956-2.927,2.958q-4.613,0-9.224,0a2.478,2.478,0,0,1-2.738-2.733C31.787,82.888,31.791,80.46,31.791,78.03Z"/><path class="c" d="M47.968,34.295a6.249,6.249,0,0,1-1.688,4.373,7.47,7.47,0,0,1-4.524,2.279q.067.843.068,1.621,0,1.722-1.182,1.722t-1.183-1.722l.034-1.553a10.883,10.883,0,0,1-4.676-1.333q-2.076-1.164-2.076-2.246a1.061,1.061,0,0,1,.27-.76.934.934,0,0,1,.709-.287,1.984,1.984,0,0,1,1.114.541,8.35,8.35,0,0,0,4.728,1.924q.066-4.728.067-10.366a20.6,20.6,0,0,1-4.3-3.107,4.874,4.874,0,0,1-1.571-3.562,4.588,4.588,0,0,1,1.587-3.478A7,7,0,0,1,39.493,16.6V15.286q0-1.722,1.149-1.722t1.148,1.722V16.6A9.137,9.137,0,0,1,45.4,17.615q1.452.812,1.453,1.79a.955.955,0,0,1-.254.658.936.936,0,0,1-.741.287,4.424,4.424,0,0,1-1.756-.759,4.96,4.96,0,0,0-2.381-.793q-.067,4.052-.067,8.137a25.079,25.079,0,0,1,4.017,2.8A7.636,7.636,0,0,1,47.463,32,5.344,5.344,0,0,1,47.968,34.295ZM36.219,21.836q0,1.79,3.409,3.95,0-4.592-.067-6.989a4.5,4.5,0,0,0-2.4.945A2.57,2.57,0,0,0,36.219,21.836ZM44.356,37.25a4.087,4.087,0,0,0,1.08-2.769,3.758,3.758,0,0,0-.979-2.617,12.776,12.776,0,0,0-2.8-2.195q0,6.821.033,9.083A4.447,4.447,0,0,0,44.356,37.25Z"/></g></svg>