<svg xmlns="http://www.w3.org/2000/svg" width="63.628" height="82.743" viewBox="0 0 63.628 82.743"><defs><style>.a{fill:#555;}.b{fill:#2f80ed;}.c{fill:#fff;}</style></defs><g transform="translate(-3.029 -0.334)"><rect class="a" width="7.784" height="7.788" transform="translate(24.307 57.033)"/><rect class="a" width="7.784" height="7.788" transform="translate(24.307 38.684)"/><rect class="a" width="7.784" height="7.788" transform="translate(39.319 57.033)"/><rect class="a" width="7.784" height="7.788" transform="translate(24.112 20.339)"/><path class="a" d="M52.849,4.494A4.161,4.161,0,0,0,48.693.334H7.186A4.163,4.163,0,0,0,3.03,4.494v4.72H52.852V4.494ZM34.763,5.7H21.24a.906.906,0,1,1,0-1.812H34.763a.906.906,0,1,1,0,1.812Z" transform="translate(0.003 0)"/><rect class="a" width="7.784" height="7.788" transform="translate(8.898 19.974)"/><path class="a" d="M3.029,25.721a4.14,4.14,0,0,0,4.156,4.117H48.692a4.143,4.143,0,0,0,4.156-4.117V21.242H3.029Zm22.562-2.915H30.7a2.5,2.5,0,0,1,0,5H25.591a2.5,2.5,0,1,1,0-5Z" transform="translate(0 53.239)"/><rect class="a" width="7.784" height="7.788" transform="translate(8.781 57.033)"/><rect class="a" width="7.784" height="7.781" transform="translate(9.036 38.503)"/><rect class="a" width="7.784" height="7.781" transform="translate(39.577 38.503)"/><path class="a" d="M46.933,21.609a6,6,0,0,1-.078-.975V11.7a6.326,6.326,0,0,1,5.284-6.249,6.818,6.818,0,0,1,.713-.06V3.349H3.029V64.991H52.851V26.943A6.329,6.329,0,0,1,46.933,21.609ZM7.079,11.389a.907.907,0,0,1,.908-.908h9.6a.905.905,0,0,1,.908.908v9.6a.91.91,0,0,1-.908.908H7.99a.907.907,0,0,1-.908-.908v-9.6Zm11.3,46.663a.91.91,0,0,1-.908.908h-9.6a.907.907,0,0,1-.908-.908v-9.6a.907.907,0,0,1,.908-.908h9.6a.905.905,0,0,1,.908.908v9.6Zm.259-18.537a.907.907,0,0,1-.908.908h-9.6a.905.905,0,0,1-.908-.908v-9.6a.907.907,0,0,1,.908-.908h9.6a.905.905,0,0,1,.908.908v9.6Zm3.653-27.761a.907.907,0,0,1,.908-.908h9.6a.905.905,0,0,1,.908.908v9.6a.91.91,0,0,1-.908.908H23.2a.907.907,0,0,1-.908-.908Zm11.614,46.3a.91.91,0,0,1-.908.908H23.4a.907.907,0,0,1-.908-.908v-9.6a.907.907,0,0,1,.908-.908H33a.905.905,0,0,1,.908.908Zm0-18.349A.91.91,0,0,1,33,40.61H23.4a.907.907,0,0,1-.908-.908V30.1a.907.907,0,0,1,.908-.908H33a.905.905,0,0,1,.908.908ZM48.922,58.051a.91.91,0,0,1-.908.908h-9.6a.907.907,0,0,1-.908-.908v-9.6a.907.907,0,0,1,.908-.908h9.6a.905.905,0,0,1,.908.908Zm.255-18.537a.907.907,0,0,1-.908.908h-9.6a.905.905,0,0,1-.908-.908v-9.6a.907.907,0,0,1,.908-.908h9.6a.905.905,0,0,1,.908.908Z" transform="translate(0 7.677)"/><path class="b" d="M29.284,4.427H21.007c-.007,0-.011.007-.018.007s-.011-.007-.018-.007h-.518a4.43,4.43,0,0,0-.78.067A4.514,4.514,0,0,0,15.9,8.956v8.933a4.526,4.526,0,0,0,4.55,4.522h8.862a4.8,4.8,0,0,0,.812-.067,4.535,4.535,0,0,0,3.759-4.426v-9a3.836,3.836,0,0,0-.082-.8A4.515,4.515,0,0,0,29.284,4.427Z" transform="translate(32.774 10.422)"/><path class="c" d="M.348-4H1.391l1.1,2.688h.047L3.641-4H4.684V0h-.82V-2.6H3.83L2.795-.02H2.236L1.2-2.613H1.168V0H.348ZM5.877,1.119a1.7,1.7,0,0,1-.3-.024,1.221,1.221,0,0,1-.228-.06L5.541.412a.752.752,0,0,0,.372.036A.356.356,0,0,0,6.152.213L6.2.086,5.125-3H6L6.621-.8h.031L7.279-3,8.16-3,6.994.324a1.4,1.4,0,0,1-.228.419.966.966,0,0,1-.362.277A1.277,1.277,0,0,1,5.877,1.119ZM8.6,0V-4H10.18a1.712,1.712,0,0,1,.774.161,1.138,1.138,0,0,1,.49.455,1.362,1.362,0,0,1,.169.69,1.305,1.305,0,0,1-.172.685,1.114,1.114,0,0,1-.5.438,1.842,1.842,0,0,1-.786.152H9.1V-2.1h.92a1.056,1.056,0,0,0,.4-.066.483.483,0,0,0,.239-.2.635.635,0,0,0,.079-.33.661.661,0,0,0-.079-.336.5.5,0,0,0-.24-.208,1,1,0,0,0-.405-.071h-.57V0Zm2.16-1.82L11.756,0h-.934L9.85-1.82ZM12.891-3l.551,1.049L14.006-3h.854L13.99-1.5,14.883,0h-.85l-.592-1.037L12.859,0H12l.891-1.5L12.031-3Z" transform="translate(49.982 25.327)"/></g></svg>