<svg xmlns="http://www.w3.org/2000/svg" width="66.275" height="76.221" viewBox="0 0 66.275 76.221"><defs><style>.a{fill:#555;}.b{fill:#2f80ed;}</style></defs><g transform="translate(-174.882 -14.41)"><path class="a" d="M209.544,14.41H185.628c-3.716,0-10.746,2.246-10.746,10.745V79.886c0,3.718,2.246,10.745,10.746,10.745h23.916c3.719,0,10.746-2.246,10.746-10.745V25.155C220.289,21.44,218.043,14.41,209.544,14.41ZM185.628,17.3h23.916c.755,0,7.035.205,7.778,6.657h-39.45C178.193,21.728,179.586,17.344,185.628,17.3ZM217.4,79.886c0,.8-.219,7.8-7.854,7.853H185.628c-.8,0-7.8-.219-7.856-7.853V78.618H217.4Zm0-3.936H177.771V26.623H217.4Z"/><path class="a" d="M327.05,511.511a2.595,2.595,0,1,0-2.6-2.6A2.594,2.594,0,0,0,327.05,511.511Z" transform="translate(-129.463 -425.776)"/><path class="a" d="M318.619,53.328h-6.851a1.007,1.007,0,1,0,0,2.013h6.851a1.007,1.007,0,1,0,0-2.013Z" transform="translate(-117.608 -33.686)"/><path class="a" d="M574.827,215.038A10.983,10.983,0,0,0,568,204.852a1.445,1.445,0,1,0-1.1,2.673,8.123,8.123,0,0,1,.038,15.014,1.445,1.445,0,0,0,.56,2.779,1.419,1.419,0,0,0,.554-.113A10.988,10.988,0,0,0,574.827,215.038Z" transform="translate(-338.537 -164.745)"/><path class="a" d="M558.222,243.1a6.255,6.255,0,0,0-3.955-5.832,1.445,1.445,0,1,0-1.076,2.683,3.389,3.389,0,0,1,.017,6.293,1.445,1.445,0,0,0,.547,2.784,1.5,1.5,0,0,0,.544-.105A6.265,6.265,0,0,0,558.222,243.1Z" transform="translate(-326.662 -192.806)"/><path class="a" d="M582.157,171.448a1.445,1.445,0,0,0-1.112,2.668,13,13,0,0,1,.062,23.985,1.444,1.444,0,1,0,1.123,2.661,15.892,15.892,0,0,0-.073-29.315Z" transform="translate(-350.786 -135.828)"/><path class="b" d="M261.587,266.83l-4.319,10.708-4.556-12.154-3.252,5.2H244.15c.618.762,1.395,1.612,2.257,2.5l1.583,1.582c4.149,4.04,9.2,8.232,9.2,8.232s5-4.152,9.136-8.176l1.588-1.582c.883-.907,1.677-1.777,2.312-2.556h-4.66Z" transform="translate(-59.955 -217.232)"/><path class="b" d="M226.122,209.951a10.921,10.921,0,0,0,1.068,2.556h5.555l4.49-7.17,4.25,11.345,3.666-9.082,5.2,4.907H255.5a10.757,10.757,0,0,0,1.059-2.5l.264-1.581c0-.1.014-.2.014-.295a8.009,8.009,0,0,0-8.007-8.01,7.917,7.917,0,0,0-7.442,5.383,7.988,7.988,0,0,0-15.539,2.627c0,.079.009.158.013.236Z" transform="translate(-44.119 -160.744)"/></g></svg>