<svg xmlns="http://www.w3.org/2000/svg" xmlns:xlink="http://www.w3.org/1999/xlink" width="130" height="130" viewBox="0 0 130 130"><defs><style>.a,.d,.f{fill:none;}.b{clip-path:url(#a);}.c{fill:#555;}.d{stroke:#535353;stroke-width:0.3px;}.e{fill:#fff;}.f{stroke:#2f80ed;}</style><clipPath id="a"><rect class="a" width="75.849" height="65.027"/></clipPath></defs><g transform="translate(-123 -1189)"><circle class="a" cx="65" cy="65" r="65" transform="translate(123 1189)"/><g transform="translate(-45.753 -55.644)"><g transform="translate(196 1277)"><g class="b" transform="translate(0 0)"><path class="c" d="M.7,64.336a.554.554,0,0,0,.552-.552v-2.76a.552.552,0,1,0-1.1,0v2.76a.554.554,0,0,0,.552.552" transform="translate(-0.021 -8.552)"/><path class="c" d="M48.368,44.13a24.969,24.969,0,0,0-8.13-4.445,4.024,4.024,0,0,0-1.889-1.946c-.29-.152-3.064-1.132-4.2-1.533l-1.339-2.637c3.215-2.305,3.976-6.143,4.156-7.634,1.96-.331,3.879-2.719,4.611-5.825a2.912,2.912,0,0,0-1.174-3.368,2.027,2.027,0,0,0-1.353-.221,37.187,37.187,0,0,0,1.311-5.812,7.147,7.147,0,0,0-7.136-7.137,7.346,7.346,0,0,0-1.642.193,10.019,10.019,0,0,0-17.724,6.4c0,.055.193,4,.58,6.323a1.993,1.993,0,0,0-1.46.138,2.908,2.908,0,0,0-1.2,3.451c.687,3.106,2.623,5.48,4.583,5.825.152,1.505.859,5.383,4.156,7.689l-1.449,2.9c-1.256.373-3.575,1.077-3.864,1.215a4.119,4.119,0,0,0-1.767,1.656,32.666,32.666,0,0,0-9.042,4.4C1.572,45.856.15,48.091.15,50.424a.552.552,0,1,0,1.1,0c0-1.96,1.288-3.893,3.8-5.752a27.269,27.269,0,0,1,5.581-3.064,34.657,34.657,0,0,0-2,5.924l-1.367-.1A2.088,2.088,0,0,0,5.04,49.312L3.025,56.339a.287.287,0,0,0-.014.111,2.085,2.085,0,0,0,1.933,2.223.565.565,0,0,0,.593-.511.554.554,0,0,0-.511-.593.982.982,0,0,1-.911-.994L6.13,49.561a.3.3,0,0,0,.014-.111.992.992,0,0,1,.331-.677.961.961,0,0,1,.717-.234l3.434.248a.987.987,0,0,1,.912,1.049v.111l1.008,7.234a1.026,1.026,0,0,1-.331.622.962.962,0,0,1-.718.234.565.565,0,0,0-.593.511.555.555,0,0,0,.51.593h.155a2.1,2.1,0,0,0,2.085-1.933V57.1l-1.011-7.237a2.1,2.1,0,0,0-1.933-2.17l-.952-.069A30.055,30.055,0,0,1,12.17,41.01c.29-.111.593-.221.9-.331a2.988,2.988,0,0,0,.373,1.588A10.65,10.65,0,0,0,15.5,44.751a7.547,7.547,0,0,0-1.613.732,1.754,1.754,0,0,0-.732,1.187,3.786,3.786,0,0,0,.7,2.719l8.862,14.424H3.988a3.351,3.351,0,0,1-2.734-2.692v-3.1a.552.552,0,1,0-1.1,0v3.106a4.4,4.4,0,0,0,3.838,3.8h44.3c1.835,0,3.479-2.126,3.479-3.8V50.462c.013-2.191-1.16-4.386-3.4-6.332m-9.082-3.838A1.81,1.81,0,0,1,39.12,41.7a10.628,10.628,0,0,1-2.54,2.789.561.561,0,0,0-.207.552.568.568,0,0,0,.414.429,9.574,9.574,0,0,1,2.264.842.687.687,0,0,1,.262.47,2.612,2.612,0,0,1-.538,1.835c0,.015-.014.015-.014.028l-8.255,13.17L33.1,45,34.218,37.4c1.712.607,3.434,1.229,3.631,1.325a2.727,2.727,0,0,1,1.436,1.572Zm-18.14,4.2-1.077-7.537,1.353-2.761a11.093,11.093,0,0,0,5.2,1.161,10.882,10.882,0,0,0,5.232-1.2l1.311,2.582-1.145,7.758a18.89,18.89,0,0,1-5.535,1.7,19.125,19.125,0,0,1-5.344-1.7M17.364,25.411a.552.552,0,0,0-.263-.456.524.524,0,0,0-.289-.069H16.8c-1.588,0-3.368-2.181-4.031-5.024a1.912,1.912,0,0,1,.663-2.223c.442-.234.966-.055,1.436.47a.547.547,0,1,0,.859-.677c-.359-.677-.786-6.212-.786-7.234A8.929,8.929,0,0,1,30.922,4.746a.546.546,0,0,0,.593.193A5.853,5.853,0,0,1,33.2,4.7a6.039,6.039,0,0,1,6.032,6.032,35.871,35.871,0,0,1-1.7,6.7.554.554,0,0,0,.842.718,1.223,1.223,0,0,1,1.49-.414,1.85,1.85,0,0,1,.622,2.14c-.677,2.844-2.444,5.039-4.045,5.011a.551.551,0,0,0-.552.538c-.055.859-.538,5.246-4.1,7.5a9.578,9.578,0,0,1-5.163,1.339,9.712,9.712,0,0,1-5.179-1.314c-3.632-2.249-4.043-6.666-4.087-7.536Zm-2.6,23.343a2.745,2.745,0,0,1-.538-1.905.71.71,0,0,1,.261-.47A10.7,10.7,0,0,1,16.77,45.5a.553.553,0,0,0,.4-.429.572.572,0,0,0-.207-.552,11,11,0,0,1-2.553-2.8,1.836,1.836,0,0,1-.166-1.422A2.8,2.8,0,0,1,15.7,38.7c.221-.1,1.933-.622,3.354-1.049l1.132,8.02a.053.053,0,0,0,.014.041L22.731,61.73,14.783,48.782a.056.056,0,0,1-.014-.027m6.571-2.929a20.3,20.3,0,0,0,5.163,1.46,20.024,20.024,0,0,0,5.328-1.477l-2.775,18H24.183Zm29.334,15.3A2.978,2.978,0,0,1,48.3,63.813H30.533l9.139-14.577a3.7,3.7,0,0,0,.718-2.662,1.73,1.73,0,0,0-.732-1.174,7.562,7.562,0,0,0-1.588-.7A9.836,9.836,0,0,0,40.1,42.239a2.817,2.817,0,0,0,.373-1.311q.7.269,1.367.538a28.266,28.266,0,0,1,2.346,10.6,3.656,3.656,0,0,0-1.459.552A3.515,3.515,0,0,0,43.968,59a4.111,4.111,0,0,0,.7.069,3.467,3.467,0,0,0,1.933-.593A3.513,3.513,0,0,0,45.374,52.1l-.011,0c-.027,0-.055-.014-.086-.014a30.587,30.587,0,0,0-1.96-9.939c4.611,2.278,7.344,5.3,7.344,8.3V61.123Zm-6.116-7.979a.439.439,0,0,0,.193.041h.014a.719.719,0,0,0,.166-.027c.069.014.152.014.22.027a2.413,2.413,0,1,1-.6-.041Z" transform="translate(-0.021 -0.021)"/><path class="d" d="M48.368,44.13a24.969,24.969,0,0,0-8.13-4.445,4.024,4.024,0,0,0-1.889-1.946c-.29-.152-3.064-1.132-4.2-1.533l-1.339-2.637c3.215-2.305,3.976-6.143,4.156-7.634,1.96-.331,3.879-2.719,4.611-5.825a2.912,2.912,0,0,0-1.174-3.368,2.027,2.027,0,0,0-1.353-.221,37.187,37.187,0,0,0,1.311-5.812,7.147,7.147,0,0,0-7.136-7.137,7.346,7.346,0,0,0-1.642.193,10.019,10.019,0,0,0-17.724,6.4c0,.055.193,4,.58,6.323a1.993,1.993,0,0,0-1.46.138,2.908,2.908,0,0,0-1.2,3.451c.687,3.106,2.623,5.48,4.583,5.825.152,1.505.859,5.383,4.156,7.689l-1.449,2.9c-1.256.373-3.575,1.077-3.864,1.215a4.119,4.119,0,0,0-1.767,1.656,32.666,32.666,0,0,0-9.042,4.4C1.572,45.856.15,48.091.15,50.424a.552.552,0,1,0,1.1,0c0-1.96,1.288-3.893,3.8-5.752a27.269,27.269,0,0,1,5.581-3.064,34.657,34.657,0,0,0-2,5.924l-1.367-.1A2.088,2.088,0,0,0,5.04,49.312L3.025,56.339a.287.287,0,0,0-.014.111,2.085,2.085,0,0,0,1.933,2.223.565.565,0,0,0,.593-.511.554.554,0,0,0-.511-.593.982.982,0,0,1-.911-.994L6.13,49.561a.3.3,0,0,0,.014-.111.992.992,0,0,1,.331-.677.961.961,0,0,1,.717-.234l3.434.248a.987.987,0,0,1,.912,1.049v.111l1.008,7.234a1.026,1.026,0,0,1-.331.622.962.962,0,0,1-.718.234.565.565,0,0,0-.593.511.555.555,0,0,0,.51.593h.155a2.1,2.1,0,0,0,2.085-1.933V57.1l-1.011-7.237a2.1,2.1,0,0,0-1.933-2.17l-.952-.069A30.055,30.055,0,0,1,12.17,41.01c.29-.111.593-.221.9-.331a2.988,2.988,0,0,0,.373,1.588A10.65,10.65,0,0,0,15.5,44.751a7.547,7.547,0,0,0-1.613.732,1.754,1.754,0,0,0-.732,1.187,3.786,3.786,0,0,0,.7,2.719l8.862,14.424H3.988a3.351,3.351,0,0,1-2.734-2.692v-3.1a.552.552,0,1,0-1.1,0v3.106a4.4,4.4,0,0,0,3.838,3.8h44.3c1.835,0,3.479-2.126,3.479-3.8V50.462C51.778,48.271,50.605,46.076,48.368,44.13Zm-9.082-3.838A1.81,1.81,0,0,1,39.12,41.7a10.628,10.628,0,0,1-2.54,2.789.561.561,0,0,0-.207.552.568.568,0,0,0,.414.429,9.574,9.574,0,0,1,2.264.842.687.687,0,0,1,.262.47,2.612,2.612,0,0,1-.538,1.835c0,.015-.014.015-.014.028l-8.255,13.17L33.1,45,34.218,37.4c1.712.607,3.434,1.229,3.631,1.325a2.727,2.727,0,0,1,1.436,1.572Zm-18.14,4.2-1.077-7.537,1.353-2.761a11.093,11.093,0,0,0,5.2,1.161,10.882,10.882,0,0,0,5.232-1.2l1.311,2.582-1.145,7.758a18.89,18.89,0,0,1-5.535,1.7A19.125,19.125,0,0,1,21.146,44.489ZM17.364,25.411a.552.552,0,0,0-.263-.456.524.524,0,0,0-.289-.069H16.8c-1.588,0-3.368-2.181-4.031-5.024a1.912,1.912,0,0,1,.663-2.223c.442-.234.966-.055,1.436.47a.547.547,0,1,0,.859-.677c-.359-.677-.786-6.212-.786-7.234A8.929,8.929,0,0,1,30.922,4.746a.546.546,0,0,0,.593.193A5.853,5.853,0,0,1,33.2,4.7a6.039,6.039,0,0,1,6.032,6.032,35.871,35.871,0,0,1-1.7,6.7.554.554,0,0,0,.842.718,1.223,1.223,0,0,1,1.49-.414,1.85,1.85,0,0,1,.622,2.14c-.677,2.844-2.444,5.039-4.045,5.011a.551.551,0,0,0-.552.538c-.055.859-.538,5.246-4.1,7.5a9.578,9.578,0,0,1-5.163,1.339,9.712,9.712,0,0,1-5.179-1.314c-3.632-2.249-4.043-6.666-4.087-7.536Zm-2.6,23.343a2.745,2.745,0,0,1-.538-1.905.71.71,0,0,1,.261-.47A10.7,10.7,0,0,1,16.77,45.5a.553.553,0,0,0,.4-.429.572.572,0,0,0-.207-.552,11,11,0,0,1-2.553-2.8,1.836,1.836,0,0,1-.166-1.422A2.8,2.8,0,0,1,15.7,38.7c.221-.1,1.933-.622,3.354-1.049l1.132,8.02a.053.053,0,0,0,.014.041L22.731,61.73,14.783,48.782A.056.056,0,0,1,14.769,48.754Zm6.571-2.929a20.3,20.3,0,0,0,5.163,1.46,20.024,20.024,0,0,0,5.328-1.477l-2.775,18H24.183Zm29.334,15.3A2.978,2.978,0,0,1,48.3,63.813H30.533l9.139-14.577a3.7,3.7,0,0,0,.718-2.662,1.73,1.73,0,0,0-.732-1.174,7.562,7.562,0,0,0-1.588-.7A9.836,9.836,0,0,0,40.1,42.239a2.817,2.817,0,0,0,.373-1.311q.7.269,1.367.538a28.266,28.266,0,0,1,2.346,10.6,3.656,3.656,0,0,0-1.459.552A3.515,3.515,0,0,0,43.968,59a4.111,4.111,0,0,0,.7.069,3.467,3.467,0,0,0,1.933-.593A3.513,3.513,0,0,0,45.374,52.1l-.011,0c-.027,0-.055-.014-.086-.014a30.587,30.587,0,0,0-1.96-9.939c4.611,2.278,7.344,5.3,7.344,8.3V61.123Zm-6.116-7.979a.439.439,0,0,0,.193.041h.014a.719.719,0,0,0,.166-.027c.069.014.152.014.22.027a2.413,2.413,0,1,1-.6-.041Z" transform="translate(-0.021 -0.021)"/><path class="e" d="M51.6,59.619a4.293,4.293,0,1,1-4.293,4.293A4.292,4.292,0,0,1,51.6,59.619" transform="translate(-6.69 -8.431)"/><circle class="f" cx="3.864" cy="3.864" r="3.864" transform="translate(41.045 51.617)"/><path class="c" d="M81.275,53.8a17.269,17.269,0,0,0-5.619-3.072,2.781,2.781,0,0,0-1.305-1.345c-.2-.106-2.118-.782-2.9-1.059L70.525,46.5A7.688,7.688,0,0,0,73.4,41.225c1.355-.23,2.68-1.879,3.185-4.026a2.01,2.01,0,0,0-.811-2.328,1.4,1.4,0,0,0-.936-.153,25.506,25.506,0,0,0,.907-4.016,4.928,4.928,0,0,0-6.066-4.8A6.923,6.923,0,0,0,57.428,30.33c0,.038.133,2.767.4,4.369a1.384,1.384,0,0,0-1.009.1,2.009,2.009,0,0,0-.83,2.385c.475,2.147,1.812,3.787,3.167,4.026a7.444,7.444,0,0,0,2.871,5.314l-1,2c-.867.257-2.47.744-2.669.839-.032.016-.06.037-.092.054a1.458,1.458,0,0,1,.315.634c.005.021.009.041.014.061.037-.02.07-.046.109-.064.152-.067,1.335-.429,2.317-.726l.783,5.542a.033.033,0,0,0,.009.028l1.747,11.067-4.341-7.07c0,.479,0,.959-.01,1.439L63.553,67.4H57.822c-.128.261-.263.516-.41.765H81.218a2.783,2.783,0,0,0,2.4-2.623V58.172A5.9,5.9,0,0,0,81.275,53.8M59.849,40.862h0a.382.382,0,0,0-.181-.315.353.353,0,0,0-.2-.047h-.01c-1.1,0-2.328-1.508-2.785-3.472a1.321,1.321,0,0,1,.458-1.536c.307-.162.668-.038.992.325a.378.378,0,0,0,.594-.468,30.938,30.938,0,0,1-.543-5,6.17,6.17,0,0,1,11.046-3.768.379.379,0,0,0,.41.133,4.012,4.012,0,0,1,1.163-.161,4.172,4.172,0,0,1,4.169,4.168,24.8,24.8,0,0,1-1.174,4.628.383.383,0,0,0,.582.5.846.846,0,0,1,1.03-.286,1.28,1.28,0,0,1,.429,1.479C75.362,39,74.141,40.52,73.035,40.5a.381.381,0,0,0-.382.372,6.88,6.88,0,0,1-2.832,5.18,6.613,6.613,0,0,1-3.568.926,6.026,6.026,0,0,1-6.4-6.116m1.87,7.974.935-1.908a7.657,7.657,0,0,0,3.6.8,7.514,7.514,0,0,0,3.615-.83l.907,1.784-.792,5.361a13.027,13.027,0,0,1-3.825,1.173,13.206,13.206,0,0,1-3.693-1.173ZM64.562,67.4,62.6,54.968a14.031,14.031,0,0,0,3.568,1.009,13.836,13.836,0,0,0,3.682-1.02L67.929,67.4Zm6.163-13,.772-5.256c1.183.42,2.372.849,2.509.916A1.885,1.885,0,0,1,75,51.145h0a1.251,1.251,0,0,1-.115.973,7.351,7.351,0,0,1-1.755,1.928.384.384,0,0,0,.143.677,6.689,6.689,0,0,1,1.564.582.478.478,0,0,1,.181.325,1.8,1.8,0,0,1-.372,1.267c0,.01-.009.01-.009.02l-5.705,9.1Zm10.5,13H68.95l6.315-10.074a2.552,2.552,0,0,0,.5-1.839,1.19,1.19,0,0,0-.5-.811,5.182,5.182,0,0,0-1.1-.487,6.821,6.821,0,0,0,1.4-1.7,1.95,1.95,0,0,0,.258-.907q.487.185.944.373a19.508,19.508,0,0,1,1.622,7.325,2.545,2.545,0,0,0-1.009.381,2.43,2.43,0,0,0,.859,4.408,2.9,2.9,0,0,0,.488.047,2.388,2.388,0,0,0,1.334-.41,2.427,2.427,0,0,0-.85-4.4l-.009,0c-.018,0-.038-.009-.058-.009a21.147,21.147,0,0,0-1.355-6.868C80.97,54,82.859,56.09,82.859,58.16V65.54h.009a2.059,2.059,0,0,1-1.641,1.86m-2.589-7.373h0a.326.326,0,0,0,.134.028h.009a.512.512,0,0,0,.114-.019c.047.009.106.009.152.019a1.669,1.669,0,1,1-.412-.028" transform="translate(-7.901 -3.31)"/><path class="d" d="M81.275,53.8a17.269,17.269,0,0,0-5.619-3.072,2.781,2.781,0,0,0-1.305-1.345c-.2-.106-2.118-.782-2.9-1.059L70.525,46.5A7.688,7.688,0,0,0,73.4,41.225c1.355-.23,2.68-1.879,3.185-4.026a2.01,2.01,0,0,0-.811-2.328,1.4,1.4,0,0,0-.936-.153,25.506,25.506,0,0,0,.907-4.016,4.928,4.928,0,0,0-6.066-4.8A6.923,6.923,0,0,0,57.428,30.33c0,.038.133,2.767.4,4.369a1.384,1.384,0,0,0-1.009.1,2.009,2.009,0,0,0-.83,2.385c.475,2.147,1.812,3.787,3.167,4.026a7.444,7.444,0,0,0,2.871,5.314l-1,2c-.867.257-2.47.744-2.669.839-.032.016-.06.037-.092.054a1.458,1.458,0,0,1,.315.634c.005.021.009.041.014.061.037-.02.07-.046.109-.064.152-.067,1.335-.429,2.317-.726l.783,5.542a.033.033,0,0,0,.009.028l1.747,11.067-4.341-7.07c0,.479,0,.959-.01,1.439L63.553,67.4H57.822c-.128.261-.263.516-.41.765H81.218a2.783,2.783,0,0,0,2.4-2.623V58.172A5.9,5.9,0,0,0,81.275,53.8ZM59.849,40.862h0a.382.382,0,0,0-.181-.315.353.353,0,0,0-.2-.047h-.01c-1.1,0-2.328-1.508-2.785-3.472a1.321,1.321,0,0,1,.458-1.536c.307-.162.668-.038.992.325a.378.378,0,0,0,.594-.468,30.938,30.938,0,0,1-.543-5,6.17,6.17,0,0,1,11.046-3.768.379.379,0,0,0,.41.133,4.012,4.012,0,0,1,1.163-.161,4.172,4.172,0,0,1,4.169,4.168,24.8,24.8,0,0,1-1.174,4.628.383.383,0,0,0,.582.5.846.846,0,0,1,1.03-.286,1.28,1.28,0,0,1,.429,1.479C75.362,39,74.141,40.52,73.035,40.5a.381.381,0,0,0-.382.372,6.88,6.88,0,0,1-2.832,5.18,6.613,6.613,0,0,1-3.568.926,6.026,6.026,0,0,1-6.4-6.116Zm1.87,7.974.935-1.908a7.657,7.657,0,0,0,3.6.8,7.514,7.514,0,0,0,3.615-.83l.907,1.784-.792,5.361a13.027,13.027,0,0,1-3.825,1.173,13.206,13.206,0,0,1-3.693-1.173ZM64.562,67.4,62.6,54.968a14.031,14.031,0,0,0,3.568,1.009,13.836,13.836,0,0,0,3.682-1.02L67.929,67.4Zm6.163-13,.772-5.256c1.183.42,2.372.849,2.509.916A1.885,1.885,0,0,1,75,51.145h0a1.251,1.251,0,0,1-.115.973,7.351,7.351,0,0,1-1.755,1.928.384.384,0,0,0,.143.677,6.689,6.689,0,0,1,1.564.582.478.478,0,0,1,.181.325,1.8,1.8,0,0,1-.372,1.267c0,.01-.009.01-.009.02l-5.705,9.1Zm10.5,13H68.95l6.315-10.074a2.552,2.552,0,0,0,.5-1.839,1.19,1.19,0,0,0-.5-.811,5.182,5.182,0,0,0-1.1-.487,6.821,6.821,0,0,0,1.4-1.7,1.95,1.95,0,0,0,.258-.907q.487.185.944.373a19.508,19.508,0,0,1,1.622,7.325,2.545,2.545,0,0,0-1.009.381,2.43,2.43,0,0,0,.859,4.408,2.9,2.9,0,0,0,.488.047,2.388,2.388,0,0,0,1.334-.41,2.427,2.427,0,0,0-.85-4.4l-.009,0c-.018,0-.038-.009-.058-.009a21.147,21.147,0,0,0-1.355-6.868C80.97,54,82.859,56.09,82.859,58.16V65.54h.009A2.059,2.059,0,0,1,81.227,67.4Zm-2.589-7.373h0a.326.326,0,0,0,.134.028h.009a.512.512,0,0,0,.114-.019c.047.009.106.009.152.019a1.669,1.669,0,1,1-.412-.028Z" transform="translate(-7.901 -3.31)"/><path class="e" d="M82.2,64.5a2.966,2.966,0,1,1-2.966,2.966A2.967,2.967,0,0,1,82.2,64.5" transform="translate(-11.206 -9.122)"/><path class="f" d="M82.251,64.846a2.67,2.67,0,1,1-2.669,2.669A2.669,2.669,0,0,1,82.251,64.846Z" transform="translate(-11.255 -9.17)"/></g></g></g></g></svg>