<svg xmlns="http://www.w3.org/2000/svg" width="130" height="130" viewBox="0 0 130 130"><defs><style>.a{fill:none;}.b{fill:#2f80ed;}.c{fill:#555;}</style></defs><g transform="translate(-123 -1189)"><circle class="a" cx="65" cy="65" r="65" transform="translate(123 1189)"/><g transform="translate(144.149 1179.001)"><g transform="translate(2.138 37.781)"><path class="b" d="M217.3,214.644a11.313,11.313,0,0,1-5.188-1.16,5.629,5.629,0,0,1-3.065-4.991.861.861,0,0,1,1.721-.052c.126,4.244,5.146,4.506,6.685,4.489a6.569,6.569,0,0,0,4.8-1.955,3.625,3.625,0,0,0,.861-2.962c-.236-1.807-1.6-2.783-4.561-3.27-.3-.05-.6-.095-.9-.141-2.628-.4-5.348-.805-7.217-3.453a4.384,4.384,0,0,1-.75-3.386,6.485,6.485,0,0,1,2.785-4.043,8.866,8.866,0,0,1,8.014-.516,7.663,7.663,0,0,1,4.256,4.237.861.861,0,1,1-1.6.627,5.982,5.982,0,0,0-3.306-3.27,7.194,7.194,0,0,0-6.394.344,4.843,4.843,0,0,0-2.065,2.926,2.663,2.663,0,0,0,.465,2.088c1.447,2.048,3.589,2.37,6.069,2.745.308.046.616.093.924.143,1.5.244,5.487.893,5.99,4.742a5.336,5.336,0,0,1-1.258,4.312,8.331,8.331,0,0,1-6.084,2.547Z" transform="translate(-175.478 -165.867)"/><path class="b" d="M252.861,170.395a.861.861,0,0,1-.861-.861v-4.754a.861.861,0,0,1,1.721,0v4.754A.861.861,0,0,1,252.861,170.395Z" transform="translate(-211.037 -142.209)"/><path class="b" d="M252.861,318.217a.861.861,0,0,1-.861-.861v-4.936a.861.861,0,0,1,1.721,0v4.936A.861.861,0,0,1,252.861,318.217Z" transform="translate(-211.037 -264.438)"/><path class="c" d="M127.022,151.624A27.022,27.022,0,1,1,154.044,124.6,27.053,27.053,0,0,1,127.022,151.624Zm0-52.323a25.305,25.305,0,1,0,0-.009Z" transform="translate(-85.199 -87.288)"/><path class="c" d="M157.3,177.612a20.726,20.726,0,1,1,20.724-20.735A20.727,20.727,0,0,1,157.3,177.612Zm0-39.73a19.033,19.033,0,1,0,0-.009Z" transform="translate(-115.475 -119.227)"/><path class="c" d="M445.461,254.289a.861.861,0,0,1-.649-.3l-3.728-4.274-4.215,3.718a.861.861,0,1,1-1.139-1.291l4.864-4.291a.861.861,0,0,1,1.219.081l4.3,4.926a.861.861,0,0,1-.084,1.2A.85.85,0,0,1,445.461,254.289Z" transform="translate(-362.903 -211.52)"/><path class="c" d="M19.188,230.417h-.055a.86.86,0,0,1-.592-.294l-4.3-4.926a.861.861,0,1,1,1.3-1.131l3.73,4.274,4.215-3.718a.861.861,0,1,1,1.138,1.291L19.758,230.2a.861.861,0,0,1-.57.215Z" transform="translate(-14.004 -191.739)"/><path class="c" d="M92.37,287.812a37.331,37.331,0,0,1-33.977-21.861.861.861,0,1,1,1.566-.712,35.605,35.605,0,0,0,68.01-14.749.861.861,0,1,1,1.721,0A37.322,37.322,0,0,1,92.37,287.812Z" transform="translate(-50.678 -213.167)"/><path class="c" d="M40.261,75.965A.861.861,0,0,1,39.4,75.1a37.327,37.327,0,0,1,71.3-15.466.861.861,0,1,1-1.565.714A35.606,35.606,0,0,0,41.121,75.1.861.861,0,0,1,40.261,75.965Z" transform="translate(-35.029 -37.781)"/><path class="c" d="M252.861,103.767a.861.861,0,0,1-.861-.861V99.981a.861.861,0,0,1,1.721,0v2.926A.861.861,0,0,1,252.861,103.767Z" transform="translate(-211.037 -88.563)"/><path class="c" d="M252.861,387.377a.861.861,0,0,1-.861-.861v-2.926a.861.861,0,0,1,1.721,0v2.926a.861.861,0,0,1-.861.861Z" transform="translate(-211.037 -323.359)"/><path class="c" d="M388.557,251.721h-2.926a.861.861,0,1,1,0-1.721h2.926a.861.861,0,1,1,0,1.721Z" transform="translate(-320.955 -213.474)"/><path class="c" d="M104.947,251.721h-2.926a.861.861,0,1,1,0-1.721h2.926a.861.861,0,1,1,0,1.721Z" transform="translate(-86.159 -213.474)"/><path class="c" d="M179.1,123.244a.861.861,0,0,1-.745-.43l-1.463-2.534a.861.861,0,0,1,1.491-.861l1.463,2.534a.861.861,0,0,1-.315,1.176A.85.85,0,0,1,179.1,123.244Z" transform="translate(-148.763 -105.012)"/><path class="c" d="M320.9,368.854a.861.861,0,0,1-.745-.43l-1.463-2.534a.861.861,0,0,1,1.491-.861l1.463,2.534a.861.861,0,0,1-.315,1.176A.85.85,0,0,1,320.9,368.854Z" transform="translate(-266.157 -308.349)"/><path class="c" d="M368.042,177.913a.861.861,0,0,1-.432-1.606l2.534-1.463a.861.861,0,0,1,.861,1.491l-2.534,1.463a.848.848,0,0,1-.429.115Z" transform="translate(-306.393 -151.158)"/><path class="c" d="M122.418,319.683a.861.861,0,0,1-.432-1.608l2.534-1.461a.861.861,0,1,1,.861,1.491l-2.534,1.461A.85.85,0,0,1,122.418,319.683Z" transform="translate(-103.042 -268.527)"/><path class="c" d="M125.132,177.093a.861.861,0,0,1-.429-.115l-2.534-1.463a.861.861,0,1,1,.861-1.491l2.534,1.463a.861.861,0,0,1-.432,1.606Z" transform="translate(-103.196 -150.479)"/><path class="c" d="M370.742,318.9a.84.84,0,0,1-.429-.115l-2.534-1.461a.861.861,0,1,1,.861-1.491l2.534,1.461a.861.861,0,0,1-.432,1.606Z" transform="translate(-306.533 -267.882)"/><path class="c" d="M319.608,123.874a.849.849,0,0,1-.429-.115.861.861,0,0,1-.315-1.176l1.463-2.534a.861.861,0,0,1,1.491.861l-1.463,2.534A.861.861,0,0,1,319.608,123.874Z" transform="translate(-266.298 -105.534)"/><path class="c" d="M177.808,369.534a.84.84,0,0,1-.429-.115.861.861,0,0,1-.315-1.176l1.461-2.534a.861.861,0,1,1,1.491.861l-1.461,2.534A.861.861,0,0,1,177.808,369.534Z" transform="translate(-148.904 -308.911)"/><path class="c" d="M455.195,192.922a.861.861,0,0,1-.861-.749l-.022-.164a.861.861,0,1,1,1.706-.238l.024.172a.861.861,0,0,1-.742.966.841.841,0,0,1-.105.012Zm-.742-3.53a.861.861,0,0,1-.828-.63l-.045-.162a.861.861,0,0,1,1.654-.472l.048.172a.861.861,0,0,1-.6,1.06A.833.833,0,0,1,454.453,189.392ZM453.3,185.95a.861.861,0,0,1-.8-.537l-.06-.146a.861.861,0,0,1,1.583-.675s.026.06.072.172a.866.866,0,0,1-.8,1.186Z" transform="translate(-376.919 -158.89)"/><path class="c" d="M39.025,287.351a.861.861,0,0,1-.792-.516s-.026-.06-.072-.172a.861.861,0,0,1,1.6-.647l.06.146a.861.861,0,0,1-.792,1.2Zm-1.179-3.423a.861.861,0,0,1-.826-.625l-.048-.172a.861.861,0,1,1,1.658-.463l.045.162a.861.861,0,0,1-.59,1.062.871.871,0,0,1-.238.036Zm-.766-3.534a.861.861,0,0,1-.852-.742l-.024-.172a.861.861,0,0,1,1.707-.224l.022.172a.861.861,0,0,1-.738.959.688.688,0,0,1-.115.009Z" transform="translate(-32.377 -237.074)"/></g></g></g></svg>