<svg xmlns="http://www.w3.org/2000/svg" width="130" height="130" viewBox="0 0 130 130"><defs><style>.a{fill:none;}.b{fill:#2f80ed;}.c{fill:#555;}</style></defs><g transform="translate(-123 -1189)"><circle class="a" cx="65" cy="65" r="65" transform="translate(123 1189)"/><g transform="translate(146.912 1211.152)"><path class="b" d="M46.431,43.4l.127-.127.127.127L60.393,29.694A9.693,9.693,0,0,0,46.685,15.986l-.127.127-.127-.127A9.693,9.693,0,1,0,32.723,29.694ZM44.7,17.719l.127.127,1.731,1.731,1.731-1.731.127-.127A7.244,7.244,0,1,1,58.66,27.963L46.686,39.939l-.127-.127-.127.127L34.455,27.963A7.244,7.244,0,1,1,44.7,17.719Z" transform="translate(-4.928)"/><path class="c" d="M63.557,50.605c-2.581,1.419-5.018,2.759-6.612,6.038-1.387,2.838-1.985,6.246-1.881,10.725l-.35,7.2h2.452l.346-7.12c0-.03,0-.059,0-.089-.1-4.093.419-7.154,1.633-9.638,1.255-2.581,3.168-3.634,5.59-4.965.524-.288,1.062-.584,1.611-.905a33.044,33.044,0,0,0,6.723-5.825c.383-.4.759-.79,1.131-1.168.415-.423,2.241-2.11,2.946-2.76a2.058,2.058,0,0,1,2.828,0,2.006,2.006,0,0,1,0,2.833L69.562,55.346a1.225,1.225,0,0,0-.177,1.508,2.728,2.728,0,0,0,.406.519,1.224,1.224,0,0,0,2.09-.882l9.829-9.83a4.456,4.456,0,0,0,0-6.3A4.389,4.389,0,0,0,79.7,39.229V29.887a2.568,2.568,0,0,1,2.2-2.622,2.445,2.445,0,0,1,2.671,2.423v21.4a1.72,1.72,0,0,1-.737,1.409l.107.107-.007.008L72.171,64.378a7.629,7.629,0,0,1-1.267,1.1,1.225,1.225,0,0,0-.565.878l-1.06,8.212h2.442l.976-7.357a12.638,12.638,0,0,0,1.207-1.1L85.665,54.348a13.558,13.558,0,0,0,.99-1.066,1.22,1.22,0,0,0,.214-1.138,4.1,4.1,0,0,0,.152-1.051v-21.4a4.894,4.894,0,0,0-5.35-4.861,5.033,5.033,0,0,0-4.418,5.059v9.391a4.275,4.275,0,0,0-1.8,1.05c-.1.091-2.455,2.256-3,2.81-.377.383-.76.782-1.15,1.188a30.776,30.776,0,0,1-6.194,5.408C64.582,50.043,64.062,50.327,63.557,50.605Z" transform="translate(-9.846 -2.309)"/><path class="c" d="M19.324,67.206l.975,7.357H22.77l-1.089-8.212a1.225,1.225,0,0,0-.565-.878,7.733,7.733,0,0,1-1.267-1.1L8.088,52.616l-.007-.008.107-.107a1.72,1.72,0,0,1-.737-1.409V29.69a2.44,2.44,0,0,1,.8-1.8,2.407,2.407,0,0,1,1.632-.635c.079,0,.157,0,.237.011a2.568,2.568,0,0,1,2.2,2.622v9.341a4.407,4.407,0,0,0-2.006,1.135,4.456,4.456,0,0,0,0,6.3l9.834,9.835a1.229,1.229,0,0,0,2.1.86,2.669,2.669,0,0,0,.387-.5,1.224,1.224,0,0,0-.177-1.508L12.04,44.927a2.006,2.006,0,0,1,0-2.833,2.036,2.036,0,0,1,2.866.036c.668.613,2.493,2.3,2.909,2.724.371.377.747.768,1.13,1.167a33.06,33.06,0,0,0,6.724,5.825c.548.321,1.086.616,1.61.9,2.422,1.331,4.335,2.383,5.591,4.967,1.213,2.481,1.731,5.542,1.632,9.635,0,.03,0,.059,0,.089l.376,7.121h2.423l-.35-7.2c.1-4.478-.494-7.887-1.88-10.723-1.6-3.282-4.032-4.622-6.613-6.04-.505-.278-1.024-.563-1.553-.872a30.748,30.748,0,0,1-6.2-5.408c-.39-.406-.773-.8-1.149-1.187-.545-.554-2.9-2.719-2.962-2.775a4.389,4.389,0,0,0-1.836-1.083V29.887a5.033,5.033,0,0,0-4.418-5.059A4.894,4.894,0,0,0,5,29.69v21.4a4.1,4.1,0,0,0,.151,1.051,1.225,1.225,0,0,0,.214,1.138,13.428,13.428,0,0,0,.99,1.066L18.117,66.109A12.533,12.533,0,0,0,19.324,67.206Z" transform="translate(0 -2.309)"/></g></g></svg>