<svg xmlns="http://www.w3.org/2000/svg" width="130" height="130" viewBox="0 0 130 130"><defs><style>.a,.b,.d{fill:none;}.b{stroke:#555;fill-rule:evenodd;}.b,.c,.d{stroke-width:2px;}.c{fill:#fff;}.c,.d{stroke:#2f80ed;}.e{stroke:none;}</style></defs><g transform="translate(-123 -1189)"><circle class="a" cx="65" cy="65" r="65" transform="translate(123 1189)"/><g transform="translate(173.128 1222)"><g transform="translate(-0.128)"><path class="b" d="M15.1,0A15.291,15.291,0,0,1,30.54,15.191V62.03a3.351,3.351,0,0,1-3.291,3.291H3.2A3.351,3.351,0,0,1-.1,62.03V36.965c0-5.317-.76-6.33,5.064-8.861S23.7,24.812,23.7,15.444c0-10.381-16.457-11.9-16.963.76C6.74,23.04-.1,22.787-.1,18.229V15.191A15.236,15.236,0,0,1,15.1,0Z" transform="translate(0.128)"/></g></g><g class="c" transform="translate(181 1262)"><circle class="e" cx="7.5" cy="7.5" r="7.5"/><circle class="a" cx="7.5" cy="7.5" r="6.5"/></g><path class="d" d="M183.406,1274.581l9.617-10.278" transform="translate(0.405 0.036)"/></g></svg>