<svg xmlns="http://www.w3.org/2000/svg" width="130" height="130" viewBox="0 0 130 130"><defs><style>.a{fill:none;}.b,.c{fill:#555;}.c{stroke:#535353;stroke-width:0.3px;}.d{fill:#fff;stroke:#2f80ed;}.e{stroke:none;}</style></defs><g transform="translate(-123 -1189)"><circle class="a" cx="65" cy="65" r="65" transform="translate(123 1189)"/><g transform="translate(88.844 1194.2)"><path class="b" d="M69.643,401.5a.645.645,0,0,0,.643-.643v-3.216a.643.643,0,0,0-1.286,0v3.216A.645.645,0,0,0,69.643,401.5Z" transform="translate(0 -314.875)"/><path class="c" d="M125.161,73.025a29.1,29.1,0,0,0-9.47-5.177,4.687,4.687,0,0,0-2.2-2.267c-.338-.177-3.569-1.318-4.888-1.785l-1.56-3.071c3.746-2.685,4.631-7.155,4.84-8.891,2.283-.386,4.518-3.167,5.37-6.785a3.39,3.39,0,0,0-1.367-3.923,2.364,2.364,0,0,0-1.576-.257,43.185,43.185,0,0,0,1.527-6.769,8.323,8.323,0,0,0-8.312-8.312,8.525,8.525,0,0,0-1.913.225,11.669,11.669,0,0,0-20.644,7.46c0,.064.225,4.663.675,7.364a2.326,2.326,0,0,0-1.7.161,3.387,3.387,0,0,0-1.4,4.02h0c.8,3.618,3.055,6.383,5.338,6.785.177,1.753,1,6.27,4.84,8.956l-1.688,3.376c-1.463.434-4.164,1.254-4.5,1.415a4.8,4.8,0,0,0-2.058,1.929,38.033,38.033,0,0,0-10.531,5.129C70.656,75.035,69,77.639,69,80.356a.643.643,0,0,0,1.286,0c0-2.283,1.5-4.534,4.421-6.7a31.751,31.751,0,0,1,6.5-3.569,40.345,40.345,0,0,0-2.331,6.9l-1.592-.113a2.432,2.432,0,0,0-2.589,2.187l-2.347,8.184a.354.354,0,0,0-.016.129,2.428,2.428,0,0,0,2.251,2.589.658.658,0,0,0,.691-.595.646.646,0,0,0-.595-.691,1.144,1.144,0,0,1-1.061-1.158l2.347-8.168a.354.354,0,0,0,.016-.129,1.158,1.158,0,0,1,.386-.788,1.124,1.124,0,0,1,.836-.273l4,.289a1.148,1.148,0,0,1,1.061,1.222v.129l1.174,8.425a1.192,1.192,0,0,1-.386.724,1.124,1.124,0,0,1-.836.273.658.658,0,0,0-.691.595.646.646,0,0,0,.595.691H82.3a2.44,2.44,0,0,0,2.428-2.251v-.129L83.551,79.7A2.445,2.445,0,0,0,81.3,77.173l-1.109-.08A35.015,35.015,0,0,1,83,69.391c.338-.129.691-.257,1.045-.386a3.483,3.483,0,0,0,.434,1.849,12.407,12.407,0,0,0,2.4,2.894A8.785,8.785,0,0,0,85,74.6a2.045,2.045,0,0,0-.852,1.383,4.411,4.411,0,0,0,.82,3.167l10.322,16.8H73.47a3.9,3.9,0,0,1-3.183-3.135V89.2A.643.643,0,0,0,69,89.2v3.618c0,2.026,2.428,4.421,4.47,4.421h51.595c2.138,0,4.052-2.476,4.052-4.421V80.4C129.132,77.848,127.766,75.292,125.161,73.025Zm-10.579-4.47a2.108,2.108,0,0,1-.193,1.64,12.373,12.373,0,0,1-2.958,3.248.654.654,0,0,0-.241.643.662.662,0,0,0,.482.5,11.184,11.184,0,0,1,2.637.981.8.8,0,0,1,.305.547,3.043,3.043,0,0,1-.627,2.138c0,.016-.016.016-.016.032l-9.615,15.339,3.023-19.583,1.3-8.859c1.994.707,4,1.431,4.229,1.543A3.182,3.182,0,0,1,114.581,68.555ZM93.455,73.443,92.2,64.664l1.576-3.216A12.913,12.913,0,0,0,99.838,62.8a12.676,12.676,0,0,0,6.094-1.4l1.527,3.007-1.334,9.036a21.984,21.984,0,0,1-6.447,1.978A22.277,22.277,0,0,1,93.455,73.443Zm-4.405-22.22a.644.644,0,0,0-.305-.531.618.618,0,0,0-.338-.08H88.39c-1.849,0-3.923-2.54-4.695-5.852a2.227,2.227,0,0,1,.772-2.589c.515-.273,1.125-.064,1.672.547a.636.636,0,0,0,1-.788c-.418-.788-.916-7.235-.916-8.425a10.4,10.4,0,0,1,18.618-6.351.635.635,0,0,0,.691.225,6.8,6.8,0,0,1,1.962-.273,7.033,7.033,0,0,1,7.026,7.026,41.875,41.875,0,0,1-1.978,7.8.645.645,0,0,0,.981.836,1.425,1.425,0,0,1,1.736-.482,2.155,2.155,0,0,1,.724,2.492c-.788,3.312-2.846,5.869-4.711,5.836a.642.642,0,0,0-.643.627c-.064,1-.627,6.11-4.775,8.73a11.153,11.153,0,0,1-6.013,1.56A11.306,11.306,0,0,1,93.809,60C89.58,57.381,89.1,52.236,89.049,51.223ZM86.027,78.411a3.2,3.2,0,0,1-.627-2.219.827.827,0,0,1,.305-.547,12.4,12.4,0,0,1,2.653-1.029.642.642,0,0,0,.466-.5.667.667,0,0,0-.241-.643,12.807,12.807,0,0,1-2.974-3.264,2.139,2.139,0,0,1-.193-1.656,3.263,3.263,0,0,1,1.7-1.849c.257-.113,2.251-.724,3.907-1.222l1.318,9.341a.059.059,0,0,0,.016.048L95.3,93.524,86.043,78.443A.056.056,0,0,1,86.027,78.411ZM93.68,75a23.67,23.67,0,0,0,6.013,1.7,23.3,23.3,0,0,0,6.206-1.72l-3.232,20.966H96.992Zm34.166,17.815c0,1.415-1.527,3.135-2.765,3.135H104.388l10.644-16.978a4.308,4.308,0,0,0,.836-3.1,2.011,2.011,0,0,0-.852-1.367,8.82,8.82,0,0,0-1.849-.82,11.447,11.447,0,0,0,2.363-2.862,3.273,3.273,0,0,0,.434-1.527q.82.314,1.592.627a32.928,32.928,0,0,1,2.733,12.348,4.248,4.248,0,0,0-1.7.643,4.093,4.093,0,0,0,1.447,7.428,4.723,4.723,0,0,0,.82.08,4.036,4.036,0,0,0,2.251-.691,4.1,4.1,0,0,0,1.753-2.6h0a4.086,4.086,0,0,0-3.2-4.823c-.032,0-.064-.016-.1-.016a35.63,35.63,0,0,0-2.283-11.576c5.37,2.653,8.554,6.174,8.554,9.663V92.817Zm-7.123-9.293a.513.513,0,0,0,.225.048h.016a.807.807,0,0,0,.193-.032c.08.016.177.016.257.032a2.814,2.814,0,0,1,1.785,1.19,2.786,2.786,0,0,1,.418,2.106h0a2.814,2.814,0,0,1-1.19,1.785,2.786,2.786,0,0,1-2.106.418,2.814,2.814,0,0,1-1.785-1.19,2.786,2.786,0,0,1-.418-2.106,2.791,2.791,0,0,1,2.6-2.251Z" transform="translate(0 0)"/><g class="d" transform="translate(116.156 81.27)"><circle class="e" cx="5" cy="5" r="5"/><circle class="a" cx="5" cy="5" r="4.5"/></g></g></g></svg>