<svg xmlns="http://www.w3.org/2000/svg" width="130" height="130" viewBox="0 0 130 130"><defs><style>.a,.b,.c{fill:none;}.b{stroke:#555;}.b,.c{stroke-width:2px;}.c{stroke:#2f80ed;stroke-linecap:round;}</style></defs><g transform="translate(-123 -1189)"><circle class="a" cx="65" cy="65" r="65" transform="translate(123 1189)"/><path class="b" d="M3.395,14.867a4.47,4.47,0,0,1,1.138-2.427l9.1-9.1q1.063-.91,1.593.3l7.358,13.806a1.986,1.986,0,0,1-.379,2.352l-3.338,3.338a3.774,3.774,0,0,0-1.062,2.352q0,2.276,2.352,5.841A49.88,49.88,0,0,0,24.786,37.4l2.352,2.425c.709.709,1.617,1.581,2.733,2.617a45.8,45.8,0,0,0,5.5,4.1q3.829,2.542,6.03,2.541a3.3,3.3,0,0,0,2.427-.986l3.947-3.944a1.667,1.667,0,0,1,2.273-.3l13.277,7.813a1.108,1.108,0,0,1,.607.8.969.969,0,0,1-.3.872l-9.1,9.1A4.458,4.458,0,0,1,52.1,63.563a18.351,18.351,0,0,1-8.384-1.024,37.934,37.934,0,0,1-8.645-4.134q-3.982-2.578-7.4-5.232t-5.462-4.551l-1.972-1.9q-.757-.757-2.01-2.086t-4.366-5.232a76.182,76.182,0,0,1-5.386-7.623,44.471,44.471,0,0,1-3.944-8.458A17.993,17.993,0,0,1,3.395,14.867Z" transform="translate(154.733 1221.053)"/><path class="c" d="M1392.31,1538.631s17.386-3.37,16.137,15.432" transform="translate(-1202.646 -301.454)"/><path class="c" d="M1392.31,1538.735s25.063-4.857,23.262,22.245" transform="translate(-1204.521 -306.615)"/><path class="c" d="M1392.31,1538.817s31.161-6.039,28.923,27.658" transform="translate(-1204.81 -311.915)"/></g></svg>