<svg xmlns="http://www.w3.org/2000/svg" xmlns:xlink="http://www.w3.org/1999/xlink" width="54.579" height="48" viewBox="0 0 54.579 48"><defs><style>.a{fill:#2f80ed;}.b{clip-path:url(#a);}</style><clipPath id="a"><rect class="a" width="54.579" height="48"/></clipPath></defs><g transform="translate(0 0)"><g class="b" transform="translate(0 0)"><path class="a" d="M53.725,20.435a.471.471,0,0,0,.029-.082A15.78,15.78,0,0,0,49.743,3.925c-.2-.187-.4-.368-.6-.545l-.006-.006C43.252-1.638,34.216-1,28.568,4.836L27.3,6.142l-1.264-1.3C20.394-.995,11.36-1.643,5.462,3.378A15.776,15.776,0,0,0,3.84,25.628c.175.2.353.4.541.593L6.364,28.27l.044.048,3.582,3.7a.671.671,0,0,0,.076.08l3.546,3.66a.831.831,0,0,0,.111.116l3.58,3.7.04.038,3.586,3.706c.023.025.044.048.069.072L24.214,46.7A4.182,4.182,0,0,0,27.249,48a4.516,4.516,0,0,0,3.126-1.291l3.239-3.347.006,0,7.28-7.518.027-.027,9.291-9.592a15.6,15.6,0,0,0,3.506-5.784m-6.712,6.07H7.582l-1.63-1.685H48.643ZM43.368,30.27H11.227L9.618,28.609H44.975Zm-3.649,3.763H14.873l-1.607-1.66H41.329ZM36.073,37.8H18.518l-1.607-1.662H37.686Zm-3.645,3.765H22.165L20.556,39.9H34.035ZM50.307,22.717H4.3a13.987,13.987,0,0,1-.928-1.662H51.22a13.338,13.338,0,0,1-.913,1.662M2.141,14.32A13.584,13.584,0,0,1,6.833,4.975,12.161,12.161,0,0,1,14.767,2.1a13.615,13.615,0,0,1,9.76,4.207L27.3,9.163,30.076,6.3C34.954,1.264,42.726.68,47.766,4.971v0q.265.233.524.473A13.673,13.673,0,0,1,52,18.952H2.608a13.544,13.544,0,0,1-.467-4.632m26.652,31a2.169,2.169,0,0,1-3.063-.072L24.2,43.667h6.19Z" transform="translate(0.001 0.001)"/></g></g></svg>