<svg xmlns="http://www.w3.org/2000/svg" width="130" height="130" viewBox="0 0 130 130"><defs><style>.a{fill:none;}.b{fill:#555;}.c{fill:#2f80ed;}</style></defs><g transform="translate(-123 -1189)"><circle class="a" cx="65" cy="65" r="65" transform="translate(123 1189)"/><g transform="translate(154.209 1220.234)"><g transform="translate(0.031 0.063)"><path class="b" d="M22.577,3.315H3.022a1.127,1.127,0,0,0,0,2.254H22.577a1.127,1.127,0,0,0,0-2.254Z" transform="translate(3.358 5.849)"/><path class="b" d="M15.516,2.231A4.183,4.183,0,1,0,19.7,6.416,4.187,4.187,0,0,0,15.516,2.231Zm0,6.11a1.928,1.928,0,1,1,1.928-1.928A1.928,1.928,0,0,1,15.516,8.341Z" transform="translate(20.524 3.879)"/><path class="b" d="M19.418,2.231A4.183,4.183,0,1,0,23.6,6.416,4.188,4.188,0,0,0,19.418,2.231Zm0,6.11a1.928,1.928,0,1,1,1.928-1.928A1.93,1.93,0,0,1,19.418,8.341Z" transform="translate(27.613 3.879)"/><path class="b" d="M15.235,12.917a4.182,4.182,0,1,0,4.182-4.182A4.188,4.188,0,0,0,15.235,12.917Zm6.11,0a1.928,1.928,0,1,1-1.928-1.928A1.93,1.93,0,0,1,21.345,12.917Z" transform="translate(27.611 15.703)"/><path class="b" d="M23.316,2.231A4.183,4.183,0,1,0,27.5,6.416,4.188,4.188,0,0,0,23.316,2.231Zm0,6.11a1.928,1.928,0,1,1,1.928-1.928A1.93,1.93,0,0,1,23.316,8.341Z" transform="translate(34.7 3.879)"/><path class="b" d="M19.134,12.917a4.182,4.182,0,1,0,4.182-4.182A4.188,4.188,0,0,0,19.134,12.917Zm6.11,0a1.928,1.928,0,1,1-1.928-1.928A1.93,1.93,0,0,1,25.244,12.917Z" transform="translate(34.7 15.703)"/><path class="b" d="M3.022,9.819a1.127,1.127,0,1,0,0,2.254H22.577a1.127,1.127,0,1,0,0-2.254Z" transform="translate(3.358 17.674)"/><path class="b" d="M11.337,12.917a4.181,4.181,0,1,0,4.179-4.182A4.187,4.187,0,0,0,11.337,12.917Zm6.107,0a1.926,1.926,0,1,1-1.928-1.928A1.93,1.93,0,0,1,17.444,12.917Z" transform="translate(20.524 15.703)"/><path class="b" d="M3.022,16.322a1.127,1.127,0,0,0,0,2.254H22.616a1.127,1.127,0,0,0,0-2.254Z" transform="translate(3.358 29.497)"/><path class="b" d="M33.651,37.845a1.129,1.129,0,0,0-1.127-1.127H4.582a2.291,2.291,0,0,1-2.291-2.291V22.94a2.291,2.291,0,0,1,2.291-2.291H62.931a2.294,2.294,0,0,1,2.294,2.291v8.666a1.127,1.127,0,1,0,2.254,0V22.94A4.523,4.523,0,0,0,65.9,19.519,4.525,4.525,0,0,0,67.479,16.1V4.614A4.556,4.556,0,0,0,62.928.063H4.582A4.556,4.556,0,0,0,.034,4.614V16.1a4.529,4.529,0,0,0,1.584,3.424A4.516,4.516,0,0,0,.031,22.94V34.424a4.523,4.523,0,0,0,1.584,3.421A4.525,4.525,0,0,0,.031,41.269V52.75A4.556,4.556,0,0,0,4.579,57.3H32.464a1.127,1.127,0,0,0,0-2.254H4.582a2.294,2.294,0,0,1-2.291-2.294V41.272a2.294,2.294,0,0,1,2.291-2.294H32.523A1.135,1.135,0,0,0,33.651,37.845ZM2.288,16.1V4.614A2.294,2.294,0,0,1,4.579,2.32H62.928a2.3,2.3,0,0,1,2.294,2.294V16.1a2.3,2.3,0,0,1-2.294,2.294H4.582A2.291,2.291,0,0,1,2.288,16.1Z" transform="translate(-0.031 -0.063)"/><path class="c" d="M28.706,14.981a10.715,10.715,0,0,0-13.411,1.167c-3.81,3.813-3.88,9.674-.178,14.589,4.85,6.436,12.546,12.808,13.589,12.808s8.742-6.372,13.589-12.805c3.7-4.915,3.632-10.779-.178-14.592A10.708,10.708,0,0,0,28.706,14.981Zm11.788,14.4A65.305,65.305,0,0,1,28.7,41.057,65.3,65.3,0,0,1,16.912,29.384c-3-3.982-3.007-8.657-.025-11.639a8.205,8.205,0,0,1,11.089-.479,1.133,1.133,0,0,0,1.454,0,8.363,8.363,0,0,1,11.089.479C43.5,20.724,43.492,25.405,40.494,29.384Z" transform="translate(22.434 23.734)"/></g></g></g></svg>