<svg xmlns="http://www.w3.org/2000/svg" width="130" height="130" viewBox="0 0 130 130"><defs><style>.a{fill:none;}.b{fill:#2f80ed;}.c{fill:#555;}</style></defs><g transform="translate(-123 -1189)"><circle class="a" cx="65" cy="65" r="65" transform="translate(123 1189)"/><g transform="translate(145.038 1179.797)"><g transform="translate(2.138 37.781)"><path class="b" d="M217.125,214.172a11.072,11.072,0,0,1-5.077-1.135,5.509,5.509,0,0,1-3-4.885.843.843,0,0,1,1.684-.051c.123,4.154,5.037,4.41,6.542,4.393a6.429,6.429,0,0,0,4.7-1.914,3.548,3.548,0,0,0,.842-2.9c-.231-1.769-1.567-2.724-4.464-3.2-.295-.049-.59-.093-.884-.138-2.572-.387-5.234-.788-7.063-3.379a4.29,4.29,0,0,1-.734-3.313,6.347,6.347,0,0,1,2.725-3.957,8.677,8.677,0,0,1,7.843-.505,7.5,7.5,0,0,1,4.166,4.147.842.842,0,1,1-1.568.613,5.855,5.855,0,0,0-3.236-3.2,7.041,7.041,0,0,0-6.258.337,4.74,4.74,0,0,0-2.021,2.864,2.606,2.606,0,0,0,.455,2.043c1.417,2,3.512,2.32,5.939,2.687.3.045.6.091.9.14,1.469.239,5.37.874,5.862,4.641a5.222,5.222,0,0,1-1.231,4.22,8.154,8.154,0,0,1-5.955,2.493Z" transform="translate(-176.193 -166.434)"/><path class="b" d="M252.842,170.257a.842.842,0,0,1-.842-.842v-4.652a.842.842,0,1,1,1.684,0v4.652A.842.842,0,0,1,252.842,170.257Z" transform="translate(-211.91 -142.672)"/><path class="b" d="M252.842,318.076a.842.842,0,0,1-.842-.842V312.4a.842.842,0,1,1,1.684,0v4.831A.842.842,0,0,1,252.842,318.076Z" transform="translate(-211.91 -265.443)"/><path class="c" d="M126.446,150.472a26.446,26.446,0,1,1,26.446-26.446A26.476,26.476,0,0,1,126.446,150.472Zm0-51.208a24.766,24.766,0,1,0,0-.008Z" transform="translate(-85.514 -87.507)"/><path class="c" d="M156.856,176.729a20.284,20.284,0,1,1,20.283-20.293,20.285,20.285,0,0,1-20.283,20.293Zm0-38.883a18.628,18.628,0,1,0,0-.008Z" transform="translate(-115.924 -119.588)"/><path class="c" d="M445.247,254.148a.842.842,0,0,1-.635-.29l-3.649-4.183-4.125,3.638a.843.843,0,1,1-1.115-1.263l4.76-4.2a.842.842,0,0,1,1.193.079l4.211,4.821a.842.842,0,0,1-.083,1.179A.832.832,0,0,1,445.247,254.148Z" transform="translate(-364.449 -212.29)"/><path class="c" d="M19.077,230.275h-.054a.842.842,0,0,1-.579-.288l-4.211-4.821a.842.842,0,1,1,1.268-1.107l3.65,4.183,4.125-3.638a.842.842,0,1,1,1.113,1.263l-4.755,4.2a.842.842,0,0,1-.558.211Z" transform="translate(-14.004 -192.421)"/><path class="c" d="M91.644,287A36.535,36.535,0,0,1,58.392,265.6a.842.842,0,1,1,1.532-.7,34.846,34.846,0,0,0,66.56-14.434.842.842,0,1,1,1.684,0A36.526,36.526,0,0,1,91.644,287Z" transform="translate(-50.84 -213.945)"/><path class="c" d="M40.242,75.151a.842.842,0,0,1-.842-.842,36.531,36.531,0,0,1,69.776-15.137.842.842,0,1,1-1.531.7,34.847,34.847,0,0,0-66.56,14.438A.842.842,0,0,1,40.242,75.151Z" transform="translate(-35.122 -37.781)"/><path class="c" d="M252.842,103.668a.842.842,0,0,1-.842-.842V99.962a.842.842,0,1,1,1.684,0v2.864A.842.842,0,0,1,252.842,103.668Z" transform="translate(-211.91 -88.788)"/><path class="c" d="M252.842,387.278a.842.842,0,0,1-.842-.842v-2.864a.842.842,0,0,1,1.684,0v2.864a.842.842,0,0,1-.842.842Z" transform="translate(-211.91 -324.624)"/><path class="c" d="M388.476,251.684h-2.864a.842.842,0,0,1,0-1.684h2.864a.842.842,0,1,1,0,1.684Z" transform="translate(-322.316 -214.252)"/><path class="c" d="M104.866,251.684H102A.842.842,0,1,1,102,250h2.864a.842.842,0,1,1,0,1.684Z" transform="translate(-86.479 -214.252)"/><path class="c" d="M179.053,123.153a.842.842,0,0,1-.729-.421l-1.432-2.48a.842.842,0,1,1,1.459-.842l1.432,2.48a.842.842,0,0,1-.308,1.15A.832.832,0,0,1,179.053,123.153Z" transform="translate(-149.36 -105.31)"/><path class="c" d="M320.853,368.763a.842.842,0,0,1-.729-.421l-1.432-2.48a.842.842,0,1,1,1.459-.842l1.432,2.48a.842.842,0,0,1-.308,1.15A.832.832,0,0,1,320.853,368.763Z" transform="translate(-267.274 -309.548)"/><path class="c" d="M368.024,177.846a.842.842,0,0,1-.423-1.572l2.48-1.432a.842.842,0,0,1,.842,1.459l-2.48,1.432a.83.83,0,0,1-.419.113Z" transform="translate(-307.688 -151.661)"/><path class="c" d="M122.4,319.616a.842.842,0,0,1-.423-1.573l2.48-1.43a.842.842,0,1,1,.842,1.459l-2.48,1.43A.832.832,0,0,1,122.4,319.616Z" transform="translate(-103.436 -269.55)"/><path class="c" d="M125.059,177.026a.842.842,0,0,1-.419-.113l-2.48-1.432a.842.842,0,1,1,.842-1.459l2.48,1.432a.842.842,0,0,1-.423,1.572Z" transform="translate(-103.592 -150.979)"/><path class="c" d="M370.669,318.834a.823.823,0,0,1-.419-.113l-2.48-1.43a.842.842,0,0,1,.842-1.459l2.48,1.43a.842.842,0,0,1-.423,1.572Z" transform="translate(-307.829 -268.901)"/><path class="c" d="M319.59,123.783a.83.83,0,0,1-.419-.113.842.842,0,0,1-.308-1.15l1.432-2.48a.842.842,0,1,1,1.459.842l-1.432,2.48A.842.842,0,0,1,319.59,123.783Z" transform="translate(-267.416 -105.834)"/><path class="c" d="M177.79,369.443a.823.823,0,0,1-.419-.113.842.842,0,0,1-.308-1.15l1.43-2.48a.842.842,0,1,1,1.459.842l-1.43,2.48A.842.842,0,0,1,177.79,369.443Z" transform="translate(-149.502 -310.113)"/><path class="c" d="M455.135,192.734a.842.842,0,0,1-.842-.733l-.022-.16a.843.843,0,0,1,1.669-.232l.024.168a.842.842,0,0,1-.726.945.817.817,0,0,1-.1.012Zm-.726-3.455a.842.842,0,0,1-.81-.617l-.044-.158a.842.842,0,0,1,1.619-.462l.047.168a.842.842,0,0,1-.585,1.038A.815.815,0,0,1,454.409,189.279Zm-1.132-3.369a.842.842,0,0,1-.782-.526l-.059-.143a.842.842,0,1,1,1.55-.66s.025.059.071.168a.848.848,0,0,1-.78,1.161Z" transform="translate(-378.527 -159.427)"/><path class="c" d="M38.965,287.162a.842.842,0,0,1-.775-.505s-.025-.059-.071-.168a.843.843,0,0,1,1.562-.633l.059.143a.842.842,0,0,1-.775,1.179Zm-1.154-3.35A.842.842,0,0,1,37,283.2l-.047-.168a.842.842,0,1,1,1.622-.453l.044.158a.842.842,0,0,1-.578,1.039.852.852,0,0,1-.232.035Zm-.75-3.458a.842.842,0,0,1-.834-.726l-.024-.168a.843.843,0,0,1,1.671-.219l.022.168a.842.842,0,0,1-.723.938.672.672,0,0,1-.113.008Z" transform="translate(-32.459 -237.957)"/></g></g></g></svg>