<svg xmlns="http://www.w3.org/2000/svg" width="130" height="130" viewBox="0 0 130 130"><defs><style>.a{fill:none;}.b{fill:#555;stroke:#555;}.c{fill:#2f80ed;}</style></defs><g transform="translate(-123 -1189)"><circle class="a" cx="65" cy="65" r="65" transform="translate(123 1189)"/><g transform="translate(145.349 257.278)"><path class="b" d="M11.975,969.362A4.982,4.982,0,0,0,7,974.337v44.771a4.982,4.982,0,0,0,4.975,4.974H73.327a4.982,4.982,0,0,0,4.975-4.974v-36.48a6.739,6.739,0,0,0-6.633-6.633h-31.3a22.819,22.819,0,0,0-3.342-5.1,5.038,5.038,0,0,0-3.5-1.529Zm0,1.658H33.531a3.349,3.349,0,0,1,2.358,1.088c2.818,3.457,4.662,7.7,6.866,11.737a.847.847,0,0,0,.725.44H73.327a3.291,3.291,0,0,1,3.316,3.316v31.505a3.291,3.291,0,0,1-3.316,3.316H11.975a3.291,3.291,0,0,1-3.316-3.316V974.337A3.291,3.291,0,0,1,11.975,971.02Zm29.277,6.633H71.669a5.149,5.149,0,0,1,4.975,4.974v1.27a4.957,4.957,0,0,0-3.316-1.27H43.972Z" transform="translate(0 0)"/><path class="c" d="M35.521,991.8a8.01,8.01,0,0,0-5.57,2.228,7.484,7.484,0,0,0,0,10.8l3.783,3.627,9.923,9.638a.829.829,0,0,0,1.14,0l9.949-9.638,3.757-3.627a7.483,7.483,0,0,0,0-10.8,8.006,8.006,0,0,0-11.089,0l-3.187,3.083L41.04,994.03A7.892,7.892,0,0,0,35.521,991.8Zm0,1.658a6.251,6.251,0,0,1,4.379,1.762l3.731,3.627a.829.829,0,0,0,1.166,0l3.757-3.627a6.34,6.34,0,0,1,8.783,0,5.767,5.767,0,0,1,0,8.42l-3.757,3.627-9.353,9.094-9.353-9.094-3.757-3.627a5.767,5.767,0,0,1,0-8.42A6.316,6.316,0,0,1,35.521,993.46Z" transform="translate(-1.576 -1.712)"/></g></g></svg>