<svg xmlns="http://www.w3.org/2000/svg" xmlns:xlink="http://www.w3.org/1999/xlink" width="54.573" height="48" viewBox="0 0 54.573 48"><defs><style>.a{fill:#2f80ed;}.b{clip-path:url(#a);}</style><clipPath id="a"><rect class="a" width="54.573" height="48"/></clipPath></defs><g class="b" transform="translate(0 0)"><path class="a" d="M54.546,16.263l0-.023,0-.017a15.81,15.81,0,0,0-1.609-7.9.468.468,0,0,0-.029-.065,15.649,15.649,0,0,0-3.172-4.331c-.2-.187-.4-.368-.6-.547l-.011-.008C43.245-1.636,34.209-1,28.557,4.838L27.291,6.144l-1.264-1.3C20.386-1,11.352-1.643,5.454,3.38c-.29.252-.559.524-.829.791L4.6,4.192A15.464,15.464,0,0,0,.034,16.233l0,.006,0,.015a15.646,15.646,0,0,0,3.8,9.375c.172.2.349.4.538.593l1.99,2.055.036.038,3.582,3.7c.025.027.053.057.082.084l3.546,3.662a.9.9,0,0,0,.107.111l3.584,3.7.036.036,3.584,3.7A.708.708,0,0,0,21,43.39l3.21,3.313A4.181,4.181,0,0,0,27.242,48a4.513,4.513,0,0,0,3.123-1.294l3.241-3.346,0-.006,7.28-7.513a.225.225,0,0,0,.029-.034l9.288-9.587a15.675,15.675,0,0,0,3.506-5.778c.013-.034.021-.067.032-.1a15.7,15.7,0,0,0,.8-4.076M50.3,22.718H4.289a13.681,13.681,0,0,1-.925-1.662H51.206a13.039,13.039,0,0,1-.909,1.662M47,26.506H7.572l-1.63-1.685H48.633Zm-3.645,3.765H11.217L9.61,28.609H44.963Zm-3.647,3.763H14.864l-1.609-1.66H41.318ZM36.064,37.8H18.509L16.9,36.137H37.675Zm-3.645,3.765H22.157L20.548,39.9H34.026ZM3.286,9.762H51.3a13.668,13.668,0,0,1,.606,1.662H2.667a13.571,13.571,0,0,1,.618-1.662m2.5-3.786H24.161c.118.116.242.215.358.334l1.312,1.348H4.453A13.42,13.42,0,0,1,5.786,5.976M30.067,6.3c.12-.122.259-.21.381-.328H48.776a13.69,13.69,0,0,1,1.361,1.683H28.753Zm22.289,7.223a14.169,14.169,0,0,1,.118,1.662H2.112c0-.288,0-.576.021-.867.019-.269.061-.53.1-.8ZM2.6,18.953a12.681,12.681,0,0,1-.353-1.662H52.325a13.21,13.21,0,0,1-.337,1.662ZM46.158,3.872H33.308a12.82,12.82,0,0,1,12.849,0M14.757,2.1a13.451,13.451,0,0,1,6.609,1.771H8.392A12.259,12.259,0,0,1,14.757,2.1M28.782,45.316a2.279,2.279,0,0,1-1.542.6,2.158,2.158,0,0,1-1.519-.671l-1.529-1.577h6.188Z" transform="translate(0 0)"/></g></svg>