<svg xmlns="http://www.w3.org/2000/svg" width="130" height="130" viewBox="0 0 130 130"><defs><style>.a{fill:none;}.b{fill:#555;}.c{fill:#2f80ed;}</style></defs><g transform="translate(-123 -1189)"><circle class="a" cx="65" cy="65" r="65" transform="translate(123 1189)"/><g transform="translate(-5.756 -63.756)"><path class="b" d="M49.2,29a20.2,20.2,0,1,0,20.2,20.2A20.2,20.2,0,0,0,49.2,29ZM62.481,61.188V56.752a8.14,8.14,0,0,0-5.891-7.8,9.3,9.3,0,0,1-2.038,1.995,5.834,5.834,0,0,1,5.62,5.8v6.576a17.838,17.838,0,0,1-21.936,0V56.752a5.834,5.834,0,0,1,5.619-5.8,9.3,9.3,0,0,1-2.038-1.995,8.14,8.14,0,0,0-5.89,7.8v4.436a17.895,17.895,0,1,1,26.554,0Z" transform="translate(144.146 1268.146)"/><path class="b" d="M58.926,42a6.927,6.927,0,1,0,6.928,6.927A6.927,6.927,0,0,0,58.926,42Zm0,11.545a4.618,4.618,0,1,1,4.619-4.618,4.618,4.618,0,0,1-4.619,4.618Z" transform="translate(134.423 1262.651)"/><path class="b" d="M58.479,5.287a1.154,1.154,0,0,0,1.612-.26l.219-.3v7.4a1.155,1.155,0,0,0,2.309,0v-7.4l.219.3a1.154,1.154,0,0,0,1.872-1.352L62.4.479a1.154,1.154,0,0,0-1.872,0l-2.309,3.2a1.154,1.154,0,0,0,.26,1.612Z" transform="translate(131.887 1280.406)"/><path class="b" d="M64.449,112.99a1.155,1.155,0,0,0-1.612.26l-.219.3v-7.4a1.155,1.155,0,0,0-2.309,0v7.4l-.219-.3a1.154,1.154,0,0,0-1.872,1.352l2.309,3.2a1.154,1.154,0,0,0,1.872,0l2.309-3.2A1.154,1.154,0,0,0,64.449,112.99Z" transform="translate(131.887 1236.018)"/><path class="b" d="M117.8,60.528l-3.2-2.309a1.154,1.154,0,0,0-1.352,1.872l.3.219h-7.4a1.155,1.155,0,0,0,0,2.309h7.4l-.3.219a1.154,1.154,0,0,0-.26,1.612,1.166,1.166,0,0,0,1.612.26l3.2-2.309a1.154,1.154,0,0,0,0-1.872Z" transform="translate(112.018 1255.887)"/><path class="b" d="M5.028,62.837l-.3-.219h7.4a1.155,1.155,0,0,0,0-2.309h-7.4l.3-.219a1.154,1.154,0,0,0-1.352-1.872l-3.2,2.309a1.154,1.154,0,0,0,0,1.872l3.2,2.309a1.154,1.154,0,0,0,1.352-1.872Z" transform="translate(156.406 1255.887)"/><path class="b" d="M101.828,97.238a1.155,1.155,0,0,0-2.28.368l.059.369-5.231-5.231a1.154,1.154,0,0,0-1.633,1.633l5.231,5.231-.369-.06a1.155,1.155,0,0,0-.368,2.28l3.894.628a1.167,1.167,0,0,0,1-.324,1.155,1.155,0,0,0,.324-1Z" transform="translate(117.342 1241.342)"/><path class="b" d="M18.8,23.391a1.155,1.155,0,0,0,2.28-.368l-.059-.369,5.231,5.231a1.154,1.154,0,1,0,1.633-1.633l-5.231-5.231.369.06a1.155,1.155,0,1,0,.368-2.28L19.5,18.174A1.155,1.155,0,0,0,18.174,19.5Z" transform="translate(148.729 1272.729)"/><path class="b" d="M26.253,92.744l-5.231,5.231.06-.369a1.155,1.155,0,1,0-2.28-.368l-.628,3.894a1.155,1.155,0,0,0,.324,1,1.174,1.174,0,0,0,1,.324l3.894-.628a1.155,1.155,0,1,0-.368-2.28l-.369.06,5.231-5.231a1.154,1.154,0,0,0-1.633-1.633Z" transform="translate(148.729 1241.342)"/><path class="b" d="M93.558,28.216a1.151,1.151,0,0,0,.816-.331l5.231-5.231-.059.369a1.155,1.155,0,0,0,2.28.368l.628-3.894a1.155,1.155,0,0,0-1.324-1.324l-3.894.628a1.155,1.155,0,1,0,.368,2.28l.369-.06-5.231,5.231a1.147,1.147,0,0,0,.816,1.963Z" transform="translate(117.344 1272.729)"/><path class="c" d="M61.574,73.05a1.7,1.7,0,0,1,1.245,1.032,1.155,1.155,0,1,0,2.217-.647,3.976,3.976,0,0,0-2.84-2.6v-.678a1.155,1.155,0,1,0-2.309,0v.686a3.361,3.361,0,0,0-2.056,1.352,3.034,3.034,0,0,0-.017,3.323,4.711,4.711,0,0,0,3.028,1.795c1.024.282,1.521.461,1.661.881.123.373-.351.662-.544.741a2.235,2.235,0,0,1-1.719-.069,1.807,1.807,0,0,1-1-.989,1.155,1.155,0,0,0-2.175.775A4.064,4.064,0,0,0,59.3,80.971a4.783,4.783,0,0,0,.586.211V81.7a1.155,1.155,0,0,0,2.309,0v-.433a4.14,4.14,0,0,0,.644-.2,2.922,2.922,0,0,0,1.856-3.6c-.545-1.64-2.1-2.069-3.241-2.382-.737-.2-1.433-.394-1.685-.8a.748.748,0,0,1-.027-.8A1.945,1.945,0,0,1,61.574,73.05Z" transform="translate(132.31 1251.237)"/></g></g></svg>