<svg xmlns="http://www.w3.org/2000/svg" xmlns:xlink="http://www.w3.org/1999/xlink" width="54.601" height="48" viewBox="0 0 54.601 48"><defs><style>.a{fill:#2f80ed;}.b{clip-path:url(#a);}</style><clipPath id="a"><rect class="a" width="54.601" height="48"/></clipPath></defs><g class="b" transform="translate(0 0)"><path class="a" d="M54.6,14.974A15.653,15.653,0,0,0,49.744,3.929c-.2-.189-.4-.372-.6-.551l-.006-.006c-5.881-5.01-14.92-4.367-20.569,1.464L27.3,6.142l-1.26-1.3C20.4-.995,11.359-1.643,5.461,3.376a15.776,15.776,0,0,0-1.622,22.25c.175.2.353.4.541.593l5.61,5.793a.7.7,0,0,0,.078.08l3.544,3.66a.835.835,0,0,0,.111.116l3.582,3.7.038.038,3.588,3.706a.746.746,0,0,0,.069.072L24.215,46.7A4.17,4.17,0,0,0,27.25,48a4.5,4.5,0,0,0,3.124-1.3l3.241-3.344,0-.006,7.28-7.516.032-.032,3.62-3.742.008,0,5.658-5.843A15.659,15.659,0,0,0,54.6,14.974M39.719,34.031H14.872l-1.607-1.66H41.326ZM36.072,37.8H18.517L16.91,36.135H37.683Zm-3.645,3.765H22.166L20.555,39.9H34.034ZM28.79,45.314a2.251,2.251,0,0,1-1.542.6,2.154,2.154,0,0,1-1.519-.671L24.2,43.665h6.186ZM43.365,30.268H11.228L5.894,24.76c-.162-.166-.316-.337-.465-.509a13.668,13.668,0,0,1,1.4-19.276A12.152,12.152,0,0,1,14.766,2.1a13.625,13.625,0,0,1,9.762,4.207L27.3,9.161,30.077,6.3C34.955,1.26,42.729.682,47.767,4.971c.179.154.351.311.522.475A13.661,13.661,0,0,1,48.7,24.757Z" transform="translate(0 0)"/></g></svg>