<svg xmlns="http://www.w3.org/2000/svg" width="130" height="130" viewBox="0 0 130 130"><defs><style>.a{fill:none;}.b,.c{fill:#555;}.c{stroke:#535353;stroke-width:0.3px;}.d{fill:#fff;stroke:#2f80ed;}.e{stroke:none;}</style></defs><g transform="translate(-123 -1189)"><circle class="a" cx="65" cy="65" r="65" transform="translate(123 1189)"/><g transform="translate(88.483 1194.276)"><path class="b" d="M69.651,401.556a.653.653,0,0,0,.651-.651v-3.254a.651.651,0,1,0-1.3,0v3.254A.653.653,0,0,0,69.651,401.556Z" transform="translate(0 -314.15)"/><path class="c" d="M125.836,73.641a29.452,29.452,0,0,0-9.584-5.239,4.743,4.743,0,0,0-2.229-2.294c-.342-.179-3.612-1.334-4.946-1.806L107.5,61.193c3.791-2.717,4.686-7.241,4.9-9,2.311-.391,4.572-3.205,5.435-6.867a3.431,3.431,0,0,0-1.383-3.97,2.393,2.393,0,0,0-1.595-.26,43.7,43.7,0,0,0,1.546-6.85,8.423,8.423,0,0,0-8.412-8.412,8.627,8.627,0,0,0-1.936.228,11.809,11.809,0,0,0-20.892,7.55c0,.065.228,4.719.683,7.452a2.354,2.354,0,0,0-1.725.163A3.428,3.428,0,0,0,82.7,45.3h0c.814,3.661,3.092,6.46,5.4,6.867.179,1.774,1.009,6.346,4.9,9.063l-1.708,3.417c-1.481.439-4.214,1.269-4.556,1.432a4.861,4.861,0,0,0-2.083,1.953A38.49,38.49,0,0,0,74,73.218c-3.319,2.457-5,5.093-5,7.843a.651.651,0,0,0,1.3,0c0-2.311,1.513-4.589,4.475-6.785a32.133,32.133,0,0,1,6.574-3.612,40.829,40.829,0,0,0-2.359,6.98l-1.611-.114a2.461,2.461,0,0,0-2.62,2.213l-2.376,8.282a.358.358,0,0,0-.016.13,2.457,2.457,0,0,0,2.278,2.62.666.666,0,0,0,.7-.6.654.654,0,0,0-.6-.7A1.158,1.158,0,0,1,73.67,88.3l2.376-8.266a.358.358,0,0,0,.016-.13,1.172,1.172,0,0,1,.391-.8,1.138,1.138,0,0,1,.846-.277l4.052.293a1.162,1.162,0,0,1,1.074,1.237v.13l1.188,8.526a1.207,1.207,0,0,1-.391.732,1.138,1.138,0,0,1-.846.277.666.666,0,0,0-.7.6.654.654,0,0,0,.6.7h.179a2.469,2.469,0,0,0,2.457-2.278v-.13l-1.188-8.526a2.475,2.475,0,0,0-2.278-2.555l-1.123-.081a35.436,35.436,0,0,1,2.847-7.794c.342-.13.7-.26,1.058-.391a3.525,3.525,0,0,0,.439,1.871,12.556,12.556,0,0,0,2.424,2.929,8.89,8.89,0,0,0-1.9.862,2.07,2.07,0,0,0-.862,1.4,4.464,4.464,0,0,0,.83,3.205l10.446,17H73.523A3.946,3.946,0,0,1,70.3,93.671V90.01a.651.651,0,0,0-1.3,0v3.661c0,2.05,2.457,4.475,4.523,4.475h52.215c2.164,0,4.1-2.506,4.1-4.475V81.109C129.855,78.522,128.472,75.935,125.836,73.641Zm-10.707-4.523a2.133,2.133,0,0,1-.2,1.66,12.522,12.522,0,0,1-2.994,3.287.662.662,0,0,0-.244.651.67.67,0,0,0,.488.5,11.318,11.318,0,0,1,2.669.993.81.81,0,0,1,.309.553,3.08,3.08,0,0,1-.635,2.164c0,.016-.016.016-.016.033l-9.73,15.523,3.059-19.819,1.318-8.966c2.018.716,4.052,1.448,4.279,1.562A3.22,3.22,0,0,1,115.129,69.117ZM93.749,74.064,92.48,65.179l1.595-3.254a13.068,13.068,0,0,0,6.134,1.367,12.828,12.828,0,0,0,6.167-1.416l1.546,3.043-1.351,9.145a22.248,22.248,0,0,1-6.525,2A22.545,22.545,0,0,1,93.749,74.064ZM89.29,51.577a.652.652,0,0,0-.309-.537.626.626,0,0,0-.342-.081h-.016c-1.871,0-3.97-2.571-4.751-5.923a2.254,2.254,0,0,1,.781-2.62c.521-.277,1.139-.065,1.692.553a.643.643,0,0,0,1.009-.8c-.423-.8-.927-7.322-.927-8.526a10.52,10.52,0,0,1,18.842-6.427.642.642,0,0,0,.7.228,6.881,6.881,0,0,1,1.985-.277,7.118,7.118,0,0,1,7.111,7.111,42.378,42.378,0,0,1-2,7.892.653.653,0,0,0,.993.846,1.442,1.442,0,0,1,1.757-.488,2.181,2.181,0,0,1,.732,2.522c-.8,3.352-2.88,5.939-4.768,5.907a.65.65,0,0,0-.651.635c-.065,1.009-.635,6.183-4.833,8.835a11.287,11.287,0,0,1-6.086,1.578,11.442,11.442,0,0,1-6.1-1.546C89.827,57.809,89.339,52.6,89.29,51.577ZM86.231,79.092a3.236,3.236,0,0,1-.635-2.245.837.837,0,0,1,.309-.553,12.55,12.55,0,0,1,2.685-1.041.65.65,0,0,0,.472-.5.675.675,0,0,0-.244-.651,12.961,12.961,0,0,1-3.01-3.3,2.165,2.165,0,0,1-.2-1.676,3.3,3.3,0,0,1,1.725-1.871c.26-.114,2.278-.732,3.954-1.237l1.334,9.454a.06.06,0,0,0,.016.049L95.62,94.387,86.248,79.124A.057.057,0,0,1,86.231,79.092Zm7.745-3.45a23.954,23.954,0,0,0,6.085,1.725,23.575,23.575,0,0,0,6.281-1.741l-3.271,21.218H97.328Zm34.577,18.029c0,1.432-1.546,3.173-2.8,3.173H104.813l10.772-17.183a4.36,4.36,0,0,0,.846-3.14,2.035,2.035,0,0,0-.862-1.383,8.926,8.926,0,0,0-1.871-.83,11.585,11.585,0,0,0,2.392-2.9,3.313,3.313,0,0,0,.439-1.546q.83.317,1.611.635A33.323,33.323,0,0,1,120.906,83a4.3,4.3,0,0,0-1.725.651,4.142,4.142,0,0,0,1.464,7.517,4.78,4.78,0,0,0,.83.081,4.085,4.085,0,0,0,2.278-.7,4.145,4.145,0,0,0,1.774-2.636h0a4.135,4.135,0,0,0-3.238-4.881c-.033,0-.065-.016-.1-.016A36.059,36.059,0,0,0,119.881,71.3c5.435,2.685,8.656,6.248,8.656,9.779V93.671Zm-7.208-9.4a.52.52,0,0,0,.228.049h.016a.816.816,0,0,0,.2-.033c.081.016.179.016.26.033a2.848,2.848,0,0,1,1.806,1.2,2.819,2.819,0,0,1,.423,2.132h0a2.848,2.848,0,0,1-1.2,1.806,2.819,2.819,0,0,1-2.132.423,2.848,2.848,0,0,1-1.806-1.2,2.819,2.819,0,0,1-.423-2.132,2.825,2.825,0,0,1,2.636-2.278Z" transform="translate(0 0)"/><g class="d" transform="translate(116.517 81.724)"><circle class="e" cx="5" cy="5" r="5"/><circle class="a" cx="5" cy="5" r="4.5"/></g></g></g></svg>