<svg xmlns="http://www.w3.org/2000/svg" xmlns:xlink="http://www.w3.org/1999/xlink" width="450" height="349" viewBox="0 0 450 349"><defs><style>.a{fill:none;}.b{fill:#fff;}.c{clip-path:url(#a);}.d{fill:#abeaf7;}.e{fill:#007491;}.f{fill:#ffb8c1;}.g{fill:#ff9ea8;}.h{fill:#2bc2c7;}.i{fill:#8f4056;}.j{clip-path:url(#b);}.k{clip-path:url(#c);}.l{fill:#04153d;}.m{fill:#0a0036;}.n{fill:#abd8f7;}.o{fill:#00586e;}.p{fill:#1a107e;}.q{fill:#070256;}.r{fill:#42459c;}.s{fill:#1996b5;}.t{fill:#ffabb7;}.u{fill:#ffb5c0;}.v{fill:#f26979;}.w{fill:#4997e8;}.x{fill:#3d8cff;}.y{fill:#fa8f9c;}.z{fill:#0e004c;}.aa{fill:#00123d;}.ab{fill:#00102e;}.ac{fill:#38498a;}.ad{fill:#2a3f6e;}.ae{fill:#8ab8ff;}.af{fill:#88e3e6;}</style><clipPath id="a"><rect class="a" width="450" height="349" transform="translate(-0.468)"/></clipPath><clipPath id="b"><path class="a" d="M2096.345,903.387c-.448,5.2,6.6,3.126,8.459-.282-1.854.914-6.534.958-8.459.282" transform="translate(-2096.325 -903.105)"/></clipPath><clipPath id="c"><rect class="a" width="450" height="335" transform="translate(-0.468)"/></clipPath></defs><g transform="translate(0.468)"><rect class="b" width="450" height="335" transform="translate(-0.468)"/><g class="c"><path class="d" d="M226.456,624.795h303.7c47.037-24.544,74.933-133.589,26.01-139.234-40.323-4.652-65.434,45.643-87.628,38.431-24.623-8,17.237-148.844-88.781-142.713-56.8,3.285-73.747,112.43-126.2,117.8-12.766-16.579-48-22.722-62.33-11.014-34.575,28.244,37.356,107.4,35.227,136.731" transform="translate(-154.357 -323.599)"/><path class="e" d="M2668.674,1311.657c1.2,1.272-1.8,5.912-1.8,5.912l-6.144-4.865Z" transform="translate(-2258.927 -1113.797)"/><path class="f" d="M1716.3,1350.424a12.087,12.087,0,0,1,1.031-4.315c.633-1.765,1.511-3.887,2.522-6.109.919-2.01,4.518-9.471,5.579-11.451-1.5-2.138-21.809-18.536-26.451-20.861-7.715,12.7-20.079,36.121-20.079,43.144,0,17.128,18.294,31.812,36.331,37.045,3.493,1.011,5.728-9.052,5.363-9.576-4.152-5.972-2.581-17.843-4.3-27.877" transform="translate(-1425.361 -1110.427)"/><path class="g" d="M1769.817,1309.56c10.32,1.094,25.679,10.23,27.926,11.876s4.315-9.207,4.315-9.207l-25.068-15.143Z" transform="translate(-1502.551 -1101.424)"/><path class="h" d="M1917.876,1048.588c-12.513,1.271-23.36,10.548-30.487,19.387-.368,1.531-1.7,18.664-1.89,26.258-.58,23.1-.142,52.663-.142,57.708h-84.419c-2.03-8.756-1.472-58.812,1.542-85.357a33.207,33.207,0,0,0-2.513-2.789c-3.988-3.67-15.6-10.482-23.58-11.694,8.757-13.992,23.367-28.975,34.85-36.586,5.134-3.4,11.591-6.147,17.008-8.682.027,0,.054,0,.079-.009.135-.058.263-.115.38-.16,8.665-3.37,20.469-4.477,24.167-4.809,32.512,11.334,46.9,23.343,65.007,46.733" transform="translate(-1508.128 -850.728)"/><path class="f" d="M2490.838,1362.42c0,28.336-46.643,40.925-61.284,37.883-3.569-.741-1.528-11.5.211-11.5,6.058,0,24.286-21.2,23.171-27.706-.665-3.875-6.95-12.843-14.293-20.943q-.856-.95-1.735-1.879c5.959-9.12,17.156-20.009,30.341-22.883,2.032,2.706,4.075,5.528,6.062,8.41,9.379,13.6,17.527,28.543,17.527,38.613" transform="translate(-2060.987 -1116.973)"/><path class="g" d="M1876.846,1590.936c-.115-.665-19.1,32.22-1.068,37.453,3.493,1.011,5.728-9.052,5.363-9.576-4.152-5.972-2.581-17.843-4.3-27.877" transform="translate(-1585.912 -1350.939)"/><path class="g" d="M2525.724,1323.807c-9.094-3.062-31.8,10.811-34.668,16.352q-.856-.95-1.735-1.879c5.958-9.12,17.156-20.009,30.341-22.883,2.032,2.706,4.075,5.528,6.062,8.41" transform="translate(-2113.4 -1116.973)"/><path class="g" d="M2600.123,1616.543c-.635,0-1.53-.073-2.78-.189a14.115,14.115,0,0,0-3.781-.091.37.37,0,1,1-.381-.635c.544-.326,1.961-.222,4.231-.011a25.75,25.75,0,0,0,3.125.176,24.593,24.593,0,0,0-3.151-1c-2.859-.781-4.03-1.166-4.1-1.832-.019-.194.051-.472.493-.693,2.251-1.124,10.228,1.124,11.8,1.586a.37.37,0,1,1-.209.711c-3.4-1-9.595-2.462-11.26-1.636a18.823,18.823,0,0,0,3.464,1.149c2.615.714,3.7,1.06,3.907,1.611a.528.528,0,0,1-.07.516c-.183.239-.567.336-1.3.336" transform="translate(-2201.423 -1368.799)"/><path class="e" d="M2414.8,1253.663a.371.371,0,0,1-.37-.348l-.022-.361a.371.371,0,0,1,.74-.047l.023.362a.371.371,0,0,1-.347.393h-.023m-.161-2.6a.371.371,0,0,1-.37-.349l-.053-.9a.371.371,0,0,1,.349-.392.375.375,0,0,1,.392.348l.053.9a.371.371,0,0,1-.349.392h-.022m-.181-3.138a.371.371,0,0,1-.37-.35l-.049-.9a.371.371,0,0,1,.35-.39.364.364,0,0,1,.39.35l.049.9a.37.37,0,0,1-.35.39h-.021m-.167-3.139a.37.37,0,0,1-.37-.351l-.045-.9a.371.371,0,0,1,.741-.036l.045.9a.37.37,0,0,1-.352.389h-.019m-.152-3.14a.37.37,0,0,1-.37-.353l-.041-.9a.371.371,0,0,1,.741-.033l.041.9a.37.37,0,0,1-.354.387h-.018m-.136-3.14a.371.371,0,0,1-.371-.355l-.036-.9a.371.371,0,0,1,.741-.029l.036.9a.371.371,0,0,1-.355.385h-.015m-.12-3.141a.371.371,0,0,1-.371-.357l-.031-.9a.371.371,0,0,1,.742-.025l.031.9a.37.37,0,0,1-.358.383h-.013m-.1-3.141a.37.37,0,0,1-.37-.36l-.026-.9a.371.371,0,0,1,.741-.021l.026.9a.371.371,0,0,1-.36.381h-.011m-.083-3.142a.371.371,0,0,1-.371-.362l-.02-.9a.371.371,0,0,1,.741-.016l.02.9a.37.37,0,0,1-.362.379Zm-.064-3.143a.37.37,0,0,1-.37-.364l-.015-.9a.371.371,0,0,1,.365-.376h.006a.371.371,0,0,1,.371.365l.014.9a.371.371,0,0,1-.364.377Zm-.042-3.143a.371.371,0,0,1-.371-.367l-.008-.9a.371.371,0,0,1,.368-.373h0a.37.37,0,0,1,.371.367l.009.9a.372.372,0,0,1-.368.374Zm-.021-3.143a.37.37,0,0,1-.371-.37v-.9a.371.371,0,0,1,.371-.371h0a.371.371,0,0,1,.371.37v.9a.37.37,0,0,1-.37.371Zm0-3.143h0a.371.371,0,0,1-.369-.372l.006-.9a.362.362,0,0,1,.374-.367.371.371,0,0,1,.368.373l-.005.9a.371.371,0,0,1-.371.369m.029-3.143h0a.37.37,0,0,1-.366-.375q.005-.453.013-.9a.375.375,0,0,1,.376-.365.371.371,0,0,1,.365.377q-.007.445-.013.9a.371.371,0,0,1-.371.366m.057-3.142h-.009a.37.37,0,0,1-.362-.378q.01-.453.021-.9a.37.37,0,0,1,.371-.361h.009a.371.371,0,0,1,.361.38q-.011.445-.021.9a.37.37,0,0,1-.371.362m.086-3.141h-.012a.37.37,0,0,1-.358-.382q.015-.452.03-.9a.367.367,0,0,1,.384-.357.37.37,0,0,1,.357.384q-.015.445-.03.9a.371.371,0,0,1-.371.358m.119-3.141h-.016a.371.371,0,0,1-.355-.386q.02-.453.041-.9a.371.371,0,0,1,.741.034q-.021.444-.04.9a.372.372,0,0,1-.371.354m.153-3.139H2414a.371.371,0,0,1-.35-.39q.026-.453.051-.9a.367.367,0,0,1,.392-.348.371.371,0,0,1,.349.391q-.026.444-.051.9a.371.371,0,0,1-.37.35m.192-3.137h-.025a.37.37,0,0,1-.345-.395q.03-.453.063-.9a.374.374,0,0,1,.4-.343.37.37,0,0,1,.343.4q-.031.443-.062.894a.37.37,0,0,1-.37.345m.235-3.133h-.03a.371.371,0,0,1-.339-.4q.037-.453.076-.9a.371.371,0,0,1,.739.064q-.039.442-.076.893a.371.371,0,0,1-.37.34m.283-3.13-.037,0a.371.371,0,0,1-.333-.405q.045-.452.091-.895a.371.371,0,0,1,.738.076q-.046.441-.09.892a.371.371,0,0,1-.369.334m.336-3.124-.044,0a.37.37,0,0,1-.325-.411q.053-.452.107-.893a.371.371,0,0,1,.736.09q-.054.439-.107.89a.371.371,0,0,1-.368.328m.4-3.117a.362.362,0,0,1-.051,0,.371.371,0,0,1-.317-.418q.063-.452.127-.891a.371.371,0,0,1,.734.106q-.064.437-.126.887a.371.371,0,0,1-.367.32m.468-3.107a.356.356,0,0,1-.06-.005.37.37,0,0,1-.306-.425q.073-.452.149-.888a.371.371,0,0,1,.731.125q-.075.434-.148.882a.371.371,0,0,1-.366.311m.551-3.093a.382.382,0,0,1-.071-.007.371.371,0,0,1-.294-.434c.058-.3.117-.6.175-.884a.371.371,0,0,1,.728.147q-.088.43-.175.877a.371.371,0,0,1-.363.3m.65-3.074a.386.386,0,0,1-.083-.01.371.371,0,0,1-.278-.444q.1-.451.208-.878a.371.371,0,0,1,.721.175q-.1.423-.206.869a.371.371,0,0,1-.361.287m.771-3.045a.356.356,0,0,1-.1-.014.371.371,0,0,1-.258-.456q.126-.45.249-.868a.371.371,0,0,1,.712.209q-.122.413-.246.858a.371.371,0,0,1-.357.271m.033-2.96a.371.371,0,0,1-.341-.225q-.178-.417-.35-.832a.371.371,0,0,1,.686-.283q.169.41.346.824a.371.371,0,0,1-.341.516m-1.174-2.916a.371.371,0,0,1-.347-.24q-.16-.425-.313-.847a.371.371,0,0,1,.7-.252q.151.417.31.838a.371.371,0,0,1-.217.477.367.367,0,0,1-.13.024m-1.043-2.965a.371.371,0,0,1-.353-.256q-.141-.432-.274-.86a.371.371,0,0,1,.709-.219q.131.423.271.851a.371.371,0,0,1-.353.485m-.9-3.011a.37.37,0,0,1-.357-.273c-.081-.293-.157-.584-.231-.874a.371.371,0,0,1,.718-.184q.11.429.228.863a.37.37,0,0,1-.26.455.365.365,0,0,1-.1.013m-.746-3.053a.371.371,0,0,1-.362-.293c-.064-.3-.125-.591-.184-.885a.371.371,0,0,1,.728-.145q.086.434.181.874a.37.37,0,0,1-.285.44.39.39,0,0,1-.078.009m-.576-3.09a.371.371,0,0,1-.366-.314q-.07-.449-.132-.894a.371.371,0,0,1,.734-.1q.062.438.131.882a.37.37,0,0,1-.309.423.357.357,0,0,1-.058,0m-.393-3.118a.37.37,0,0,1-.369-.336q-.043-.454-.077-.9a.371.371,0,0,1,.739-.056q.033.441.076.888a.371.371,0,0,1-.334.4l-.035,0m-.192-3.136a.37.37,0,0,1-.371-.36q-.013-.456-.017-.905a.372.372,0,0,1,.368-.373h0a.371.371,0,0,1,.371.367q0,.442.016.891a.371.371,0,0,1-.36.381h-.01m.022-3.142h-.016a.371.371,0,0,1-.354-.386q.021-.456.049-.9a.371.371,0,0,1,.74.047q-.029.441-.048.889a.371.371,0,0,1-.371.354m.256-3.132-.044,0a.371.371,0,0,1-.324-.412q.055-.454.12-.9a.371.371,0,0,1,.734.106q-.064.436-.118.882a.37.37,0,0,1-.368.326m.506-3.1a.383.383,0,0,1-.076-.008.371.371,0,0,1-.288-.438q.092-.449.2-.886a.371.371,0,0,1,.722.168q-.1.428-.191.868a.371.371,0,0,1-.363.3m.776-3.045a.382.382,0,0,1-.109-.016.37.37,0,0,1-.247-.462q.134-.44.277-.866a.371.371,0,0,1,.7.236q-.14.416-.271.845a.371.371,0,0,1-.354.263m1.066-2.955a.371.371,0,0,1-.341-.515q.179-.425.367-.832a.371.371,0,0,1,.674.309q-.182.4-.358.811a.371.371,0,0,1-.342.227m1.385-2.82a.371.371,0,0,1-.322-.554c.154-.269.311-.532.466-.784a.371.371,0,0,1,.63.39c-.151.243-.3.5-.452.76a.37.37,0,0,1-.323.187m1.74-2.616a.371.371,0,0,1-.292-.6c.19-.243.386-.482.581-.709a.371.371,0,0,1,.563.483c-.188.218-.376.447-.558.681a.37.37,0,0,1-.293.143m2.15-2.289a.37.37,0,0,1-.242-.65c.238-.206.48-.4.722-.579a.371.371,0,1,1,.442.594c-.226.168-.455.351-.68.545a.367.367,0,0,1-.242.09m6.495-1.453a.371.371,0,0,1-.223-.074,2.683,2.683,0,0,0-.691-.376.371.371,0,1,1,.256-.7,3.436,3.436,0,0,1,.881.48.37.37,0,0,1-.223.666m-3.852-.225a.371.371,0,0,1-.139-.714,6.422,6.422,0,0,1,.907-.292.371.371,0,1,1,.172.721,5.63,5.63,0,0,0-.8.258.377.377,0,0,1-.139.027" transform="translate(-2048.207 -953.426)"/><path class="e" d="M1948.193,1210.933l-.043,0a.371.371,0,0,1-.325-.411c.884-7.506,2.1-15.252,5.026-21.06a.371.371,0,0,1,.663.333c-2.871,5.705-4.076,13.375-4.952,20.814a.371.371,0,0,1-.368.327" transform="translate(-1653.675 -1009.859)"/><path class="e" d="M1986.191,1085.02a.365.365,0,0,1-.118-.02.37.37,0,0,1-.233-.469q.143-.425.3-.857a.371.371,0,0,1,.7.257q-.156.422-.3.837a.371.371,0,0,1-.352.252m1.146-2.928a.37.37,0,0,1-.339-.52q.181-.412.374-.826a.371.371,0,0,1,.673.313q-.189.407-.368.812a.371.371,0,0,1-.34.221m1.365-2.832a.371.371,0,0,1-.329-.542q.209-.4.425-.8a.371.371,0,0,1,.652.353q-.214.393-.419.788a.37.37,0,0,1-.329.2m1.533-2.747a.371.371,0,0,1-.318-.56q.232-.39.468-.774a.371.371,0,0,1,.632.388q-.234.379-.463.765a.371.371,0,0,1-.319.181m1.679-2.661a.371.371,0,0,1-.308-.576q.254-.379.51-.748a.371.371,0,1,1,.61.422q-.252.363-.5.738a.37.37,0,0,1-.309.165m1.824-2.564a.37.37,0,0,1-.295-.594q.278-.367.555-.717a.371.371,0,0,1,.582.459q-.271.343-.546.7a.371.371,0,0,1-.3.147m2-2.431a.37.37,0,0,1-.275-.618c.213-.236.422-.461.623-.667a.371.371,0,0,1,.533.515c-.194.2-.4.418-.6.648a.371.371,0,0,1-.276.122" transform="translate(-1685.935 -906.436)"/><path class="e" d="M1937.286,1255.416c-.036.269-1.259,8.972-1.639,13.68-.389,4.784-.4,9.6-.6,12.8-.814-.939-1.65-1.875-2.513-2.788,1.025-9.331,2.832-18.929,4.754-23.691" transform="translate(-1640.695 -1066.04)"/><path class="e" d="M2462.222,1450.573c-.427,5.593-.871,11.631-1.184,19.319-.294-8.247-5.16-22.3-6.739-25.645l4.882,5.8a3.994,3.994,0,0,1,.407-2.349s1.341,1.395,2.633,2.879" transform="translate(-2083.668 -1226.386)"/><path class="f" d="M2142.95,855.152c2.459,4.392-20.5,15.334-28.414,13.808-1.973-.38,1.4-10.865,2.155-12.8.241-.617.469-1.261.683-1.912a84.854,84.854,0,0,0,3.172-17.47l.055-.026,20.833-12.016s-2.381,23.458,1.516,30.418" transform="translate(-1794.694 -700.325)"/><path class="g" d="M2158.822,845.681c1.52,14.133-10.915,26.979-22.059,26.353a84.835,84.835,0,0,0,3.172-17.47l.055-.026Z" transform="translate(-1814.084 -718.112)"/><path class="f" d="M2089.1,659.593c-.02,1.527-.113,3.287-.274,5.168-.463,5.393-1.5,11.74-3.19,16.085-3.515,9.073-12.827,15.745-22.555,15.119-7.582-.487-10.969-6.118-11.6-11.9a21.711,21.711,0,0,1,.206-5.384c.407-2.818,1.167-5.779,1.836-8.514.44-1.8.843-3.5,1.081-4.991.481-3.011.749-6.273,1.021-9.044.29-2.95,1.032-4.367,2.248-5.189,1.793-1.21,3.911-3.538,6.534-4.639a22.275,22.275,0,0,1,9.384-2.088c2.991.182,6.244,1.969,9.056,4.228a32.357,32.357,0,0,1,4.021,3.832,24.542,24.542,0,0,1,1.758,2.225c.355.512.517,2.434.476,5.092" transform="translate(-1741.604 -547.02)"/><path class="g" d="M2122.21,666.439a20.331,20.331,0,0,1-1.031,2.39c-.945,2.043-2.195,4.642-2.195,4.642s1.258-2.675-.313-3.091c-.406-.107-2.192.4-2.589-.532-.212-.5.349-1.952.259-3.019-.038-.445-.757-.44-.786-.883-.071-1.056-.13-2.023-.229-2.5-.234-1.138-2.261-.231-2.793-.958-.834-1.14,1.239-3.93.354-4-13.742,4.9-24.707,4.074-23.006-1.763a1.11,1.11,0,0,1,.325-.852,39.306,39.306,0,0,1,6.648-3.786l7.682-.156,10.668,2.122,3.035.6s.408,1.217.971,2.871c.69,2.035,1.6,4.734,2.235,6.628.44,1.3.747,2.232.766,2.287" transform="translate(-1774.132 -553.585)"/><path class="g" d="M2161.528,841c.057-2.457,2.689-4.414,5.878-4.37s5.728,2.072,5.671,4.529-2.689,4.414-5.878,4.37-5.729-2.072-5.671-4.529" transform="translate(-1835.107 -710.424)"/><path class="g" d="M2058.648,820.518c-.056,2.31-2.38,4.174-5.3,4.354.407-2.818,1.167-5.779,1.837-8.514,2.077.7,3.51,2.306,3.468,4.16" transform="translate(-1743.261 -693.213)"/><path class="g" d="M2284.691,784.086c2.894,2.826-4.4,14.813-7.55,8.76-3.126-6,4.032-12.2,7.55-8.76" transform="translate(-1932.608 -664.973)"/><path class="i" d="M2291.385,800.664a.38.38,0,0,1-.071-.007.37.37,0,0,1-.293-.434,4.955,4.955,0,0,1,2.438-3.061,5.147,5.147,0,0,1,2.985-.974.37.37,0,1,1-.192.715,4.957,4.957,0,0,0-2.4.887,4.41,4.41,0,0,0-2.1,2.573.371.371,0,0,1-.364.3" transform="translate(-1945.04 -676.061)"/><path class="i" d="M2299.651,813.694a.37.37,0,0,1-.353-.257,1.933,1.933,0,0,0-1.8-1.257.37.37,0,1,1-.026-.74A2.663,2.663,0,0,1,2300,813.21a.371.371,0,0,1-.24.466.365.365,0,0,1-.114.018" transform="translate(-1950.222 -689.035)"/><g transform="translate(314.497 138.845)"><g class="j"><path class="i" d="M2070.161,858.467a7.213,7.213,0,1,0-7.213,7.213,7.213,7.213,0,0,0,7.213-7.213" transform="translate(-2060.039 -856.753)"/><path class="b" d="M2099.061,889.267c.242.254,5.761,1.3,7.148-1.694,1.532-3.3-7.623-.282-7.623-.282a5.291,5.291,0,0,0,.475,1.976" transform="translate(-2098.347 -887.838)"/></g></g></g><g class="k"><path class="b" d="M2079.319,797.013c-.076,1.356-1.779,2.206-3.292,1.97a2.412,2.412,0,0,1-2.187-2.824c.3-1.324,1.779-1.091,3.292-.856s2.242.718,2.187,1.709" transform="translate(-1760.616 -675.185)"/><path class="l" d="M2091.215,797.144c-.222,1.079-.969,1.867-1.669,1.759s-1.087-1.07-.865-2.149.969-1.867,1.668-1.76,1.087,1.07.866,2.149" transform="translate(-1773.209 -675.069)"/><path class="b" d="M2165.48,807.273a3.763,3.763,0,0,1-4.054,1.98,2.768,2.768,0,0,1-2.416-3.318c.257-.965,2.268-1.235,4.055-.866s2.966,1.2,2.416,2.2" transform="translate(-1832.899 -683.498)"/><path class="l" d="M2177.208,807.631c-.311,1.1-1.2,1.866-1.993,1.7s-1.18-1.2-.87-2.3,1.2-1.866,1.994-1.7,1.18,1.2.87,2.3" transform="translate(-1845.899 -683.834)"/><path class="b" d="M2179.113,818.642c-.11.391-.426.661-.706.6s-.418-.423-.308-.815.426-.66.706-.6.418.423.308.814" transform="translate(-1849.145 -694.459)"/><path class="b" d="M2092.844,808.805c-.11.391-.426.66-.706.6s-.418-.424-.308-.815.426-.66.705-.6.418.424.308.815" transform="translate(-1775.904 -686.106)"/><path class="l" d="M2147.531,760.728l.265-.071c.108-.027.28-.064.456-.1a2.339,2.339,0,0,1,.241-.032l.247-.025c.169-.014.344-.02.532-.03l.573-.007c.195,0,.4,0,.6.01s.408.013.611.023c.813.038,1.615.1,2.208.146.294.022.543.04.7.048l.212.011.111.006a.613.613,0,0,1,.079,1.214l-.093.017-.113.019-.125.018c-.19.028-.437.057-.738.094-.6.071-1.381.163-2.151.277-.193.027-.384.059-.571.09s-.367.066-.543.1l-.493.1c-.148.039-.294.072-.418.108l-.172.054a.8.8,0,0,0-.135.047c-.059.03-.092.039-.149.064l-.246.121-.017.009a1.242,1.242,0,1,1-1.1-2.229,1.313,1.313,0,0,1,.226-.085" transform="translate(-1822.444 -645.757)"/><path class="l" d="M2085.746,750.271l.171.017c.107.011.258.029.438.053.362.049.843.129,1.332.247.245.058.492.129.727.2l.342.122.313.133c.1.045.19.1.271.137a2.229,2.229,0,0,1,.214.125l.188.121.065.042a1.265,1.265,0,1,1-1.371,2.126,1.282,1.282,0,0,1-.346-.331l-.055-.077a.555.555,0,0,0-.073-.094c-.035-.037-.069-.08-.116-.127l-.163-.152-.2-.167c-.15-.114-.319-.235-.5-.349-.357-.231-.745-.443-1.041-.593-.148-.075-.273-.135-.359-.176l-.134-.062-.028-.013a.623.623,0,0,1,.327-1.185" transform="translate(-1770.187 -637.097)"/><path class="m" d="M2099.61,603.974c-.533-1.683-2.762-1.922-3.246-3.708-.386-1.426,1.37-2.82,1.024-4.189-.457-1.808-3.5-1.638-3.964-2.336-.234-.354-1.068-3.835-2.021-4.426-1.361-.844-4.367-.087-5.555-.256-1.1-.156-2.8-2.865-5.463-2.865-3.343,0-5.4,3.9-6.13,3.561a11.263,11.263,0,0,0-3.354-.967c-3.037-.382-3.522,3.463-4.484,4.092-2.119,1.386-3.217-.539-5.191,1.037-1.413,1.129.357,4.268-1.17,6.047-.509.593-1.39.2-1.857.952-1.006,1.628,1.306,2.923,1.113,4.451-.147,1.168-1.494,1.045-1.806,1.842-.966,2.471,2.331,6.47,1.771,10.647.468-1.3,3.135-11.846,3.114-16.953,2.667,2.073,12.949,4.5,22.826,1.34.979,1.24-.39,3.075.413,3.625.583.4,2-.52,3.04.362.434.37-.526,1.875-.1,2.5.139.2.822.454,1.159.766a5.072,5.072,0,0,0,.407.416c.141,1.254-1.865,3.715-.989,4.5.462.414,1.708.1,2.174.515.743.665-.812,4.832-.13,5.24.78.465,2.028-3.083,3.668-3.969,1.794-.97,3.434-.772,4.446-2.245,1.031-1.5-1.445-4.005-1.8-5.249-.426-1.451,2.75-2.709,2.109-4.732" transform="translate(-1746.644 -497.772)"/><path class="i" d="M2085.691,800.572l-.058.218c-.04.143-.094.352-.173.616s-.183.581-.306.943-.276.766-.464,1.2-.393.9-.645,1.38-.556.968-.862,1.461-.638,1.006-.979,1.521-.7,1.029-1.064,1.533a15,15,0,0,0-.985,1.46,1.651,1.651,0,0,0-.2.638,1.569,1.569,0,0,0,.017.321l.016.085,0,.021,0,.011v.005c0,.006-.009-.037,0-.016l.013.053a.194.194,0,0,0,.01.028.215.215,0,0,0,.016.035.6.6,0,0,0,.36.24,2.772,2.772,0,0,0,.658.106,7.077,7.077,0,0,0,1.379-.1,11.164,11.164,0,0,0,2.073-.548,5.872,5.872,0,0,0,.737-.324.279.279,0,0,1,.32.454l0,0s-.063.054-.187.148a5.193,5.193,0,0,1-.558.364,8.635,8.635,0,0,1-2.184.857,6.609,6.609,0,0,1-1.6.21,3.276,3.276,0,0,1-.958-.128,2.029,2.029,0,0,1-.527-.243,1.484,1.484,0,0,1-.47-.492,1.352,1.352,0,0,1-.079-.161,1.517,1.517,0,0,1-.062-.179l-.014-.053-.008-.037,0-.016-.006-.033-.022-.132a2.623,2.623,0,0,1-.017-.567,2.475,2.475,0,0,1,.36-1.07,5.961,5.961,0,0,1,.585-.807c.2-.245.409-.479.616-.709.411-.462.814-.923,1.2-1.389s.745-.941,1.073-1.412a16.415,16.415,0,0,0,.893-1.389c.255-.456.477-.9.66-1.319a14.438,14.438,0,0,0,.719-2.09c.067-.258.114-.462.141-.6l.041-.216v0a.278.278,0,0,1,.546.1c0,.006,0,.013,0,.018" transform="translate(-1764.917 -679.517)"/><path class="f" d="M1920.422,1728.834c-.146.342-1.489.273-1.958,1.121-2.378,4.306-.969,11.479-.329,12.509.466.75,5.8,2.473,6.907,2.255,1-.2,5.879-2.269,5.975-4.993.049-1.39-5.183-5.2-7.277-8.36,2.911,1.929,5.241,3.371,6.518,3.523a1.344,1.344,0,0,0,1.369-1.386c-.073-.8-2.148-3.029-4.931-5.173-2.1-1.622-3.889-3.641-5.217-3.958-.659-.157-1.573.782-1.663,1.919s.692,2.335.6,2.543" transform="translate(-1627.621 -1464.252)"/><path class="g" d="M1929.581,1782s.152.129.41.363c.128.118.285.259.464.413s.373.333.6.524.46.4.72.616l.81.68.873.72c.294.249.607.486.908.737s.611.491.915.729.6.478.891.7l.838.648.755.573c.238.169.45.339.644.472s.36.26.5.352.246.165.32.211l.114.072.025.016a.277.277,0,0,1-.245.494l-.142-.053a4.129,4.129,0,0,1-.393-.16c-.165-.073-.362-.166-.578-.282s-.46-.249-.723-.4-.541-.319-.828-.508-.6-.381-.9-.6-.622-.44-.94-.672-.631-.481-.945-.729-.62-.5-.919-.762-.589-.513-.864-.77-.537-.508-.78-.751-.467-.483-.672-.7-.385-.437-.545-.623-.292-.354-.4-.493c-.21-.277-.326-.439-.326-.439a.28.28,0,0,1,.41-.375" transform="translate(-1637.796 -1513.148)"/><path class="g" d="M1919.708,1811.395s.141.1.381.282c.12.078.265.171.425.281s.368.229.578.365l.7.422.784.464.843.492.873.5c.292.171.587.335.876.5s.573.329.851.478l.8.44c.255.138.494.27.718.386s.427.219.608.314.339.16.47.224.228.1.3.126l.106.044.036.015a.277.277,0,0,1-.147.53l-.131-.02c-.083-.016-.218-.026-.369-.065s-.341-.078-.543-.146-.439-.134-.681-.23-.512-.19-.784-.312-.563-.242-.856-.384-.592-.29-.9-.444-.6-.324-.906-.494-.6-.347-.887-.527-.572-.36-.841-.542-.526-.364-.767-.541-.463-.355-.666-.519-.383-.327-.542-.474-.3-.292-.408-.405c-.195-.229-.3-.364-.3-.364a.281.281,0,0,1,.382-.4Z" transform="translate(-1629.428 -1538.118)"/><path class="g" d="M1967.709,1772.57a.7.7,0,0,1-.037.114,1.466,1.466,0,0,1-.183.313,1.825,1.825,0,0,1-.391.382,2.055,2.055,0,0,1-.646.313,2.364,2.364,0,0,1-.408.071l-.107.006-.055,0h-.072c-.066-.005-.112,0-.2-.015s-.169-.022-.242-.039l-.217-.052c-.142-.04-.283-.085-.421-.138a9.631,9.631,0,0,1-1.593-.813,20.354,20.354,0,0,1-2.612-1.942c-.335-.29-.6-.544-.787-.73-.092-.093-.163-.171-.214-.228a1,1,0,0,1-.1-.126.225.225,0,0,1,.385-.231s-.008-.015.042.031.12.1.22.174c.2.152.489.365.84.615.707.5,1.663,1.15,2.651,1.711a10.259,10.259,0,0,0,1.472.7c.118.043.233.078.345.11l.163.037c.053.011.089.013.134.022s.118.008.173.012h.126a2.353,2.353,0,0,0,.266-.031,2.185,2.185,0,0,0,.456-.131,2.593,2.593,0,0,0,.341-.171c.091-.054.165-.11.2-.135a.44.44,0,0,0,.074-.063.225.225,0,0,1,.387.228" transform="translate(-1663.505 -1502.458)"/><path class="g" d="M1952.452,1837.357l-.061.1c-.036.062-.108.17-.194.29a7.977,7.977,0,0,1-.811.921,10.162,10.162,0,0,1-1.342,1.084,9.523,9.523,0,0,1-1.754.951,5.793,5.793,0,0,1-1.006.305,3.411,3.411,0,0,1-.541.068c-.051,0-.082.006-.15,0l-.117-.006c-.077,0-.178-.016-.264-.025a6.952,6.952,0,0,1-.909-.179c-.281-.068-.54-.151-.777-.229s-.451-.164-.641-.238-.351-.152-.484-.22-.238-.126-.309-.171l-.112-.074a.224.224,0,0,1,.187-.4l.028.008.1.029.305.076c.269.064.661.148,1.13.245l.756.147c.266.046.551.1.826.125.066,0,.118.013.2.015l.117,0c.01,0,.058,0,.085,0a2.527,2.527,0,0,0,.406-.047,4.928,4.928,0,0,0,.856-.25,10.3,10.3,0,0,0,1.645-.8,12.722,12.722,0,0,0,1.333-.912,7.4,7.4,0,0,0,.847-.758c.1-.1.162-.168.214-.231l.076-.089a.225.225,0,0,1,.365.263" transform="translate(-1649.479 -1559.919)"/><path class="g" d="M1921,1723.895l-.209-.144c-.136-.091-.337-.225-.6-.377a3.386,3.386,0,0,0-.945-.4c-.232-.055-.611.181-.859.563a2.146,2.146,0,0,0-.363,1.391,3.829,3.829,0,0,0,.179.811c.094.286.214.564.347.889a2.541,2.541,0,0,1,.1.292c.009.04.016.086.021.13a.487.487,0,0,1,0,.118c0,.025-.008.05-.014.075l-.01.037c-.021.043.03-.046-.049.1l-.035.052s-.033.041-.053.062-.048.048-.074.07a1.21,1.21,0,0,1-.367.192c-.094.033-.182.06-.267.085a3.166,3.166,0,0,0-.841.335.837.837,0,0,0-.252.241l-.022.034-.011.017,0,0c0-.008-.013.025.008-.018l-.007.015-.057.119-.115.238-.23.478-.167.466a8.075,8.075,0,0,0-.292.966c-.1.325-.143.666-.215,1a4.9,4.9,0,0,0-.079.5c-.021.167-.043.333-.065.5-.043.331-.052.663-.082.987s-.023.646-.036.96.006.623.008.923c.018.6.051,1.167.1,1.69s.1,1,.174,1.422c.028.212.069.406.1.588s.069.346.106.492a6.473,6.473,0,0,0,.186.669l.087.211.015.036a.178.178,0,0,1-.321.153l-.136-.247a5.789,5.789,0,0,1-.27-.7c-.051-.151-.1-.319-.149-.5s-.106-.382-.152-.6c-.1-.427-.2-.913-.283-1.447s-.149-1.115-.2-1.733c-.014-.31-.039-.627-.045-.954s-.012-.659,0-1a17.52,17.52,0,0,1,.186-2.092,10.385,10.385,0,0,1,.21-1.068,8.87,8.87,0,0,1,.315-1.069l.193-.536.227-.481.114-.239.057-.119.007-.015c.025-.047.01-.019.017-.032l.006-.01.025-.038.05-.076a1.73,1.73,0,0,1,.5-.479,3.925,3.925,0,0,1,1.081-.434c.08-.023.156-.046.222-.068l.084-.032.021-.011.011,0a.152.152,0,0,0-.028.02.15.15,0,0,0-.025.031c0,.006-.018.037-.007.019l.036-.052c-.079.146-.027.052-.047.089l-.008.021a.248.248,0,0,0-.01.044c0,.03,0,.066,0,.056s0,.006,0,.006a1.908,1.908,0,0,0-.059-.184,6.171,6.171,0,0,1-.515-1.974,2.813,2.813,0,0,1,.146-1,2.761,2.761,0,0,1,.448-.833,2.214,2.214,0,0,1,.674-.589,1.34,1.34,0,0,1,.43-.154,1.111,1.111,0,0,1,.265-.014c.038,0,.058.009.087.014l.041.007.01,0,.034.007.006,0,.022.007a3.563,3.563,0,0,1,1.064.571c.26.19.445.356.573.468l.191.173a.18.18,0,0,1-.223.282Z" transform="translate(-1625.435 -1462.561)"/><path class="f" d="M2284.376,1738.564c-3.234.493-14.452-11.278-16.523-11.278-3.881,0-11.973,5.455-11.5,6.322,1.355,2.474,7.325-2.122,8.222-1.333-2.6,1.594-7.441,7.582-6.836,9.529,1.108,3.567,11.688.443,11.688.443s9.034,9.467,12.874,8.513c2.231-.554,3.873-2.278,4.127-3.713a11.449,11.449,0,0,0-2.052-8.484" transform="translate(-1915.598 -1466.741)"/><path class="g" d="M2283.574,1775.864l-.158-.008-.441-.011c-.379-.006-.926-.008-1.561.042a6.634,6.634,0,0,0-.981.15,1.917,1.917,0,0,0-.437.16l-.487.3-.266.166-.249.173c-.166.121-.338.224-.507.355l-.512.382c-.168.134-.333.273-.5.4-.333.275-.664.553-.975.845s-.624.574-.914.861-.57.567-.831.837l-.729.772-1.089,1.177c-.133.144-.242.253-.319.33l-.116.116a.279.279,0,0,1-.428-.353l.007-.01.338-.5c.218-.321.533-.782.94-1.319.2-.269.427-.558.675-.855s.511-.611.8-.919c.142-.158.294-.311.446-.468s.306-.316.472-.467c.322-.31.667-.608,1.014-.9.176-.145.358-.283.536-.425l.552-.4c.178-.134.378-.254.567-.374l.284-.178.276-.154.271-.15.134-.074.079-.043.092-.043a2.9,2.9,0,0,1,.678-.2,5.9,5.9,0,0,1,1.155-.075,10.521,10.521,0,0,1,1.653.169c.2.034.349.071.455.094l.158.038a.279.279,0,0,1-.079.55Z" transform="translate(-1928.917 -1507.267)"/><path class="g" d="M2298.539,1798.734l-.352.149-.384.172c-.149.068-.316.149-.5.236l-.583.293-.645.343-.684.38c-.234.128-.464.272-.7.406s-.468.276-.694.419-.453.277-.667.414l-.616.4-.543.365c-.331.23-.6.429-.76.569l-.147.137s-.013.012-.012.006a.037.037,0,0,0,0-.019.044.044,0,0,0-.006-.015.278.278,0,0,1-.556,0,.528.528,0,0,1,0-.065.677.677,0,0,1,.013-.08.534.534,0,0,1,.024-.072,1.464,1.464,0,0,1,.176-.324,5.651,5.651,0,0,1,.711-.8c.157-.148.326-.31.516-.465s.387-.324.6-.482.437-.322.67-.478.475-.306.717-.455.495-.283.742-.415.5-.252.742-.362.484-.21.716-.3.453-.162.661-.221a7.372,7.372,0,0,1,1.029-.232c.129-.022.22-.023.288-.032l.1-.009a.281.281,0,0,1,.134.539" transform="translate(-1944.766 -1526.953)"/><path class="g" d="M2300.6,1749.663s-.133,0-.363-.014c-.118-.011-.249,0-.4,0s-.315.011-.5.025a2.237,2.237,0,0,0-.284.033c-.1.015-.2.023-.3.043-.206.043-.422.087-.645.15-.112.026-.224.064-.338.1s-.23.069-.346.114c-.233.078-.467.177-.705.266l-1.406.577c-.226.095-.449.177-.659.26s-.413.153-.6.219c-.374.13-.69.228-.914.289s-.352.094-.352.094a.226.226,0,0,1-.168-.416l0,0s.114-.065.315-.173.489-.259.837-.435c.174-.088.361-.189.561-.286s.41-.21.632-.315c.44-.216.919-.438,1.413-.642q.374-.151.758-.274c.126-.044.255-.082.384-.114s.255-.067.384-.09.252-.053.377-.069l.367-.039a4.783,4.783,0,0,1,.675,0l.3.022c.095.009.186.03.271.043a2.96,2.96,0,0,1,.423.091c.221.063.347.1.347.1a.227.227,0,0,1-.073.443" transform="translate(-1946.315 -1485.136)"/><path class="g" d="M2264.462,1824.829a1.941,1.941,0,0,0,.214.27,2.073,2.073,0,0,0,.254.228,2.877,2.877,0,0,0,.6.349,5.285,5.285,0,0,0,1.388.373,13.049,13.049,0,0,0,2.955.016,31.372,31.372,0,0,0,5.87-1.178.4.4,0,0,1,.412.121l.007.008q.354.406.728.8t.767.764c.524.5,1.07.976,1.632,1.435a38.635,38.635,0,0,0,3.532,2.556c.611.394,1.236.767,1.866,1.125a19.769,19.769,0,0,0,1.921.975c.162.068.324.132.481.185.077.025.157.05.227.065l.027.007.013,0,.007,0-.011,0h0l.068.011c.044.007.095.018.132.022a3.674,3.674,0,0,0,.474.025,4.885,4.885,0,0,0,.506-.033,8.035,8.035,0,0,0,2.017-.528l.01,0a.4.4,0,0,1,.246-.016c.154.038.331.076.5.109s.343.065.516.093q.519.087,1.044.149c.7.084,1.4.14,2.11.174.353.009.706.035,1.06.036s.708.01,1.063,0,.708-.019,1.063-.029c.178,0,.354-.017.532-.025l.532-.028h.006a.225.225,0,0,1,.04.447l-.536.066c-.179.02-.357.048-.537.062-.359.029-.718.068-1.078.085s-.721.042-1.082.051-.722.014-1.083.013c-.723-.012-1.446-.046-2.169-.11q-.542-.046-1.083-.12c-.181-.023-.361-.051-.542-.08s-.357-.061-.551-.1l.256-.02a8.777,8.777,0,0,1-1.089.387,8.047,8.047,0,0,1-1.141.239,4.927,4.927,0,0,1-1.221.021c-.054-.006-.093-.013-.141-.021l-.068-.011-.033-.007-.02,0-.041-.01c-.11-.024-.206-.055-.3-.085-.191-.063-.372-.134-.55-.207a20.574,20.574,0,0,1-2.018-1.009c-.327-.18-.645-.373-.964-.566s-.632-.393-.943-.6a39.418,39.418,0,0,1-3.594-2.641c-.573-.476-1.132-.97-1.669-1.49q-.4-.389-.79-.8c-.257-.273-.5-.557-.744-.846l.419.129a32.072,32.072,0,0,1-6.037,1.076c-.513.033-1.03.043-1.547.027a10.9,10.9,0,0,1-1.552-.153,5.8,5.8,0,0,1-1.517-.467,3.355,3.355,0,0,1-.687-.444,2.561,2.561,0,0,1-.3-.293,2.491,2.491,0,0,1-.241-.334l-.005-.009a.225.225,0,0,1,.381-.238" transform="translate(-1922.148 -1549.486)"/><path class="g" d="M2262.564,1759.335l-.1.024-.088.032c-.041.017-.086.033-.138.057-.211.088-.515.238-.882.422l-1.262.638c-.468.227-.969.472-1.488.689a10.763,10.763,0,0,1-1.588.559,4.013,4.013,0,0,1-.831.131,2.13,2.13,0,0,1-.8-.129,2.213,2.213,0,0,1-.585-.317,2.118,2.118,0,0,1-.362-.352,1.424,1.424,0,0,1-.182-.28c-.018-.035-.031-.067-.039-.088l-.012-.031a.223.223,0,0,1,.33-.269l.056.037.063.042c.042.029.114.073.2.125a3.19,3.19,0,0,0,.337.166,2.659,2.659,0,0,0,.443.146,2.233,2.233,0,0,0,.522.053,3.174,3.174,0,0,0,.642-.1,13.588,13.588,0,0,0,1.483-.482c1.014-.388,2.027-.827,2.811-1.12a9.968,9.968,0,0,1,.975-.326c.061-.017.121-.028.169-.04l.143-.025.1-.009a.225.225,0,0,1,.075.442Z" transform="translate(-1913.783 -1493.579)"/><path class="e" d="M2189.412,1313.98c3.821-.715,18.89.075,24.5,2.5,0,2.623-.432,7.367-.432,7.367s-14.178-2.677-24.067-2.365Z" transform="translate(-1858.782 -1115.564)"/><path class="e" d="M2059.963,1492.126l21.026-4.615a.648.648,0,0,1,.787.632l.549,13.517a.648.648,0,0,1-.549.64l-19.816,2.2a.648.648,0,0,1-.738-.539l-1.76-11.105a.646.646,0,0,1,.5-.733" transform="translate(-1748.449 -1263.121)"/><path class="n" d="M2051.434,1486.907l22.41-4.919v14.12l-20.454,3.143Z" transform="translate(-1741.64 -1258.445)"/><path class="b" d="M2052.061,1498.379a.225.225,0,0,1-.222-.189l-1.891-11.931a.225.225,0,0,1,.174-.254l21.939-4.815a.225.225,0,1,1,.1.438l-21.732,4.77,1.858,11.723a.224.224,0,0,1-.187.257l-.035,0" transform="translate(-1740.376 -1257.761)"/><path class="o" d="M2117.971,1009.232l.4.344c.067.059.134.111.2.176l.2.214c.132.145.28.287.4.44l.351.463a7.381,7.381,0,0,1,1,2.119,8.6,8.6,0,0,1,.275,2.314,11.424,11.424,0,0,1-.295,2.259,18.866,18.866,0,0,1-1.552,4.135,35.626,35.626,0,0,1-2.2,3.725c-.806,1.185-1.646,2.339-2.532,3.452s-1.787,2.209-2.705,3.287-1.857,2.137-2.789,3.2l-2.8,3.174c-.936,1.056-1.85,2.129-2.774,3.192s-1.821,2.15-2.722,3.231-1.8,2.167-2.663,3.273-1.728,2.215-2.56,3.344-1.625,2.283-2.389,3.452-1.477,2.367-2.134,3.587a29.624,29.624,0,0,0-1.7,3.753,16.835,16.835,0,0,0-.948,3.89,1,1,0,0,1-1.923.264l-.024-.06h0c-.143-.543-.284-1.085-.435-1.622l-.389-1.622-.346-1.625-.3-1.627q-.282-1.629-.5-3.261c-.083-.543-.139-1.089-.2-1.634l-.1-.816-.08-.818c-.054-.545-.112-1.09-.146-1.637-.02-.273-.042-.546-.081-.817s-.086-.543-.138-.814c-.106-.542-.254-1.083-.359-1.628a10.2,10.2,0,0,1-.161-1.644,12.213,12.213,0,0,1,.107-1.651c.064-.55.171-1.1.228-1.646s.088-1.094.088-1.641-.021-1.1-.059-1.645a28.564,28.564,0,0,1-.142-3.3c.029-.549.078-1.1.134-1.644s.141-1.091.218-1.635c.175-1.087.393-2.167.627-3.241l.727-3.214c.24-1.07.5-2.135.791-3.193.144-.529.309-1.053.462-1.579l.257-.782c.086-.26.161-.524.257-.781.189-.516.36-1.037.575-1.543.1-.254.2-.511.312-.763l.343-.751a16.367,16.367,0,0,1,1.666-2.865.225.225,0,0,1,.36.269v0l0,0a14.572,14.572,0,0,0-1.582,2.792l-.313.745c-.1.251-.187.506-.282.759-.2.5-.347,1.023-.516,1.536s-.3,1.039-.442,1.56c-.125.527-.26,1.05-.375,1.579-.231,1.057-.441,2.119-.614,3.188s-.293,2.146-.374,3.226c-.038.541-.082,1.079-.114,1.62s-.066,1.079-.1,1.618-.066,1.077-.11,1.615-.072,1.076-.133,1.613c-.1,1.073-.349,2.14-.506,3.218a12.631,12.631,0,0,0-.158,1.621,10.108,10.108,0,0,0,.044,1.626c.116,1.084.382,2.159.415,3.236a20.52,20.52,0,0,1-.192,3.253,8.824,8.824,0,0,0,.043,1.625c.047.54.117,1.076.182,1.613l.1.806.12.8c.086.534.166,1.069.273,1.6.186,1.064.431,2.116.69,3.162.138.52.278,1.04.431,1.556s.319,1.026.493,1.533.369,1.005.564,1.5.427.978.645,1.462h0l-1.947.2a20.429,20.429,0,0,1,1.378-4.219,34.189,34.189,0,0,1,2.013-3.835c.735-1.231,1.537-2.413,2.354-3.578s1.674-2.3,2.546-3.414,1.758-2.221,2.659-3.311,1.809-2.172,2.725-3.247l2.76-3.21c.912-1.076,1.838-2.139,2.739-3.222s1.8-2.166,2.679-3.266,1.746-2.207,2.6-3.323,1.684-2.243,2.489-3.386,1.6-2.29,2.329-3.467a39.118,39.118,0,0,0,2.046-3.583c.148-.306.307-.609.439-.92l.208-.464.187-.468a16.556,16.556,0,0,0,.635-1.892c.074-.319.157-.638.2-.958.068-.32.088-.638.125-.958a8.131,8.131,0,0,0-.112-1.882,6.628,6.628,0,0,0-.658-1.753l-.248-.408c-.082-.138-.182-.249-.272-.378l-.138-.189c-.05-.065-.116-.131-.173-.2l-.354-.394a.563.563,0,0,1,.785-.8" transform="translate(-1768.302 -856.884)"/><path class="o" d="M2106.568,1397.989h-.044a1.011,1.011,0,0,1-.967-1.053c.01-.232.015-.49.015-.767,0-.415-.011-.883-.034-1.39a1.011,1.011,0,0,1,2.021-.092c.024.537.036,1.036.036,1.482,0,.305-.005.593-.017.854a1.011,1.011,0,0,1-1.01.967m-.173-4.489a1.011,1.011,0,0,1-1.007-.924c-.059-.687-.132-1.432-.219-2.213a1.011,1.011,0,0,1,2.01-.222c.088.8.164,1.559.224,2.262a1.01,1.01,0,0,1-.921,1.093c-.03,0-.059,0-.088,0m-.49-4.469a1.011,1.011,0,0,1-1-.882c-.092-.713-.193-1.458-.3-2.214a1.011,1.011,0,0,1,2-.285c.109.765.211,1.52.3,2.242a1.013,1.013,0,0,1-1,1.139m-.633-4.453a1.011,1.011,0,0,1-1-.856c-.206-1.33-.356-2.2-.357-2.208a1.011,1.011,0,0,1,1.994-.342c0,.009.153.893.362,2.242a1.011,1.011,0,0,1-.845,1.153,1,1,0,0,1-.155.012" transform="translate(-1786.185 -1172.122)"/><path class="e" d="M2089.69,1472.592s4.282,6.576,5.319,7.286,1.232-.965,1.232-.965-2.473-6.968-4-7.267a2.812,2.812,0,0,0-2.547.946" transform="translate(-1774.119 -1249.622)"/><path class="p" d="M446.9,734.1c-1.121,1.4-7.252,3.883-11.835,4.156-7.536-1.174-23.287-1.978-34.278-6.557-8.008-3.335-15.685-9.944-18.963-15.4a.677.677,0,0,1,.309-.969c9.918-4.456,22.412-29.839,39.631-32.495a19.388,19.388,0,0,1,12.641,2.375c11.142-3.961,22,37.016,12.5,48.888" transform="translate(-324.084 -579.645)"/><path class="q" d="M541.763,887.549c-10.67.636-24.687-1.794-34.278-6.557-.583-5.64,1.977-15.626,5.735-19.406,9.142-9.195,31.862,4.547,31.862,4.547-2.239,8-3.16,12.127-3.319,21.416" transform="translate(-430.778 -728.934)"/><path class="q" d="M537.19,762.679c-1.5-3.63,15.885-24.268,21.878-23.707a10.512,10.512,0,0,1,7.055,3.581c1.276-3.048,5.221-4.8,7.213-4.034,5.286,2.041.5,20.881-5.744,20.353Z" transform="translate(-455.99 -626.967)"/><path class="r" d="M444.858,923.023s-.029.048-.084.129-.137.2-.241.332a6.652,6.652,0,0,1-.856.9,5.6,5.6,0,0,1-1.021.718,4,4,0,0,1-.518.235.118.118,0,0,1-.117-.2l0,0s.042-.037.118-.1l.31-.247.434-.348c.157-.129.324-.267.489-.408.328-.283.651-.576.894-.8l.3-.267c.073-.066.116-.1.116-.1a.117.117,0,0,1,.175.151" transform="translate(-375.237 -783.642)"/><path class="r" d="M448.575,858.289a5.856,5.856,0,0,1-.332.547c-.107.159-.236.342-.386.529s-.315.383-.491.57a7.757,7.757,0,0,1-1.052.942,5.4,5.4,0,0,1-.535.356h0a.094.094,0,0,1-.117-.144s.168-.193.428-.465.6-.636.939-1,.674-.738.941-1.008.46-.44.46-.44a.094.094,0,0,1,.146.114Z" transform="translate(-378.341 -728.707)"/><path class="r" d="M489.943,852.038s-.029.061-.084.165-.133.253-.235.426c-.2.349-.484.8-.793,1.244a13.293,13.293,0,0,1-.918,1.161c-.27.3-.465.487-.465.487a.117.117,0,0,1-.183-.141v0s.033-.059.1-.158.151-.242.262-.408c.221-.334.523-.77.828-1.205s.621-.866.87-1.182c.123-.159.234-.286.308-.377s.122-.14.122-.14a.117.117,0,0,1,.192.13" transform="translate(-413.668 -723.375)"/><path class="r" d="M543.5,813.541s-.026.056-.076.151-.121.23-.213.388c-.182.317-.441.728-.716,1.129s-.566.789-.8,1.073c-.114.143-.217.256-.285.338s-.113.125-.113.125a.117.117,0,0,1-.191-.131v0s.026-.056.076-.151.121-.23.213-.388c.182-.317.441-.728.716-1.129s.567-.789.8-1.073c.114-.143.217-.256.285-.338s.113-.125.113-.125a.117.117,0,0,1,.191.131Z" transform="translate(-459.384 -690.683)"/><path class="r" d="M537.074,765.354s-.05.054-.14.144-.216.219-.374.367c-.313.3-.736.692-1.164,1.078s-.863.767-1.195,1.047l-.406.334c-.1.08-.157.123-.157.123a.117.117,0,0,1-.162-.165s.045-.058.128-.155.2-.236.349-.4c.294-.322.7-.738,1.135-1.129a14.968,14.968,0,0,1,1.238-1.018c.356-.258.606-.408.606-.408a.117.117,0,0,1,.147.179Z" transform="translate(-452.892 -649.741)"/><path class="r" d="M601.459,755.116s-.049.046-.137.123l-.364.313c-.3.256-.7.589-1.08.944-.191.175-.373.361-.549.533s-.338.337-.482.475-.268.249-.352.33-.138.122-.138.122h0a.117.117,0,0,1-.173-.154,9.977,9.977,0,0,1,1.378-1.644,7.631,7.631,0,0,1,.613-.51c.2-.153.4-.282.57-.389.344-.213.581-.333.581-.333a.117.117,0,0,1,.133.189" transform="translate(-507.833 -641.042)"/><path class="r" d="M614.889,703.529l-.213.057c-.134.033-.325.091-.55.158s-.486.155-.759.26c-.137.051-.275.111-.414.172s-.286.129-.427.2c-.572.268-1.13.565-1.549.793l-.7.383a.117.117,0,0,1-.134-.189h0s.242-.217.639-.5a10.322,10.322,0,0,1,1.545-.9c.149-.069.3-.135.445-.2s.3-.116.45-.165a6.236,6.236,0,0,1,.819-.2c.242-.044.446-.062.589-.076s.223-.014.223-.014h0a.116.116,0,0,1,.032.229" transform="translate(-517.97 -597.214)"/><path class="r" d="M658.952,724.261s-.208,0-.5-.016-.7-.022-1.093-.027h-1.094c-.3,0-.5-.007-.5-.007a.118.118,0,0,1-.036-.229h0a3.491,3.491,0,0,1,.5-.13,5.543,5.543,0,0,1,1.136-.094,5.6,5.6,0,0,1,1.134.132,3.413,3.413,0,0,1,.5.146l0,0a.117.117,0,0,1-.047.225" transform="translate(-556.633 -614.583)"/><path class="r" d="M707.91,736.755s-.143-.151-.343-.369-.474-.51-.749-.795l-.77-.777c-.212-.212-.35-.363-.35-.363a.118.118,0,0,1,.137-.186h0a3.481,3.481,0,0,1,.447.265,5.746,5.746,0,0,1,1.571,1.637,3.394,3.394,0,0,1,.247.456l0,0a.117.117,0,0,1-.193.126" transform="translate(-599.103 -623.499)"/><path class="r" d="M802.7,822.336s-.007-.207-.012-.5-.017-.7-.034-1.091-.045-.794-.061-1.091-.021-.5-.021-.5a.118.118,0,0,1,.226-.048h0a3.481,3.481,0,0,1,.159.494,5.738,5.738,0,0,1,.09,2.265,3.407,3.407,0,0,1-.118.505l0,.005a.117.117,0,0,1-.228-.034" transform="translate(-681.376 -695.485)"/><path class="r" d="M824.819,947.813s.016-.207.045-.5.062-.693.089-1.088.045-.794.062-1.091.036-.5.036-.5a.118.118,0,0,1,.231-.023h0a3.506,3.506,0,0,1,.1.509,5.733,5.733,0,0,1-.165,2.261,3.388,3.388,0,0,1-.174.488l0,.005a.117.117,0,0,1-.223-.059" transform="translate(-700.26 -802.052)"/><path class="r" d="M789.143,1002.877s.046-.2.117-.49.162-.676.247-1.063l.22-1.071c.059-.294.109-.492.109-.492a.118.118,0,0,1,.231.011v0a3.492,3.492,0,0,1,.027.518,5.742,5.742,0,0,1-.493,2.214,3.4,3.4,0,0,1-.243.458l0,0a.117.117,0,0,1-.212-.091" transform="translate(-669.97 -848.881)"/><path class="r" d="M821.717,874.665s-.016-.207-.034-.5-.047-.694-.081-1.088l-.109-1.087c-.031-.3-.043-.5-.043-.5a.118.118,0,0,1,.224-.059v0a3.5,3.5,0,0,1,.18.487,5.53,5.53,0,0,1,.207,1.12,5.6,5.6,0,0,1-.018,1.14,3.4,3.4,0,0,1-.1.51v.005a.117.117,0,0,1-.229-.024" transform="translate(-697.4 -739.923)"/><path class="r" d="M686.631,702.728l-.1-.1c-.03-.036-.067-.062-.106-.1s-.092-.078-.142-.125a4.493,4.493,0,0,0-.869-.548,10.285,10.285,0,0,0-.973-.412l-.334-.124-.128-.05a.118.118,0,0,1,.042-.227h0a3.248,3.248,0,0,1,.512.051,3.908,3.908,0,0,1,.515.123,3.849,3.849,0,0,1,.57.226,3.166,3.166,0,0,1,.528.328,2.387,2.387,0,0,1,.4.379,1.887,1.887,0,0,1,.131.179,1.365,1.365,0,0,1,.087.148l.057.127a.117.117,0,0,1-.192.129" transform="translate(-580.63 -595.293)"/><path class="r" d="M734.585,721.3l-.138.019c-.046,0-.089.018-.144.026s-.117.029-.184.042a4.485,4.485,0,0,0-.952.385,10.2,10.2,0,0,0-.9.549l-.3.2-.115.074a.118.118,0,0,1-.16-.167v0a3.214,3.214,0,0,1,.34-.385,4.028,4.028,0,0,1,.917-.677,3.176,3.176,0,0,1,.574-.237,2.41,2.41,0,0,1,.539-.1,1.914,1.914,0,0,1,.222,0,1.335,1.335,0,0,1,.171.016l.137.027a.117.117,0,0,1-.007.232" transform="translate(-621.178 -612.265)"/><path class="r" d="M484.844,953.11s-.011.054-.035.147-.05.218-.085.376l-.112.535c-.037.2-.08.406-.116.616l-.106.618-.084.539c-.02.158-.044.29-.052.382s-.018.146-.018.146v.006a.118.118,0,0,1-.23.008,3.153,3.153,0,0,1-.065-.561,4.81,4.81,0,0,1,.016-.572,6.385,6.385,0,0,1,.086-.648,6.021,6.021,0,0,1,.337-1.177c.062-.154.131-.286.174-.37s.076-.131.076-.131a.118.118,0,0,1,.215.086" transform="translate(-410.856 -809.222)"/><path class="q" d="M831.6,796.658l.2.432c.061.138.137.305.215.5s.174.417.264.66c.188.485.392,1.057.589,1.677s.388,1.288.553,1.964c.088.336.155.678.229,1.012s.132.667.183.99.1.635.135.932.066.579.084.841.037.5.04.714.013.4.009.551c0,.306-.011.481-.011.481a.226.226,0,0,1-.448.029v0l-.08-.463c-.021-.147-.059-.325-.092-.53l-.125-.685-.158-.808-.189-.9-.213-.959-.235-.989c-.076-.332-.161-.662-.244-.987l-.245-.955-.449-1.694-.319-1.2-.116-.461a.226.226,0,0,1,.424-.149" transform="translate(-705.649 -676.379)"/><path class="q" d="M376.751,843.613l-.324.349c-.1.109-.23.244-.383.392s-.32.322-.512.5-.395.374-.622.569-.459.408-.713.614-.514.42-.783.633-.549.42-.833.623-.571.4-.855.594-.571.373-.851.543l-.414.249-.4.225c-.26.15-.518.274-.752.393-.473.231-.881.4-1.169.508s-.458.159-.458.159a.225.225,0,0,1-.184-.409l0,0,.405-.236.461-.275.592-.366c.213-.142.449-.285.692-.448l.766-.511.811-.559c.276-.191.552-.391.83-.59s.553-.4.825-.6.54-.393.794-.589l1.4-1.058.991-.754.382-.285a.226.226,0,0,1,.3.334" transform="translate(-311.903 -716.04)"/><path class="q" d="M722.525,707.823a.45.45,0,0,1-.4-.234c-.6-1.1-1.57-7.622.2-10.466a.449.449,0,0,1,.763.475c-1.549,2.483-.69,8.622-.177,9.562a.449.449,0,0,1-.395.664" transform="translate(-612.392 -591.788)"/><path class="f" d="M552.542,897.515c-1.87,1.328,24.149,29.043,24.149,29.043V899.075a23.471,23.471,0,0,1-2.819-6.784,17.917,17.917,0,0,1-.446-3.735,58.823,58.823,0,0,1,.93-11.455l-15.73-13.617-3.632-2.749c5.771,15.071,3.793,32.347-2.451,36.781" transform="translate(-469.019 -730.901)"/><path class="s" d="M599.821,1133.284c4.795,5.877,13.659,7.558,17.322,4.38s3.984,24.426,3.984,24.426l-8.377,2.55Z" transform="translate(-509.24 -962.339)"/><path class="g" d="M614.411,936.511a17.933,17.933,0,0,1-.446-3.735,58.816,58.816,0,0,1,.929-11.455l-14.648-8.511c-.74,10.247,6.776,22.132,14.165,23.7" transform="translate(-509.559 -775.121)"/><path class="f" d="M568.787,776.353c4.216,13.886,15.154,23.2,25.985,21.453,2.831-.458,6.719-5.919,7.749-11.639a16.089,16.089,0,0,0,.243-2.014,33.811,33.811,0,0,0-.265-7.58c-.23-1.5-.56-3.091-.962-5.242-.488-2.607-.6-5.314-.873-7.665a14.188,14.188,0,0,0-.966-4.266c-1.542-3.357-4.491-5.215-6.8-2.1-9.34-3.653-16.111,8.006-17.63,10.713a4.439,4.439,0,0,1-6.213,1.9,1.26,1.26,0,0,1-.109-.064,24.217,24.217,0,0,0-.159,6.5" transform="translate(-482.765 -641.716)"/><path class="t" d="M639.162,905.331a5.088,5.088,0,1,0-4.776,5.376,5.086,5.086,0,0,0,4.776-5.376" transform="translate(-534.008 -764.712)"/><path class="t" d="M770.446,899.127a5.092,5.092,0,0,0,3.4,4.5,16.125,16.125,0,0,0,.243-2.014,33.819,33.819,0,0,0-.266-7.58,5.088,5.088,0,0,0-3.378,5.095" transform="translate(-654.091 -759.176)"/><path class="g" d="M596.963,762.219c-11.68-1.813-17.225,24.295-23.534,13.083-.094-.168,1.851,1.527,5.648-3,2.059-2.454,8.548-13.739,17.886-10.085" transform="translate(-486.831 -646.632)"/><path class="g" d="M737.053,763.67c-1.028-3.658-3.175-7.279-7.766-6.363,2.311-3.116,5.26-1.259,6.8,2.1a14.216,14.216,0,0,1,.966,4.266" transform="translate(-619.155 -641.721)"/><path class="u" d="M532.454,840.924c-2.463,3.109,4.969,14.2,6.477,6.725.638-3.162.212-4.923-1.328-6.358-2.015-1.877-4.309-1.427-5.149-.367" transform="translate(-451.626 -713.299)"/><path class="v" d="M545.756,858.941h-.01a1.611,1.611,0,0,1-1.2-.81.963.963,0,0,1,.109-.82.711.711,0,0,0,.116-.451,2.123,2.123,0,0,0-.983-1.67,1.782,1.782,0,0,0-1.534-.108.232.232,0,1,1-.184-.425,2.263,2.263,0,0,1,1.947.131,2.532,2.532,0,0,1,1.213,2.012,1.147,1.147,0,0,1-.163.721.521.521,0,0,0-.082.464,1.234,1.234,0,0,0,.776.493.231.231,0,0,1-.009.463" transform="translate(-460.096 -725.604)"/><path class="v" d="M547.805,862.223a.232.232,0,0,1-.224-.293,1.308,1.308,0,0,1,1.112-.949,1.093,1.093,0,0,1,1.117.525.232.232,0,0,1-.4.226.645.645,0,0,0-.657-.291.838.838,0,0,0-.72.613.232.232,0,0,1-.223.17" transform="translate(-464.882 -731.101)"/><path class="q" d="M677.625,838.283l-.019-.07c-.013-.043-.029-.12-.055-.192a1.925,1.925,0,0,0-.105-.233.979.979,0,0,0-.183-.25.825.825,0,0,0-.281-.183,1.152,1.152,0,0,0-.394-.09,2.056,2.056,0,0,0-.483.009,4.075,4.075,0,0,0-.524.092c-.177.043-.354.1-.529.152s-.344.123-.509.186-.32.136-.471.2-.286.135-.414.2c-.253.128-.455.245-.591.331s-.2.139-.2.139l-.019.015a.226.226,0,0,1-.327-.3l.044-.07a1.7,1.7,0,0,1,.136-.186,3.514,3.514,0,0,1,.57-.539,5.332,5.332,0,0,1,.926-.57,5.053,5.053,0,0,1,.568-.24,4.469,4.469,0,0,1,.62-.179,3.359,3.359,0,0,1,1.329-.054,1.89,1.89,0,0,1,.633.235,1.458,1.458,0,0,1,.46.43,1.569,1.569,0,0,1,.212.464,1.872,1.872,0,0,1,.062.376,1.935,1.935,0,0,1,0,.211c0,.047,0,.073,0,.073a.227.227,0,0,1-.447.05" transform="translate(-570.928 -710.238)"/><path class="q" d="M755.748,831.032l-.036-.034a.942.942,0,0,0-.1-.085c-.034-.023-.076-.05-.129-.081a1.172,1.172,0,0,0-.172-.073,1.109,1.109,0,0,0-.207-.032,1.411,1.411,0,0,0-.249.014,2.847,2.847,0,0,0-.6.176,5.641,5.641,0,0,0-.623.3c-.1.056-.2.109-.285.165s-.176.106-.253.158c-.311.2-.508.35-.508.35l-.014.01a.229.229,0,0,1-.342-.284l.024-.048a1.419,1.419,0,0,1,.071-.132,2.789,2.789,0,0,1,.31-.419,3.669,3.669,0,0,1,.537-.5,3.484,3.484,0,0,1,.739-.433,2.285,2.285,0,0,1,.895-.2,1.452,1.452,0,0,1,.853.241,1.224,1.224,0,0,1,.261.247c.031.043.059.08.084.118l.061.114a.647.647,0,0,1,.05.139l.014.047a.233.233,0,0,1-.382.237" transform="translate(-638.614 -704.708)"/><path class="v" d="M740.934,912.415s.08.078.217.22.329.345.553.6a10.758,10.758,0,0,1,.728.915,6.177,6.177,0,0,1,.359.578,2.936,2.936,0,0,1,.271.7,1.5,1.5,0,0,1,.036.2l.007.052,0,.013v.052a.892.892,0,0,1,0,.107,1.1,1.1,0,0,1-.148.464,1.6,1.6,0,0,1-.576.559,2.525,2.525,0,0,1-.627.267,3,3,0,0,1-.58.107,3.2,3.2,0,0,1-.866-.036c-.1-.018-.182-.038-.235-.053l-.082-.022a.174.174,0,0,1,.052-.343h.005s.108,0,.292,0a4.076,4.076,0,0,0,.749-.095,2.841,2.841,0,0,0,.937-.382,1.122,1.122,0,0,0,.334-.339.439.439,0,0,0,.053-.163.238.238,0,0,0,0-.059v-.024c0,.008,0-.021,0,.017v-.012l0-.031a.8.8,0,0,0-.02-.128,2.317,2.317,0,0,0-.2-.542,5.565,5.565,0,0,0-.295-.533c-.1-.172-.211-.339-.315-.5l-.3-.443c-.187-.275-.339-.51-.449-.672s-.166-.26-.166-.26a.175.175,0,0,1,.272-.216" transform="translate(-628.132 -774.744)"/><path class="b" d="M699.125,965.81c-2.427,1.016-7.927.652-10.064-.045a10.8,10.8,0,0,0,7.086,3.65c1.549.088,2.507-1.912,2.978-3.605" transform="translate(-585.004 -820.089)"/><path class="b" d="M753.521,878.953c.07,1.261,1.653,2.052,3.059,1.834a2.242,2.242,0,0,0,2.034-2.624c-.283-1.231-1.653-1.016-3.06-.8s-2.085.666-2.034,1.588" transform="translate(-639.727 -744.879)"/><path class="l" d="M758.99,878.979c.205,1,.9,1.736,1.55,1.637s1.011-.994.806-2-.9-1.736-1.55-1.636-1.011.994-.806,2" transform="translate(-644.324 -744.69)"/><path class="b" d="M765.678,889.824c.1.364.4.614.656.56s.389-.394.287-.757-.4-.614-.656-.56-.389.394-.287.757" transform="translate(-650.021 -754.953)"/><path class="b" d="M667.378,888.445a3.5,3.5,0,0,0,3.769,1.843,2.574,2.574,0,0,0,2.248-3.083c-.239-.9-2.108-1.149-3.769-.807s-2.758,1.111-2.247,2.047" transform="translate(-566.488 -752.568)"/><path class="l" d="M676.851,888.685c.288,1.027,1.117,1.735,1.853,1.581s1.1-1.112.81-2.139-1.117-1.736-1.852-1.581-1.1,1.112-.81,2.14" transform="translate(-574.553 -752.801)"/><path class="b" d="M685.467,898.923c.1.364.4.614.656.56s.389-.394.287-.757-.4-.614-.656-.56-.389.393-.287.757" transform="translate(-581.923 -762.68)"/><path class="q" d="M747.954,873.271c-2.286,0-4.9-2.323-5.092-5.593-.114-1.9,2.662-3.079,5.289-3.368,2.078-.229,4.593.054,4.843,1.6a7.182,7.182,0,0,1-1.427,5.486,4.757,4.757,0,0,1-3.419,1.867c-.064,0-.128.006-.193.006m1.446-8.291a10.754,10.754,0,0,0-1.168.066c-2.3.254-4.709,1.246-4.629,2.588.176,2.94,2.526,5.008,4.5,4.892a4.012,4.012,0,0,0,2.884-1.591,6.42,6.42,0,0,0,1.274-4.9c-.1-.649-1.267-1.05-2.861-1.05" transform="translate(-630.677 -733.878)"/><path class="q" d="M632.66,881.793a8.454,8.454,0,0,1-5-1.679A6.261,6.261,0,0,1,625,875.6c-.12-2,3.716-2.946,7.038-3.144,3.916-.233,8.187.453,8.31,2.512.206,3.448-3.1,6.57-7.229,6.816q-.226.013-.455.013m.839-8.645c-.461,0-.936.014-1.422.043-3.682.22-6.409,1.234-6.341,2.36a5.527,5.527,0,0,0,2.367,3.969,7.659,7.659,0,0,0,4.967,1.519c3.659-.218,6.711-3.037,6.532-6.032-.065-1.1-2.693-1.859-6.1-1.859" transform="translate(-530.611 -740.814)"/><path class="q" d="M722.022,881.378a.379.379,0,0,1-.083-.009.37.37,0,0,1-.279-.444c.185-.805,1.179-1.176,2.082-1.187.985-.012,1.686.367,1.844.987a.371.371,0,0,1-.719.182c-.064-.251-.542-.433-1.117-.429-.69.008-1.291.277-1.368.611a.371.371,0,0,1-.361.288" transform="translate(-612.671 -747.037)"/><path class="q" d="M578.441,854.3a.37.37,0,0,1-.231-.081l-8.349-6.639a.371.371,0,1,1,.462-.58l8.349,6.639a.37.37,0,0,1-.231.66" transform="translate(-483.686 -719.173)"/><path class="b" d="M321.9,1226.55c0,4.312-85.307-3.928-85.323-9.812a70.885,70.885,0,0,1,.718-10.374c0-.03-23.652-13.5-25.755-24.366-3.474-17.94,11.971-58.781,25.146-75.5,7.1-9,21.482-15.823,29.19-16.759l21.329,31.347,1.307-30.1c4.045,1.3,12.967,10.381,17.122,16.357,11.05,15.894,6.623,59.365,7.276,72.461.65,13.038,8.991,41.887,8.991,46.737" transform="translate(-179.171 -925.367)"/><path class="w" d="M840.09,1612.637a.449.449,0,0,1-.447-.409c-.85-9.507-2.912-54.219.009-67.254a.449.449,0,0,1,.877.2c-2.9,12.942-.839,57.5.009,66.978a.45.45,0,0,1-.408.487l-.041,0" transform="translate(-711.57 -1311.631)"/><path class="w" d="M829.133,1338.88a.44.44,0,0,1-.126-.018.449.449,0,0,1-.306-.556c.269-.924.6-1.853.944-2.836,1.08-3.06,2.3-6.527,1.94-10.773-.22-2.562-1.993-5.849-3.558-8.75a23.611,23.611,0,0,1-2.228-4.814c-.8-3.592-.746-7.534.136-9.587a.449.449,0,0,1,.826.354c-.8,1.866-.837,5.666-.085,9.037a23.913,23.913,0,0,0,2.142,4.583c1.606,2.977,3.427,6.351,3.662,9.1.38,4.439-.878,8-1.988,11.148-.343.971-.667,1.888-.928,2.788a.45.45,0,0,1-.432.324" transform="translate(-700.612 -1104.99)"/><path class="n" d="M371.861,1510.007c-.905.334-4.75,11.576-5.892,13.653a65.6,65.6,0,0,0-2.8,6.7,15.518,15.518,0,0,1,3.511.952c1.048.563,6.953,5.372,6.953,5.372s1.819-3.7,1.015-11.645a100.718,100.718,0,0,0-2.784-15.031" transform="translate(-308.322 -1282.237)"/><path class="w" d="M715.576,1359.262a.449.449,0,0,1-.449-.433c-.4-11.412-.719-22.482-.719-24.039a23.063,23.063,0,0,1,.708-4.636,43.9,43.9,0,0,0,1.244-9.93c0-3.362-1.435-7.438-2.955-11.754-1.64-4.658-3.336-9.475-3.388-13.876a.449.449,0,0,1,.444-.454.442.442,0,0,1,.455.444c.05,4.254,1.72,9,3.337,13.589,1.546,4.39,3.006,8.537,3.006,12.052a44.667,44.667,0,0,1-1.264,10.12,22.513,22.513,0,0,0-.688,4.446c0,1.549.32,12.6.718,24.007a.449.449,0,0,1-.434.464h-.016" transform="translate(-602.796 -1098.93)"/><path class="w" d="M423.7,1557.27h-.029a.449.449,0,0,1-.421-.476c.015-.245.056-.564.108-.968.351-2.752,1.174-9.2-2.129-20.038a.449.449,0,0,1,.86-.261c3.36,11.024,2.52,17.6,2.161,20.413-.049.388-.089.695-.1.91a.449.449,0,0,1-.448.421" transform="translate(-357.603 -1303.636)"/><path class="x" d="M298.145,1143.792l.558-1.221.653-1.4.4-.858.466-.944c.319-.66.69-1.364,1.075-2.113.192-.375.407-.75.618-1.139s.433-.782.674-1.175.473-.8.724-1.2l.791-1.2c.262-.407.564-.792.847-1.193.145-.2.285-.4.435-.6l.466-.573.466-.573.233-.286.248-.273.986-1.084c.342-.344.69-.677,1.029-1.01.173-.163.333-.338.513-.489l.529-.457c.353-.3.688-.606,1.043-.874l1.045-.779c.171-.125.334-.255.5-.37l.509-.331.965-.628c.3-.21.621-.368.913-.536l.834-.464c.516-.3,1-.508,1.383-.7l1.22-.576a.173.173,0,0,1,.156.31l-.009.005-1.18.629c-.373.2-.841.422-1.34.742l-.8.488c-.28.177-.59.339-.884.553l-.935.64-.492.337c-.165.117-.322.249-.487.375l-1.007.788c-.176.129-.334.283-.5.43l-.506.445-.515.451c-.175.149-.331.322-.5.483-.33.329-.668.658-1,1l-.958,1.07-.241.269-.227.282-.453.565-.453.565-.428.584c-.28.392-.578.769-.838,1.168l-.784,1.179c-.253.393-.49.79-.73,1.176s-.465.773-.682,1.153-.441.746-.64,1.113c-.4.733-.788,1.422-1.122,2.072l-2.258,4.321a.174.174,0,0,1-.312-.153" transform="translate(-253.108 -951.685)"/><path class="h" d="M0,0,65.458.037l.027,47.57L.027,47.57Z" transform="matrix(0.662, -0.75, 0.75, 0.662, 50.953, 297.432)"/><path class="b" d="M663.617,1743.186a.783.783,0,0,1-.52-.2l-17.559-15.484a.786.786,0,1,1,1.041-1.178l17.559,15.484a.786.786,0,0,1-.521,1.375" transform="translate(-547.827 -1465.76)"/><path class="e" d="M371,1902.6a.371.371,0,0,1-.245-.093L335.08,1871.04a.371.371,0,1,1,.491-.555l35.4,31.218,43.1-48.769a.371.371,0,0,1,.556.49l-43.35,49.046a.371.371,0,0,1-.255.125H371" transform="translate(-284.372 -1573.33)"/><path class="b" d="M366.968,1716c5.926,5.875,23.165,23.011,24.919,25.619,1.191,1.771-.531,8.014-5.236,9.092-6.264,1.435-36.57-14.692-36.908-18.845S366.968,1716,366.968,1716" transform="translate(-296.923 -1457.156)"/><path class="w" d="M240.212,1483.973a.447.447,0,0,1-.212-.054l-.087-.047c-6.776-3.632-28.969-16.249-30.048-26.11-.585-5.347-1-20.246,7.763-43.037a.449.449,0,0,1,.839.322c-8.693,22.609-8.287,37.336-7.708,42.618.82,7.489,15.817,18.04,29.579,25.416l.087.047a.449.449,0,0,1-.213.845" transform="translate(-177.945 -1201.082)"/><path class="w" d="M358.968,1397.59a.449.449,0,0,1-.316-.13c-8.97-8.849-15.03-14.345-17.525-15.894a7.685,7.685,0,0,0-4.816-1.22c-1.385,1.848-2.6,2.711-3.188,2.827a.7.7,0,0,1-.688-.191,1.4,1.4,0,0,1,.132-1.912,5.275,5.275,0,0,1,3.256-1.578,27.731,27.731,0,0,0,3.361-6.674c2.555-7.086,6.021-15.243,9.69-23.879,2.228-5.245,4.532-10.667,6.742-16.109a.449.449,0,0,1,.833.337c-2.212,5.448-4.517,10.875-6.747,16.123-3.664,8.624-7.125,16.77-9.672,23.832a29.632,29.632,0,0,1-3.063,6.291,8.86,8.86,0,0,1,4.633,1.391c2.587,1.606,8.536,7,17.682,16.018a.449.449,0,0,1-.316.769m-24.031-16.957a3.791,3.791,0,0,0-1.679,1.013c-.151.18-.3.423-.221.626a5.817,5.817,0,0,0,1.9-1.639" transform="translate(-281.963 -1131.547)"/><path class="e" d="M419.474,1875.831c4.274,2.187,8.564,4.339,12.945,6.279,2.191.966,4.4,1.886,6.656,2.666a34.316,34.316,0,0,0,3.411,1.006,14.982,14.982,0,0,0,1.723.3,5.681,5.681,0,0,0,1.657-.023.52.52,0,0,1,.489.171l.048.009h0a9.76,9.76,0,0,0,1.746,2.029,16.7,16.7,0,0,0,2.148,1.679,35.413,35.413,0,0,0,4.885,2.619c.848.389,1.7.76,2.552,1.17a9.966,9.966,0,0,1,1.258.7,2.02,2.02,0,0,1,.578.553.781.781,0,0,1,.1.226.875.875,0,0,1,.023.1l.016.086c.021.123.038.245.053.363.11.951.111,1.882.218,2.8a8.638,8.638,0,0,0,.241,1.342,2.96,2.96,0,0,0,.571,1.148l0,0a.247.247,0,1,1-.37.327l0,0a3.43,3.43,0,0,1-.652-1.349,9.624,9.624,0,0,1-.251-1.415c-.05-.471-.083-.941-.117-1.407s-.064-.93-.123-1.381c-.015-.114-.032-.223-.052-.33l-.017-.086a.41.41,0,0,0-.016-.068.3.3,0,0,0-.045-.091,1.589,1.589,0,0,0-.445-.391,9.526,9.526,0,0,0-1.206-.632c-.842-.383-1.711-.735-2.572-1.107a36.168,36.168,0,0,1-5.048-2.558,15.863,15.863,0,0,1-4.372-3.8h0l.5.18a6.357,6.357,0,0,1-1.91.01,15.544,15.544,0,0,1-1.809-.344,34.9,34.9,0,0,1-3.476-1.079c-2.275-.824-4.485-1.781-6.674-2.783-4.374-2.011-8.641-4.228-12.885-6.475a.247.247,0,0,1,.229-.438" transform="translate(-355.822 -1592.857)"/><path class="u" d="M608.2,1911.025c-1.649.229-1.833-6.424-2.294-7.2-.325-.534-10.836-5.625-12.51-7.834-4.831-6.36,1.4-12.951,5.274-8.916,1.285,1.34,15.7,14.831,16.239,16.045.508,1.125-.023,6-.227,6.008-1.027.03-1.159-4.3-1.694-4.488-.2.005-2.222,6.027-4.789,6.38" transform="translate(-502.291 -1601.38)"/><path class="v" d="M707.449,1995.734l.42-1.474c.257-.882.591-2.061.871-3.243a11.212,11.212,0,0,0,.289-1.734,2.534,2.534,0,0,0-.006-.385l0-.044s0-.025,0-.011l-.005-.025-.021-.1c-.016-.062-.03-.1-.049-.158a2.273,2.273,0,0,0-.342-.581c-.136-.171-.279-.32-.407-.454l-.333-.351c-.093-.1-.166-.177-.213-.233l-.074-.085a.116.116,0,0,1,.163-.164l0,0,.319.271a8.3,8.3,0,0,1,.838.763,2.431,2.431,0,0,1,.449.67,2.136,2.136,0,0,1,.077.222l.024.1.006.025.007.04.009.059a2.639,2.639,0,0,1,.017.46,10.167,10.167,0,0,1-.3,1.818c-.286,1.206-.681,2.373-.982,3.246s-.536,1.441-.536,1.441h0a.116.116,0,0,1-.219-.074" transform="translate(-600.611 -1686.995)"/><path class="v" d="M694.76,2000.272l.05-.38c.033-.24.078-.585.124-1s.106-.9.153-1.415.095-1.071.127-1.623.049-1.1.028-1.611a3.044,3.044,0,0,0-.094-.683.289.289,0,0,0-.022-.059l-.01-.025-.021-.038c-.028-.053-.056-.1-.082-.144l-.165-.264a4.972,4.972,0,0,0-.327-.442c-.106-.125-.2-.236-.28-.32a3.433,3.433,0,0,0-.267-.252l0,0a.116.116,0,0,1,.131-.191l.092.053a2.443,2.443,0,0,1,.244.169,3.46,3.46,0,0,1,.346.3,5.322,5.322,0,0,1,.4.442,3.26,3.26,0,0,1,.2.276c.034.052.066.1.1.151l.023.037c.012.021.019.037.028.055a.684.684,0,0,1,.044.106,3.134,3.134,0,0,1,.128.8,13.648,13.648,0,0,1-.031,1.665c-.04.562-.1,1.12-.17,1.641s-.149,1.005-.221,1.42c-.153.827-.29,1.371-.29,1.371a.116.116,0,0,1-.14.085.117.117,0,0,1-.088-.128" transform="translate(-589.137 -1691.364)"/><path class="v" d="M725.1,1993.977s-.055-.2-.116-.491a6.822,6.822,0,0,0-.278-1.018c-.015-.042-.033-.084-.054-.132s-.036-.08-.057-.121c-.04-.081-.082-.16-.128-.234a3.241,3.241,0,0,0-.282-.388c-.092-.109-.175-.2-.236-.258l-.095-.1h0a.118.118,0,0,1,.134-.189s.048.022.13.068a2.251,2.251,0,0,1,.32.219,2.311,2.311,0,0,1,.387.4,2.678,2.678,0,0,1,.173.267c.026.047.051.1.075.148s.044.095.064.147a3.34,3.34,0,0,1,.214,1.144,3.771,3.771,0,0,1-.019.515v0a.118.118,0,0,1-.231.016" transform="translate(-614.511 -1690.708)"/><path class="b" d="M529.065,1060.716l-9.257,7.98,9.86,15.789,3.235-5.263v6.627l16.079,10.526Z" transform="translate(-441.31 -900.717)"/><path class="b" d="M694.328,1069.938l2.819,34.268,4.145-12.28-2.838-5.55,4.4,1.456-2.979-11.7Z" transform="translate(-589.475 -908.548)"/><path class="w" d="M697.9,1076.212a.45.45,0,0,1-.435-.338l-.521-2.047-5.478-6.117a.449.449,0,0,1,.67-.6l5.552,6.2a.446.446,0,0,1,.1.188l.549,2.153a.449.449,0,0,1-.436.56" transform="translate(-586.947 -906.02)"/><path class="w" d="M720.674,1154.218a.45.45,0,0,1-.426-.593l1.226-3.632-2.751-5.381a.449.449,0,0,1,.542-.63l3.625,1.2-1.616-6.342a.45.45,0,0,1,.871-.221l1.818,7.137a.449.449,0,0,1-.577.537l-3.365-1.113,2.339,4.575a.448.448,0,0,1,.026.348l-1.286,3.811a.45.45,0,0,1-.426.305" transform="translate(-610.144 -966.581)"/><path class="w" d="M686.155,1256.071a.447.447,0,0,1-.246-.073l-4.325-2.831a.449.449,0,1,1,.493-.751l3.838,2.512,2.15-6.371a.449.449,0,0,1,.852.287l-2.336,6.922a.45.45,0,0,1-.426.305" transform="translate(-578.483 -1059.965)"/><path class="w" d="M666.488,1266.214a.447.447,0,0,1-.246-.073l-1.031-.675a.449.449,0,1,1,.493-.751l1.031.675a.449.449,0,0,1-.247.825" transform="translate(-564.583 -1073.881)"/><path class="w" d="M611.068,1215.625a.447.447,0,0,1-.246-.073l-7.071-4.629a.449.449,0,0,1-.2-.376v-2.534a.45.45,0,0,1,.9,0v2.291l6.868,4.5a.449.449,0,0,1-.247.824" transform="translate(-512.403 -1025.414)"/><path class="w" d="M574.667,1186.586h-.013a.449.449,0,0,1-.383-.236l-1.406-2.613a.449.449,0,0,1,.792-.425l1.036,1.925,2.826-4.6a.45.45,0,0,1,.833.235v2.631a.449.449,0,0,1-.9,0v-1.042l-2.4,3.908a.449.449,0,0,1-.383.214" transform="translate(-486.309 -1002.37)"/><path class="w" d="M524.865,1078.178a.45.45,0,0,1-.376-.2l-7.584-11.559a.448.448,0,0,1,.082-.586l9.257-7.98a.449.449,0,1,1,.587.68l-8.959,7.723,7.368,11.231a.449.449,0,0,1-.376.695" transform="translate(-438.783 -898.19)"/><path class="w" d="M593.766,1327.113l-10.367.974-.565-2.859,10.367-.974Z" transform="translate(-494.818 -1124.503)"/><path class="b" d="M1296.716,962.054l29.548-.476,3.927,8.772-39.727-.259Z" transform="translate(-1095.586 -816.533)"/><path class="w" d="M1338.358,965.782a.371.371,0,0,1-.34-.221l-2.382-5.4a.855.855,0,0,0-.742-.506l-28.289.5a.617.617,0,0,0-.481.241l-3.917,5.077a.371.371,0,0,1-.588-.452l3.917-5.077a1.355,1.355,0,0,1,1.056-.53l28.31-.5a1.607,1.607,0,0,1,1.413.947l2.382,5.4a.371.371,0,0,1-.339.52" transform="translate(-1104.992 -814.273)"/><path class="b" d="M1039.509,1089.479c7.55-34.174,12.584-55.336,2.925-73.967-7.554-14.572-21.559-21.719-37.078-29.509.086.6.187,1.26.3,1.972A37.982,37.982,0,0,0,985.53,985.8c-1.274.191-3.15.3-5.522.8l0-.049c-.076.031-.146.067-.221.1-7.284,1.6-25.772,9.683-41.5,30.607-17.751,23.611-25.154,58.032-20.255,73.008,5.107,15.61,22.412,13.5,25.708,12.931-2.171,21.506-4.68,44.633-1.448,48.443,12.238,14.427,87.123,9.916,98.4-3.389,4.833-5.692,1.81-38.836-1.171-58.766" transform="translate(-778.135 -836.692)"/><path class="w" d="M1094.046,1717.91a.449.449,0,0,1-.062-.894c5.465-.765,15.3-3.813,20.064-8.2a.449.449,0,1,1,.609.66c-5.179,4.767-15.353,7.7-20.548,8.424a.5.5,0,0,1-.063,0" transform="translate(-928.449 -1450.961)"/><path class="w" d="M1426.706,1874.238c-5.153,0-10.984-.928-15.5-4.209a.449.449,0,1,1,.529-.726c6.113,4.442,15.018,4.275,19.782,3.78,6.968-.724,12.617-2.779,14.017-3.985a.449.449,0,1,1,.587.68c-1.708,1.471-7.741,3.494-14.511,4.2a47.694,47.694,0,0,1-4.905.262" transform="translate(-1197.938 -1587.07)"/><path class="w" d="M1290.9,1154h-.019a.449.449,0,0,1-.431-.467c.641-15.723,3.878-42.422,6.79-56.016a.45.45,0,0,1,.879.188c-2.9,13.555-6.131,40.182-6.771,55.865a.449.449,0,0,1-.449.43" transform="translate(-1095.578 -931.665)"/><path class="w" d="M1260.873,1800.3a.45.45,0,0,1-.446-.394c-.675-5.426.912-23.484,1.626-31a.45.45,0,0,1,.9.085c-.711,7.482-2.292,25.462-1.629,30.8a.449.449,0,0,1-.391.5.435.435,0,0,1-.056,0" transform="translate(-1069.947 -1501.746)"/><path class="w" d="M923.284,1532.916a.45.45,0,0,1-.239-.069c-7.167-4.5-7.9-22.331-4.083-36.162a.45.45,0,0,1,.867.239c-3.652,13.242-3.032,30.94,3.695,35.163a.449.449,0,0,1-.24.829" transform="translate(-778.254 -1270.644)"/><path class="w" d="M1116.144,1354.551h-.019a.449.449,0,0,1-.431-.467,34.962,34.962,0,0,1,1.387-8.151.449.449,0,0,1,.833.338,34.244,34.244,0,0,0-1.322,7.849.45.45,0,0,1-.449.431" transform="translate(-947.21 -1142.674)"/><path class="w" d="M1056.5,1537.251a.754.754,0,0,1-.71-.467c-.29-.643.341-1.448,1.213-2.562.8-1.028,1.907-2.436,1.561-3.108a.263.263,0,0,0-.232-.164c-.979-.11-3.715,2.129-6.09,4.986a.449.449,0,1,1-.692-.574c1.714-2.062,5.093-5.5,6.879-5.305a1.152,1.152,0,0,1,.934.647c.608,1.183-.593,2.718-1.653,4.071a9.242,9.242,0,0,0-1.063,1.537,5.113,5.113,0,0,0,1.875-2.279.45.45,0,0,1,.892.11c-.116.94-1.794,2.949-2.774,3.1a.946.946,0,0,1-.142.011" transform="translate(-892.662 -1299.256)"/><path class="w" d="M1695.562,1682.5a.449.449,0,0,1-.361-.716,17.728,17.728,0,0,1,2.4-2.416c.67-.6,1.677-1.491,1.735-1.817l-.011-.016a2.578,2.578,0,0,0-.379.064,6.191,6.191,0,0,1-3.3-.129.449.449,0,1,1,.244-.865,5.3,5.3,0,0,0,2.865.116c.466-.1,1.045-.225,1.392.443.405.781-.583,1.659-1.95,2.875a17.106,17.106,0,0,0-2.272,2.279.449.449,0,0,1-.362.182" transform="translate(-1439.128 -1423.693)"/><path class="f" d="M1115.142,1414.3c-.831-3.914-9.7-6.79-10.933-.986s-1.769,19.814,3.493,14.666,7.441-13.68,7.441-13.68" transform="translate(-936.757 -1197.341)"/><path class="f" d="M1355.711,823.857c1.364,4.916-16.387,13.731-24.32,11.762-3.393-.842-2.408-9.9-1.6-11.845.258-.619.5-1.267.737-1.922a86.008,86.008,0,0,0,3.619-17.629l.056-.025L1355.6,792.5s-2.749,21.034.114,31.354" transform="translate(-1128.309 -672.961)"/><path class="g" d="M1362.067,813.423c1.213,14.356-11.686,27.086-22.964,26.194a86.01,86.01,0,0,0,3.619-17.63l.056-.025Z" transform="translate(-1136.88 -690.726)"/><path class="f" d="M1294.191,623.175c-.057,1.545-.191,3.327-.4,5.229-.593,5.454-1.794,11.863-3.6,16.226-3.772,9.112-13.363,15.658-23.207,14.8-7.672-.668-10.973-6.452-11.481-12.328-.023-.268-.032-.542-.042-.817a37.693,37.693,0,0,1,1.606-10.138c.763-2.92,1.605-5.742,2.038-8.114.556-3.038.9-6.339,1.244-9.139.362-2.984,1.145-4.4,2.4-5.207,1.845-1.185,4.045-3.494,6.727-4.549a22.605,22.605,0,0,1,9.559-1.9c3.027.253,6.282,2.139,9.079,4.492a32.926,32.926,0,0,1,3.986,3.977,25.236,25.236,0,0,1,1.73,2.3c.349.528.468,2.478.365,5.171" transform="translate(-1065.863 -515.609)"/><path class="g" d="M1331.766,629.889a20.7,20.7,0,0,1-1.1,2.4c-1,2.048-2.332,4.653-2.332,4.653s1.337-2.682-.246-3.139c-.408-.118-2.231.358-2.611-.6-.2-.512.4-1.97.332-3.054-.028-.451-.756-.463-.776-.913-.048-1.071-.085-2.053-.175-2.542-.211-1.158-2.286-.287-2.808-1.035-.818-1.175,1.347-3.954.451-4.047-14.039,4.65-25.13,3.558-23.272-2.318a1.125,1.125,0,0,1,.349-.856,39.828,39.828,0,0,1,6.825-3.683l7.789.02,10.761,2.4,3.062.682s.386,1.243.917,2.932c.652,2.078,1.508,4.834,2.111,6.768.416,1.331.7,2.279.723,2.335" transform="translate(-1102.855 -522.025)"/><path class="t" d="M1379.133,814.429a5.854,5.854,0,1,1,5.611,6.081,5.852,5.852,0,0,1-5.611-6.081" transform="translate(-1170.861 -686.816)"/><path class="t" d="M1259.342,803.979a5.835,5.835,0,0,1-3.883,5.266,37.692,37.692,0,0,1,1.606-10.138,5.852,5.852,0,0,1,2.276,4.872" transform="translate(-1065.863 -678.569)"/><path class="f" d="M1493.593,751.81c2.867,2.93-4.8,14.909-7.854,8.7-3.029-6.155,4.369-12.264,7.854-8.7" transform="translate(-1260.769 -637.511)"/><path class="v" d="M1500.371,768.694a.371.371,0,0,1-.363-.449,5.017,5.017,0,0,1,2.539-3.042,5.21,5.21,0,0,1,3.043-.918.37.37,0,1,1-.209.711,5.016,5.016,0,0,0-2.456.844,4.474,4.474,0,0,0-2.193,2.562.371.371,0,0,1-.362.292" transform="translate(-1273.479 -648.969)"/><path class="v" d="M1508.937,781.475a.371.371,0,0,1-.355-.265,1.952,1.952,0,0,0-1.8-1.319.371.371,0,1,1-.01-.741,2.707,2.707,0,0,1,2.517,1.849.371.371,0,0,1-.356.476" transform="translate(-1278.922 -661.623)"/><path class="v" d="M1308.384,865.921l.12.074a.391.391,0,0,0,.122.053l.067.024c.031.008.063.017.1.028a3.38,3.38,0,0,0,.508.1,6.9,6.9,0,0,0,.712.045,15.723,15.723,0,0,0,1.858-.088c.344-.037.7-.092,1.059-.157s.725-.141,1.087-.231.722-.191,1.075-.294.7-.218,1.026-.341.646-.243.942-.369.572-.254.824-.376.48-.242.679-.353.37-.212.512-.3.247-.155.323-.2l.114-.073.011-.007a.278.278,0,0,1,.333.444l-.107.093c-.071.059-.171.153-.306.261s-.3.239-.5.377-.423.29-.675.448-.531.316-.833.473-.621.318-.963.462a16.046,16.046,0,0,1-2.187.776,15.027,15.027,0,0,1-2.287.46,9.5,9.5,0,0,1-1.085.079,6.431,6.431,0,0,1-.99-.062,4.679,4.679,0,0,1-.841-.2,2.75,2.75,0,0,1-.629-.311c-.042-.028-.081-.056-.116-.082s-.075-.065-.108-.094a.767.767,0,0,1-.141-.148l-.081-.115a.284.284,0,0,1,.381-.4Z" transform="translate(-1110.432 -733.182)"/><path class="y" d="M1266.312,809.722a5.219,5.219,0,0,1-3.8-1.335.556.556,0,1,1,.873-.688c.546.691,2.92,1.272,4.6.632a.556.556,0,1,1,.4,1.038,5.834,5.834,0,0,1-2.065.353" transform="translate(-1071.752 -685.685)"/><path class="y" d="M1366.586,776.792a7.08,7.08,0,0,1-2.2-.348,5.667,5.667,0,0,1-2.024-1.172.556.556,0,1,1,.741-.829,4.564,4.564,0,0,0,1.628.944,6.182,6.182,0,0,0,5.092-.616c1.4-.837,3.2-2.618,3.853-6.348a.555.555,0,0,1,.286-.395,40.144,40.144,0,0,1,8.11-3.4.556.556,0,1,1,.294,1.072,38.521,38.521,0,0,0-7.644,3.18c-.768,3.961-2.766,5.9-4.326,6.839a7.419,7.419,0,0,1-3.813,1.067" transform="translate(-1156.472 -649.279)"/><path class="b" d="M1285.856,754.226a2.907,2.907,0,0,1-3.381,1.921,2.444,2.444,0,0,1-2.15-2.912,2.907,2.907,0,0,1,3.381-1.921,2.444,2.444,0,0,1,2.15,2.912" transform="translate(-1086.92 -637.942)"/><path class="l" d="M1298.449,757.539c-.25,1.089-1.025,1.87-1.731,1.744s-1.077-1.109-.827-2.2,1.025-1.869,1.731-1.744,1.077,1.109.827,2.2" transform="translate(-1100.127 -641.395)"/><path class="b" d="M1372.8,766.281a3.5,3.5,0,0,1-4.155,1.913c-1.8-.416-2.864-1.946-2.371-3.418a3.5,3.5,0,0,1,4.155-1.913c1.8.416,2.864,1.946,2.371,3.418" transform="translate(-1159.848 -647.703)"/><path class="l" d="M1385.336,770.192c-.34,1.112-1.262,1.863-2.059,1.676s-1.168-1.24-.828-2.353,1.262-1.863,2.059-1.676,1.168,1.24.828,2.353" transform="translate(-1173.573 -651.994)"/><path class="b" d="M1387.222,781.237c-.12.394-.447.66-.729.593s-.413-.439-.293-.833.447-.659.729-.593.414.439.293.833" transform="translate(-1176.827 -662.679)"/><path class="b" d="M1300.027,769.274c-.12.394-.447.659-.729.593s-.413-.439-.293-.833.447-.659.729-.593.414.439.293.833" transform="translate(-1102.8 -652.521)"/><path class="l" d="M1382.873,720.014s.029-.059.086-.156a.689.689,0,0,1,.052-.081c.032-.034.069-.071.112-.108s.089-.078.14-.118a1.593,1.593,0,0,1,.153-.09,1.57,1.57,0,0,1,.365-.149,2.34,2.34,0,0,1,.417-.074,2.891,2.891,0,0,1,.431.009,2.689,2.689,0,0,1,.425.071,3.55,3.55,0,0,1,.4.121,3.454,3.454,0,0,1,.366.167,2.821,2.821,0,0,1,.586.406,2.1,2.1,0,0,1,.349.394,1.414,1.414,0,0,1,.106.192.286.286,0,0,1-.346.385l-.076-.023s-.056-.016-.136-.05c-.048-.015-.1-.036-.162-.06s-.135-.051-.215-.078-.164-.06-.256-.09-.186-.065-.284-.1-.2-.063-.3-.1-.206-.068-.308-.092c-.052-.012-.1-.027-.153-.042l-.15-.032c-.1-.028-.192-.031-.285-.051-.086,0-.178-.021-.253-.017a1.036,1.036,0,0,0-.215.009c-.031.005-.066.007-.1.009s-.042.009-.063.012a.653.653,0,0,1-.067.006.511.511,0,0,0-.078.042c-.1.056-.157.084-.157.084a.294.294,0,0,1-.391-.4" transform="translate(-1174.016 -610.743)"/><path class="l" d="M1293.2,711.023a1.414,1.414,0,0,1,.082-.118.417.417,0,0,1,.126-.127,1.368,1.368,0,0,1,.255-.151,1.33,1.33,0,0,1,.315-.093c.058-.007.118-.015.18-.02s.121,0,.185.008a1.713,1.713,0,0,1,.37.076,2.021,2.021,0,0,1,.333.154,2.043,2.043,0,0,1,.29.2,2.461,2.461,0,0,1,.238.226,2.208,2.208,0,0,1,.326.467,1.873,1.873,0,0,1,.147.384,1.333,1.333,0,0,1,.029.165.292.292,0,0,1-.445.272l-.059-.036s-.039-.024-.094-.065l-.25-.178a6.852,6.852,0,0,0-.721-.465c-.062-.038-.121-.057-.179-.089-.056-.016-.112-.052-.162-.062a.962.962,0,0,0-.146-.047,1.207,1.207,0,0,0-.14-.03c-.045-.009-.072-.011-.112-.023s-.1.01-.139.012a1.4,1.4,0,0,1-.142.018.315.315,0,0,1-.331-.3.311.311,0,0,1,.044-.178Z" transform="translate(-1097.871 -603.339)"/><path class="z" d="M1299.6,546.2c-.334-.323-1.021-.592-1.156-.8-.417-.645.592-2.148.16-2.533-1.029-.917-2.49-.018-3.072-.437-.8-.576.63-2.4-.334-3.683-10.083,2.972-20.689.272-23.343-1.891-.1,5.175-3.042,15.789-3.546,17.1.664-4.22-2.344-8.333-1.308-10.815.334-.8,1.7-.644,1.873-1.824.185-1.234-2.514-3.526-.535-4.942a3.479,3.479,0,0,1,3.132.13c-4.411-10.128-.326-16.127,5.443-18.076,9.615-3.247,25.8,4.21,29.03,18.551-.96.555-.3,1.481-.151,1.788a8.749,8.749,0,0,1,.278,6.8c-2.034,4.374-5.425,1.911-6.471.635" transform="translate(-1075.48 -439.587)"/><path class="m" d="M1486.948,659.609c-1.06,1.469-2.716,1.23-4.557,2.172-1.682.86-3.029,4.426-3.808,3.937-.682-.429.991-4.617.253-5.308-.463-.43-1.733-.142-2.191-.572-.98-.919,1.8-3.916.946-4.962,1.195-.4,1.731,1.08,2.575.891.892-.2-.493-3.225.1-4.062.779-1.107,2.842-.265,3.611-1.123.8-.889-3.833-4.275.061-4.931a3.174,3.174,0,0,0,.969,1.791c1.3,1.023,2.149.679,2.587,2.06.65,2.05-2.645,3.266-2.247,4.746.334,1.269,2.785,3.865,1.706,5.361" transform="translate(-1253.47 -548.261)"/><path class="aa" d="M1282.083,534.466l.013-.209a1.719,1.719,0,0,1,.032-.244,3.179,3.179,0,0,1,.071-.325,3.735,3.735,0,0,1,.118-.369,4.121,4.121,0,0,1,.171-.4c.063-.137.145-.267.223-.405s.173-.266.272-.391a4.048,4.048,0,0,1,.3-.365,4.289,4.289,0,0,1,.324-.323,4.071,4.071,0,0,1,.327-.274c.107-.083.213-.155.312-.22a4.2,4.2,0,0,1,.5-.275c.126-.057.2-.084.2-.084a.189.189,0,0,1,.205.306l-.006.006s-.052.055-.145.144l-.379.37c-.074.08-.161.158-.246.249s-.177.181-.267.281c-.181.2-.369.41-.544.633-.092.108-.167.227-.253.337s-.159.225-.224.34a6.3,6.3,0,0,0-.353.632c-.05.1-.084.181-.121.259s-.067.151-.09.214l-.08.194a.188.188,0,0,1-.361-.083" transform="translate(-1088.471 -450.54)"/><path class="aa" d="M1471.8,546.582l.47.31c.149.1.328.223.532.374s.44.312.679.51l.379.3.393.34c.272.231.539.5.822.767.268.284.552.573.814.889.136.154.269.313.393.48s.259.328.378.5l.358.514c.113.175.219.353.327.528s.207.354.3.53.194.35.276.528l.249.519c.08.17.146.342.215.506.142.328.253.646.356.94s.182.567.255.808.127.454.172.629c.09.35.134.551.134.551a.186.186,0,0,1-.353.112l0-.006s-.079-.188-.206-.52c-.063-.166-.138-.368-.237-.594s-.193-.488-.322-.763-.249-.579-.4-.887l-.232-.478-.256-.491c-.083-.169-.187-.329-.28-.5s-.188-.34-.3-.5-.208-.335-.318-.5l-.337-.494c-.236-.322-.471-.645-.725-.946s-.507-.595-.757-.876-.5-.542-.759-.778l-.361-.353-.349-.319c-.222-.207-.43-.39-.616-.551s-.349-.3-.489-.416l-.43-.364a.186.186,0,0,1,.223-.3" transform="translate(-1249.294 -464.109)"/><path class="ab" d="M1541.377,665.616l-.045-.088a.414.414,0,0,1-.05-.129.725.725,0,0,1-.031-.226.92.92,0,0,1,.033-.251,1.242,1.242,0,0,1,.1-.265,2.51,2.51,0,0,1,.34-.521,11.629,11.629,0,0,1,1.007-1.03,13.211,13.211,0,0,0,1.093-1.113,4.488,4.488,0,0,0,.421-.61,2.192,2.192,0,0,0,.226-.626,1.6,1.6,0,0,0-.013-.6,1.377,1.377,0,0,0-.081-.281,1.985,1.985,0,0,0-.113-.26,1.6,1.6,0,0,0-.132-.234,2.384,2.384,0,0,0-.134-.209c-.1-.124-.171-.242-.25-.328l-.236-.281-.01-.012a.185.185,0,0,1,.256-.265l.31.241a4.08,4.08,0,0,1,.334.312,2.158,2.158,0,0,1,.188.215,2.592,2.592,0,0,1,.51.939,2.092,2.092,0,0,1,.074.866,2.556,2.556,0,0,1-.281.869,4.024,4.024,0,0,1-.505.738,7.707,7.707,0,0,1-.594.619c-.2.189-.409.367-.606.534l-.566.473c-.173.151-.341.29-.473.427-.072.067-.126.135-.188.2a2,2,0,0,0-.14.183.8.8,0,0,0-.089.164.483.483,0,0,0-.041.137.115.115,0,0,0-.007.052.311.311,0,0,1,0,.04c-.012.02.008.068.016.1l.028.1a.186.186,0,0,1-.344.137Z" transform="translate(-1308.499 -558.954)"/><path class="aa" d="M1258.511,632.089s-.193,0-.5.021a4.936,4.936,0,0,0-.56.063,2.294,2.294,0,0,0-.644.2.593.593,0,0,0-.354.467,1.68,1.68,0,0,0,.175.8,6.922,6.922,0,0,0,.482.9c.185.307.386.616.589.93s.406.635.588.984a1.586,1.586,0,0,1,.2,1.315,1.327,1.327,0,0,1-.406.552,3.719,3.719,0,0,1-.448.3,2.706,2.706,0,0,0-.645.471.873.873,0,0,0-.212.531,1.784,1.784,0,0,0,.049.516c.036.147.067.266.1.345l.04.123,0,.01a.185.185,0,0,1-.342.141l-.063-.125a2.876,2.876,0,0,1-.161-.369,2.258,2.258,0,0,1-.136-.643,1.35,1.35,0,0,1,.26-.891,2.9,2.9,0,0,1,.756-.659c.262-.178.5-.362.548-.543a.685.685,0,0,0,.018-.072c0-.023,0-.03.005-.062l0-.067v-.046c0-.006,0,.039,0,.019l0-.009a.656.656,0,0,0-.018-.08,2.351,2.351,0,0,0-.184-.425c-.162-.3-.365-.61-.561-.926a11.625,11.625,0,0,1-1.09-1.977,2.218,2.218,0,0,1-.163-1.162,1.114,1.114,0,0,1,.28-.565,1.343,1.343,0,0,1,.457-.314,2.535,2.535,0,0,1,.831-.18,5.345,5.345,0,0,1,.617,0c.169.007.3.023.389.033l.134.015h0a.185.185,0,0,1-.021.37" transform="translate(-1066.154 -536.383)"/><path class="ac" d="M1317.6,537.169l-.395.021c-.244.015-.6.034-1.014.089a11.6,11.6,0,0,0-1.4.244c-.248.068-.506.132-.754.228a5.071,5.071,0,0,0-.721.326,2.3,2.3,0,0,0-1,1,1.515,1.515,0,0,0-.137.611,2.063,2.063,0,0,0,.062.6,1.926,1.926,0,0,0,.074.27,2.5,2.5,0,0,0,.087.243c.055.155.123.283.17.394l.171.342.005.01a.186.186,0,0,1-.308.2l-.069-.081c-.045-.054-.114-.129-.192-.235a4.034,4.034,0,0,1-.263-.4,2.03,2.03,0,0,1-.14-.264,2.449,2.449,0,0,1-.13-.31,2.6,2.6,0,0,1-.153-.767,2.167,2.167,0,0,1,.153-.9,2.446,2.446,0,0,1,.546-.8,3.594,3.594,0,0,1,.771-.557,4.707,4.707,0,0,1,.844-.356,6.7,6.7,0,0,1,.842-.214c.275-.048.542-.087.794-.109s.492-.033.712-.038c.44-.006.805.02,1.063.036l.393.042a.186.186,0,0,1-.01.37" transform="translate(-1113.44 -455.761)"/><path class="ac" d="M1434.487,571.876l-.2.042c-.123.029-.3.071-.525.14a3.455,3.455,0,0,0-.749.321,1.385,1.385,0,0,0-.622.677,1.712,1.712,0,0,0,.054,1.109,8.2,8.2,0,0,0,.58,1.31c.118.229.241.465.36.718a2.855,2.855,0,0,1,.291.889,1.136,1.136,0,0,1,0,.156.7.7,0,0,1-.01.086l0,.022,0,.011c0-.018-.009.038-.008.034l0,.013-.011.033a.533.533,0,0,1-.073.138.684.684,0,0,1-.069.082.937.937,0,0,1-.126.107,2.427,2.427,0,0,1-.431.234c-.272.119-.536.214-.8.31-.522.19-1.036.374-1.515.59a3.834,3.834,0,0,0-1.218.787.869.869,0,0,0-.166,1.038,3.243,3.243,0,0,0,.754.957,11.422,11.422,0,0,0,1.559,1.192c.4.264.637.408.637.408a.185.185,0,0,1-.176.326l0,0s-.252-.122-.682-.36c-.214-.121-.472-.271-.763-.458a8.952,8.952,0,0,1-.945-.687,3.781,3.781,0,0,1-.935-1.111,1.5,1.5,0,0,1,.212-1.742,4.284,4.284,0,0,1,1.425-.99c.512-.246,1.043-.441,1.563-.633.258-.1.516-.192.75-.3a1.8,1.8,0,0,0,.3-.159.19.19,0,0,0,.031-.026s0,0,0,0a.162.162,0,0,0-.023.048l0,.014v0l0-.012c0-.008-.011.044-.005.021v-.005a.084.084,0,0,0,0-.015.358.358,0,0,0,0-.048,2.3,2.3,0,0,0-.218-.643c-.106-.232-.227-.466-.342-.7a8.4,8.4,0,0,1-.586-1.447,2.329,2.329,0,0,1,.038-1.525,1.867,1.867,0,0,1,.929-.917,3.932,3.932,0,0,1,.888-.291,5.176,5.176,0,0,1,.578-.091l.2-.018a.185.185,0,0,1,.056.366" transform="translate(-1212.786 -485.303)"/><path class="ac" d="M1372.068,563.81l-.306,0c-.2-.006-.5-.012-.877-.044a13.447,13.447,0,0,1-3.073-.621,11.772,11.772,0,0,1-1.933-.847,9.651,9.651,0,0,1-1.928-1.385,6.512,6.512,0,0,1-.844-.96,3.642,3.642,0,0,1-.6-1.234,1.439,1.439,0,0,1,.436-1.489,3.443,3.443,0,0,1,1.237-.694,20.261,20.261,0,0,1,2.514-.609,12.917,12.917,0,0,0,2.3-.618,3.077,3.077,0,0,0,.892-.535,1.573,1.573,0,0,0,.289-.356l.026-.049.013-.024c0,.009.013-.028-.008.018l0-.008.007-.016.012-.032a.016.016,0,0,0-.005.008c0,.011,0,0,0,0a.331.331,0,0,0-.024-.13,1.64,1.64,0,0,0-.217-.383c-.094-.13-.2-.26-.305-.386-.215-.252-.442-.491-.659-.723a13.793,13.793,0,0,1-1.167-1.343,2.863,2.863,0,0,1-.376-.7,1.062,1.062,0,0,1,0-.777,1.05,1.05,0,0,1,.424-.454,1.975,1.975,0,0,1,.373-.169c.1-.034.18-.056.233-.068l.08-.02a.185.185,0,0,1,.108.354l-.009,0-.07.025c-.046.015-.113.042-.2.078a.953.953,0,0,0-.512.432c-.092.21.079.6.389.972a13.255,13.255,0,0,0,1.168,1.234c.228.224.469.457.711.718a5.039,5.039,0,0,1,.359.424,2.273,2.273,0,0,1,.319.551,1.021,1.021,0,0,1,.071.409.691.691,0,0,1-.018.134c-.006.026-.013.051-.02.076l-.012.033-.006.016,0,.008a.3.3,0,0,1-.015.034l-.019.038-.039.076a2.275,2.275,0,0,1-.417.531,3.65,3.65,0,0,1-1.1.683,13.523,13.523,0,0,1-2.436.671,20.155,20.155,0,0,0-2.419.574,2.772,2.772,0,0,0-.977.529,1.125,1.125,0,0,0-.155.18.729.729,0,0,0-.056.1l-.018.035,0,.009c.011-.024,0,0,0-.008l0,.01a.2.2,0,0,0-.015.041.914.914,0,0,0,0,.443,2.985,2.985,0,0,0,.474.993,6.275,6.275,0,0,0,.743.872,8.989,8.989,0,0,0,1.763,1.336,11.166,11.166,0,0,0,1.814.852,13.279,13.279,0,0,0,2.933.719c.364.047.651.073.845.089l.305.021a.185.185,0,0,1-.014.37" transform="translate(-1156.708 -466.311)"/><path class="ac" d="M1307.443,603.018l-.176.063c-.113.042-.288.1-.485.184a5.684,5.684,0,0,0-.707.337l-.2.116-.2.138a1.633,1.633,0,0,0-.194.154,1.225,1.225,0,0,0-.181.174l-.086.094c-.027.032-.046.068-.07.1s-.049.068-.067.1l-.047.111-.025.055-.011.057-.027.115a.976.976,0,0,0,.012.238,1.274,1.274,0,0,0,.208.49c.066.077.12.161.192.238s.145.156.231.227a5.889,5.889,0,0,0,1.169.78,11.811,11.811,0,0,0,1.366.615c.235.094.473.182.714.262s.48.159.72.233c.48.147.957.283,1.423.4s.919.224,1.349.322.84.182,1.22.253c.758.149,1.392.269,1.839.34l.7.123h0a.185.185,0,0,1-.046.367l-.714-.053c-.227-.018-.5-.044-.818-.079s-.673-.069-1.06-.127-.807-.117-1.25-.194-.909-.163-1.387-.278-.973-.23-1.47-.377c-.248-.074-.5-.148-.747-.235s-.5-.171-.746-.267a11.839,11.839,0,0,1-1.446-.664,6.044,6.044,0,0,1-1.3-.907c-.1-.087-.185-.192-.276-.286s-.164-.215-.242-.321a1.925,1.925,0,0,1-.284-.774,1.6,1.6,0,0,1,0-.417c.015-.067.034-.132.052-.2l.028-.1.042-.087.087-.17c.032-.053.071-.1.106-.147s.07-.1.109-.138l.12-.118a3.356,3.356,0,0,1,.958-.626,6.138,6.138,0,0,1,.8-.3c.226-.077.4-.108.516-.139l.182-.044a.186.186,0,0,1,.107.355" transform="translate(-1107.353 -511.753)"/><path class="ab" d="M1346.875,754.506a7.055,7.055,0,0,1-2.193-.35,7.438,7.438,0,0,1-4.578-9.459,7.68,7.68,0,0,1,3.687-4.425,7.112,7.112,0,0,1,5.6-.514,7.439,7.439,0,0,1,4.578,9.459,7.681,7.681,0,0,1-3.687,4.425,7.218,7.218,0,0,1-3.4.864m.321-14.358a6.482,6.482,0,0,0-3.056.776,6.945,6.945,0,0,0-3.331,4,6.7,6.7,0,0,0,4.1,8.525,6.376,6.376,0,0,0,5.017-.464,6.943,6.943,0,0,0,3.331-4,6.7,6.7,0,0,0-4.1-8.525,6.315,6.315,0,0,0-1.961-.313" transform="translate(-1137.4 -627.874)"/><path class="ab" d="M1432.05,753.564a.37.37,0,0,1-.155-.707c5.833-2.671,12.726-5.5,14.559-5.424a.37.37,0,1,1-.03.74c-1.377-.05-7.1,2.1-14.22,5.357a.37.37,0,0,1-.154.034" transform="translate(-1215.477 -634.688)"/><path class="ab" d="M1248.831,736.345a5.058,5.058,0,0,1-1.574-.25c-3.131-1.021-4.675-4.922-3.442-8.7s4.784-6.014,7.916-4.993,4.675,4.922,3.442,8.7a7.98,7.98,0,0,1-3.213,4.279,5.814,5.814,0,0,1-3.129.964m1.334-13.446c-2.357,0-4.715,1.885-5.645,4.73-1.106,3.386.225,6.867,2.967,7.762a4.754,4.754,0,0,0,4.073-.633,7.239,7.239,0,0,0,2.908-3.885c1.106-3.386-.225-6.867-2.968-7.762a4.305,4.305,0,0,0-1.335-.211" transform="translate(-1055.622 -613.229)"/><path class="v" d="M1290.98,764.027l-.063.219c-.044.145-.1.355-.19.62s-.2.584-.331.949-.3.77-.5,1.2-.419.9-.685,1.383-.586.967-.908,1.46-.67,1-1.028,1.518-.734,1.026-1.115,1.528a15.213,15.213,0,0,0-1.034,1.456,1.682,1.682,0,0,0-.217.645,1.6,1.6,0,0,0,.009.327l.014.087,0,.022,0,.011v.005c0,.006-.008-.037,0-.016l.012.054a.208.208,0,0,0,.009.03.285.285,0,0,0,.016.037.614.614,0,0,0,.364.255,2.822,2.822,0,0,0,.666.123,7.155,7.155,0,0,0,1.4-.068,11.294,11.294,0,0,0,2.114-.509,5.864,5.864,0,0,0,.755-.313.279.279,0,0,1,.309.461l0,0s-.066.054-.193.146a5.262,5.262,0,0,1-.574.355,8.741,8.741,0,0,1-2.232.816,6.69,6.69,0,0,1-1.626.175,3.319,3.319,0,0,1-.967-.152,2.051,2.051,0,0,1-.526-.257,1.5,1.5,0,0,1-.462-.507,1.4,1.4,0,0,1-.077-.164,1.566,1.566,0,0,1-.058-.182l-.013-.054-.007-.037,0-.017-.005-.033-.019-.134a2.719,2.719,0,0,1,0-.573,2.5,2.5,0,0,1,.389-1.073,6.009,6.009,0,0,1,.61-.8c.211-.244.426-.475.64-.7.427-.459.847-.917,1.247-1.381s.777-.937,1.12-1.407a16.737,16.737,0,0,0,.937-1.387c.269-.456.5-.9.7-1.322a14.648,14.648,0,0,0,.777-2.1c.073-.26.127-.466.156-.606l.047-.218v0a.278.278,0,0,1,.544.118l0,.018" transform="translate(-1089.932 -648.479)"/><path class="ab" d="M1323.547,753.376a.371.371,0,0,1-.366-.314,2.239,2.239,0,0,0-1.529-1.63,1.783,1.783,0,0,0-1.888.754.371.371,0,1,1-.572-.472,2.474,2.474,0,0,1,2.657-1,3,3,0,0,1,2.065,2.231.37.37,0,0,1-.31.423.36.36,0,0,1-.057,0" transform="translate(-1119.904 -637.408)"/><path class="b" d="M1293.317,737.123a.371.371,0,0,1-.3-.153,3.6,3.6,0,0,0-1.717-1.3.37.37,0,1,1,.248-.7,4.342,4.342,0,0,1,2.07,1.567.37.37,0,0,1-.3.587" transform="translate(-1096.086 -624.087)"/><path class="b" d="M1279.985,734.738a.37.37,0,0,1-.14-.714,1.655,1.655,0,0,1,.2-.063c.035-.009.071-.018.105-.03a.37.37,0,1,1,.244.7c-.054.019-.108.033-.161.047a.91.91,0,0,0-.11.033.369.369,0,0,1-.14.027" transform="translate(-1086.375 -623.207)"/><path class="b" d="M1418,772.289a.371.371,0,0,1-.363-.3,4.966,4.966,0,0,0-.385-1.174.371.371,0,0,1,.67-.319,5.705,5.705,0,0,1,.443,1.349.37.37,0,0,1-.292.435.364.364,0,0,1-.072.007" transform="translate(-1203.199 -654.096)"/><path class="b" d="M1397.212,753.809a.37.37,0,0,1-.276-.122,5.471,5.471,0,0,0-2.506-1.536.37.37,0,1,1,.209-.711,6.165,6.165,0,0,1,2.848,1.751.37.37,0,0,1-.275.618" transform="translate(-1183.626 -638.079)"/><path class="b" d="M1378.459,750.981a.37.37,0,0,1-.113-.723,2.446,2.446,0,0,1,.258-.063c.054-.011.109-.022.163-.037a.37.37,0,1,1,.2.715c-.07.019-.141.034-.21.048a1.634,1.634,0,0,0-.179.042.372.372,0,0,1-.114.018" transform="translate(-1169.978 -636.993)"/><path class="w" d="M1167.465,1482.422a36.881,36.881,0,0,1-12.254-2.234,62.778,62.778,0,0,1-16.054-8.794,104.564,104.564,0,0,1-22.085-22.381c-.921-1.308,2.489-10.742,2.634-11.143,1.3-3.592,4.62-12.021,7.247-12.725,3.741-1,13.638,6.234,21.589,12.049.751.55,1.476,1.079,2.163,1.578a.449.449,0,1,1-.528.726c-.688-.5-1.413-1.03-2.166-1.58-6.969-5.1-17.5-12.8-20.825-11.906-.393.106-1.522.78-3.517,4.761-3.424,6.834-6.234,16.683-5.85,17.738a103.6,103.6,0,0,0,21.871,22.159c11.64,8.549,22.967,12.153,32.756,10.424,13.719-2.424,23.487-15.143,28.089-22.509,7.114-11.388,10.287-22.887,9.744-28.361a.45.45,0,0,1,.895-.088c.65,6.559-3.5,18.723-9.876,28.925-4.681,7.493-14.633,20.434-28.7,22.918a29.491,29.491,0,0,1-5.137.444" transform="translate(-948.246 -1210.096)"/><path class="w" d="M1475.324,1329.659a.45.45,0,0,1-.415-.62c1.883-4.558,3.419-9.005,4.54-12.253.682-1.975,1.174-3.4,1.494-4.126a.45.45,0,0,1,.823.362c-.3.689-.817,2.175-1.467,4.057-1.125,3.258-2.665,7.72-4.558,12.3a.449.449,0,0,1-.416.278" transform="translate(-1252.149 -1114.43)"/><path class="w" d="M1376.776,1567.411a.927.927,0,0,1-.19-.02c-.944-.2-1.995-1.927-3.631-4.736-1.25-2.146-3.343-5.738-4.218-5.4-.74.289-.516,1.237.17,3.328.589,1.795,1.321,4.028.868,6.166a.45.45,0,0,1-.88-.186c.4-1.9-.258-3.919-.843-5.7-.643-1.962-1.251-3.814.357-4.444s3.322,2.344,5.323,5.781c.984,1.689,2.466,4.234,3.028,4.308a1.422,1.422,0,0,0,.375-1.1c.051-2.2-1.885-6.176-5.1-8.777a.449.449,0,1,1,.566-.7c3.475,2.809,5.492,7.034,5.435,9.5a2.148,2.148,0,0,1-.751,1.807.844.844,0,0,1-.506.168" transform="translate(-1160.891 -1321.157)"/><path class="w" d="M1523.271,1161.57a.449.449,0,0,1-.411-.631q.3-.677.608-1.355a.449.449,0,0,1,.819.371q-.305.674-.6,1.349a.45.45,0,0,1-.411.267m2.178-4.712a.449.449,0,0,1-.4-.644q.324-.672.655-1.337a.45.45,0,0,1,.805.4q-.329.66-.651,1.327a.45.45,0,0,1-.405.254m2.358-4.624a.45.45,0,0,1-.4-.663q.357-.66.719-1.305a.45.45,0,0,1,.785.439q-.359.638-.712,1.292a.45.45,0,0,1-.4.236m2.608-4.487a.449.449,0,0,1-.38-.688c.271-.43.544-.852.813-1.254a.449.449,0,0,1,.748.5c-.264.4-.533.812-.8,1.235a.45.45,0,0,1-.381.21m2.985-4.243a.449.449,0,0,1-.351-.729c.323-.4.649-.792.967-1.153a.449.449,0,1,1,.674.594c-.309.35-.625.727-.939,1.119a.45.45,0,0,1-.352.169m3.626-3.7a.449.449,0,0,1-.276-.8,12.622,12.622,0,0,1,1.265-.871.449.449,0,1,1,.462.771,11.79,11.79,0,0,0-1.175.809.448.448,0,0,1-.276.095m5.176-1.925h-.034c-.121-.009-.242-.013-.364-.013h-.071a.449.449,0,0,1-.006-.9h.077c.144,0,.289.005.431.016a.449.449,0,0,1-.033.9" transform="translate(-1292.855 -965.468)"/><path class="x" d="M1072.021,1051.207s.174-.294.489-.8c.153-.254.362-.556.595-.906s.509-.733.815-1.148.659-.848,1.027-1.311c.384-.449.783-.93,1.228-1.4s.907-.948,1.387-1.426c.5-.461.989-.942,1.517-1.384.515-.457,1.057-.881,1.581-1.31.543-.4,1.067-.816,1.6-1.18.263-.185.521-.369.779-.541l.76-.5c.488-.331.976-.6,1.413-.874s.857-.487,1.22-.694.687-.372.952-.511l.838-.428a.225.225,0,0,1,.223.389l-.006,0-.791.5c-.253.156-.561.342-.905.571s-.739.475-1.159.761-.881.586-1.352.927l-.73.516-.749.557c-.515.37-1.019.785-1.544,1.193-.51.425-1.039.843-1.54,1.3s-1,.9-1.491,1.349c-.471.467-.946.914-1.381,1.373s-.849.907-1.246,1.329l-.554.636c-.18.205-.355.4-.513.6-.321.391-.622.746-.872,1.07s-.48.6-.654.843c-.355.479-.564.749-.564.749a.225.225,0,0,1-.372-.252" transform="translate(-910.105 -880.388)"/><path class="x" d="M1069.89,1039.186l.268-.478c.083-.151.2-.333.334-.542s.29-.437.465-.684.378-.505.591-.78.453-.552.712-.828.528-.562.81-.843.579-.556.89-.814.622-.516.93-.766c.321-.235.63-.474.943-.685s.617-.414.909-.6.578-.344.836-.5.508-.275.722-.392.408-.207.566-.284l.5-.234a.225.225,0,0,1,.222.39l-.005,0-.451.3c-.144.095-.319.211-.517.347l-.665.455c-.24.171-.5.351-.775.551s-.558.409-.849.632-.587.46-.888.7-.6.49-.889.752-.58.52-.863.78-.549.527-.8.789-.5.52-.73.76-.44.482-.631.705-.37.425-.518.609-.287.339-.394.478l-.346.425a.225.225,0,0,1-.372-.252" transform="translate(-908.298 -875.261)"/><path class="b" d="M1370.758,968.463l-25.969,16.574,4.54,7.608,24.62-18.292Z" transform="translate(-1141.708 -822.379)"/><path class="b" d="M1299.6,972.849l-4.4,5.531-1.5,15.322,7.717-4.941Z" transform="translate(-1098.326 -826.104)"/><path class="w" d="M1291.164,1083.743a.449.449,0,0,1-.243-.827l7.012-4.49a.449.449,0,1,1,.485.756l-7.012,4.49a.445.445,0,0,1-.242.071" transform="translate(-1095.799 -915.696)"/><path class="w" d="M1352.966,1094.217a.452.452,0,0,1-.386-.219l-3.443-5.771a.449.449,0,0,1,.772-.46l3.189,5.344,3.615-2.686a.449.449,0,1,1,.536.721l-4.014,2.983a.451.451,0,0,1-.268.089" transform="translate(-1145.345 -923.502)"/><path class="w" d="M1416.324,1035.364a.449.449,0,0,1-.269-.809l14.014-10.412a.449.449,0,1,1,.536.721l-14.013,10.411a.448.448,0,0,1-.268.089" transform="translate(-1202.059 -869.585)"/><path class="w" d="M1529.446,1006.1a.449.449,0,0,1-.269-.809l.892-.663a.449.449,0,1,1,.537.72l-.893.663a.447.447,0,0,1-.268.089" transform="translate(-1298.097 -853.015)"/><path class="w" d="M1394.247,981.392a.37.37,0,0,1-.2-.683l17.34-11.067a.371.371,0,1,1,.4.625l-17.34,11.067a.37.37,0,0,1-.2.058" transform="translate(-1183.382 -823.332)"/><path class="w" d="M1341.221,1063.6a.371.371,0,0,1-.368-.329l-.089-.782a.371.371,0,0,1,.737-.084l.089.782a.371.371,0,0,1-.327.41l-.042,0" transform="translate(-1138.289 -901.876)"/><path class="w" d="M1333.209,987.65a.371.371,0,0,1-.368-.333l-1.094-10.584a.371.371,0,0,1,.738-.076l1.094,10.584a.37.37,0,0,1-.331.406l-.039,0" transform="translate(-1130.634 -829.055)"/><path class="w" d="M1293.245,1024.4l-.038,0a.37.37,0,0,1-.332-.406l1.229-12.127a.371.371,0,0,1,.738.075l-1.229,12.127a.37.37,0,0,1-.368.333" transform="translate(-1097.632 -858.951)"/><path class="f" d="M1352.94,1435.242c2.567-1.8,6.021-4.857,10.079-4.423s9.551,5.847,9.256,7.463-8.569-3.515-9.609-2.872c-.373.23,1.234,1.3,2.286,3.136,1.885,3.3,3.79,8.271,2.124,9.552-2.6,1.995-12.749-3.123-13.486-2.372-.834.851-3.3,2.4-5.418,1.763-1.7-.508-5.044-3.031-5.044-3.031s7.247-7.42,9.813-9.216" transform="translate(-1140.297 -1214.958)"/><path class="g" d="M1435.867,1501.626s.14,0,.381.016a3.063,3.063,0,0,1,.453.058l.289.052c.1.022.2.052.3.08a6.079,6.079,0,0,1,.673.218c.235.089.475.2.719.321a8.115,8.115,0,0,1,.726.418c.245.148.472.323.7.494s.447.359.651.552.4.386.586.575.351.385.5.574.292.368.413.541.232.329.323.473.17.27.231.377c.122.212.185.338.185.338a.38.38,0,0,1-.568.474l-.007-.005s-.111-.083-.293-.236-.44-.372-.739-.636c-.606-.525-1.384-1.226-2.193-1.857-.1-.081-.2-.154-.305-.232s-.2-.155-.305-.225-.2-.148-.3-.216-.2-.134-.3-.2c-.2-.126-.393-.252-.582-.361s-.365-.219-.536-.3c-.084-.045-.167-.085-.243-.13l-.216-.105c-.134-.066-.255-.132-.372-.176-.222-.1-.347-.157-.347-.157a.38.38,0,0,1,.172-.721" transform="translate(-1218.707 -1275.12)"/><path class="g" d="M1445.165,1467.438s.165.024.448.079a1.433,1.433,0,0,1,.245.068c.093.029.193.066.3.105a5.346,5.346,0,0,1,.669.3c.239.116.474.269.731.427.237.176.509.344.749.558s.5.42.742.66.471.489.7.741c.217.264.441.523.634.8s.386.545.55.822.311.553.447.814.24.526.334.769a6.924,6.924,0,0,1,.216.684c.049.212.094.391.113.548.035.315.044.492.044.492a.372.372,0,0,1-.705.182l-.024-.049s-.07-.141-.17-.38c-.051-.12-.14-.263-.218-.428a2.69,2.69,0,0,0-.147-.258l-.164-.285-.4-.628c-.157-.217-.309-.451-.488-.682l-.264-.356-.282-.358c-.188-.241-.393-.476-.592-.716s-.408-.471-.622-.688l-.31-.332-.314-.311c-.206-.206-.415-.386-.608-.571-.206-.159-.388-.337-.571-.471s-.351-.279-.492-.362c-.072-.048-.14-.092-.2-.137a1,1,0,0,0-.189-.117c-.256-.133-.4-.217-.4-.217h0a.377.377,0,0,1,.245-.7" transform="translate(-1226.559 -1246.086)"/><path class="w" d="M1343.862,1313.959c3.246,2.6,10.568-7.746,6.384-10.659s-9.994,7.766-6.384,10.659" transform="translate(-1139.96 -1106.287)"/><path class="ad" d="M1342.463,1312.861a2.8,2.8,0,0,1-1.47-.411,3.358,3.358,0,0,1-1.432-3.248c.127-3.037,2.461-6.9,4.9-8.109a3.078,3.078,0,0,1,3.284.134c2.365,1.646,1.573,5.271-.163,7.942-1.283,1.974-3.262,3.692-5.118,3.692m-1.121-.987c1.733,1.045,4.166-.754,5.674-3.071,1.566-2.408,2.341-5.632.343-7.023a2.411,2.411,0,0,0-2.6-.083c-2.21,1.094-4.408,4.755-4.524,7.534a2.8,2.8,0,0,0,1.107,2.643" transform="translate(-1137.266 -1104.49)"/><path class="ad" d="M1354.03,1315.852c-1.409-1-5.559,3.81-3.514,5.861s5.648-4.508,3.514-5.861" transform="translate(-1146.098 -1117.254)"/><path class="b" d="M1349.216,1320.678a1.859,1.859,0,0,1-1.2-.456c-1.03-.854-.993-2.528.095-4.266.938-1.5,2.536-2.721,3.774-2.161l.054.031a2.483,2.483,0,0,1,.884,2.454,5.543,5.543,0,0,1-2.824,4.239,2.09,2.09,0,0,1-.779.159m2-6.349c-.819,0-1.874.924-2.539,1.985-.682,1.089-1.153,2.63-.236,3.39a1.193,1.193,0,0,0,1.3.19,4.964,4.964,0,0,0,2.406-3.691,1.9,1.9,0,0,0-.574-1.806.934.934,0,0,0-.357-.068" transform="translate(-1143.81 -1115.504)"/><path class="ad" d="M1366.26,1023.828a.562.562,0,0,1-.512-.792c2.916-6.469,8.77-13.465,14.431-20.231,5.939-7.1,12.08-14.437,14.745-21.077a10.613,10.613,0,0,0-.434-8.9,4.138,4.138,0,0,0-2.665-2.251.561.561,0,1,1,.174-1.109,5.147,5.147,0,0,1,3.468,2.8,11.79,11.79,0,0,1,.5,9.868c-2.732,6.806-8.931,14.215-14.926,21.38-5.613,6.708-11.416,13.644-14.269,19.972a.562.562,0,0,1-.513.331" transform="translate(-1159.459 -823.232)"/><path class="w" d="M1189.927,1209.26a.494.494,0,0,1-.488-.418,9.5,9.5,0,0,0-7.6-7.932,8.8,8.8,0,0,0-9.409,3.52.494.494,0,0,1-.833-.533,9.782,9.782,0,0,1,10.446-3.955,10.469,10.469,0,0,1,8.373,8.747.494.494,0,0,1-.412.564.512.512,0,0,1-.077.006" transform="translate(-994.604 -1018.733)"/><path class="ad" d="M1169.355,1186.009a.562.562,0,0,1-.421-.933c4.907-5.562,7.082-17.2,4.655-24.9-.731-2.322-2.229-5.24-5.209-5.964-2.13-.517-4.254.314-6.314,2.471-5.33,5.58-8.388,18.445-6.175,25.973a.562.562,0,0,1-1.078.316c-2.348-7.987.782-21.139,6.441-27.064,2.324-2.434,4.881-3.4,7.393-2.787,2.761.671,4.842,2.994,6.015,6.718,2.529,8.025.247,20.166-4.884,25.981a.562.562,0,0,1-.422.19" transform="translate(-979.752 -979.031)"/><path class="w" d="M1153.543,1332.312c-1.466.236-.933,5.111,1.127,4.786s.918-5.115-1.127-4.786" transform="translate(-978.637 -1131.332)"/><path class="ad" d="M1162.065,1358.143c-.4-.3,1.053-.775,1.067-.447s-.761.678-1.067.447" transform="translate(-986.517 -1152.806)"/><path class="w" d="M1245.657,1353.411c-1.045-1.053-4.7,2.215-3.241,3.7s4.7-2.229,3.241-3.7" transform="translate(-1054.505 -1149.087)"/><path class="ad" d="M1244.771,1373.976c.013-.506,1.244.405.985.607s-.995-.224-.985-.607" transform="translate(-1056.793 -1166.597)"/><path class="ad" d="M1252.716,1052.29a.561.561,0,0,1-.535-.733c1.574-4.883,4.1-11.3,5.915-13.833a.562.562,0,0,1,.914.653c-1.671,2.332-4.162,8.568-5.759,13.524a.562.562,0,0,1-.535.389" transform="translate(-1063.062 -880.993)"/><path class="w" d="M1231.791,1125.067c-1.291-.279-1.44,2.678-2.008,3.3-.746.818-2.743.73-2.49,2.224.165.975,2.422-.092,3.246.247s2.191,1.6,2.877.887c.717-.746-1.206-2.416-1.335-2.978s1.177-3.365-.29-3.682" transform="translate(-1041.937 -955.346)"/><path class="x" d="M1199.537,1280.741l-9.7-1.91.943-4.89,9.7,1.91Z" transform="translate(-1010.159 -1081.779)"/><path class="ae" d="M396.3,679.459a.562.562,0,0,1-.562-.561v-6.645a.562.562,0,0,1,1.124,0V678.9a.562.562,0,0,1-.562.561" transform="translate(-335.977 -570.373)"/><path class="ae" d="M380.927,694.839h-6.653a.561.561,0,1,1,0-1.123h6.653a.561.561,0,1,1,0,1.123" transform="translate(-317.277 -589.076)"/><path class="b" d="M1766.658,950.482a.562.562,0,0,1-.562-.561v-6.645a.562.562,0,0,1,1.124,0v6.645a.561.561,0,0,1-.562.561" transform="translate(-1499.392 -800.514)"/><path class="b" d="M1751.285,965.865h-6.653a.561.561,0,1,1,0-1.123h6.653a.561.561,0,1,1,0,1.123" transform="translate(-1480.693 -819.22)"/><path class="ae" d="M1898.172,291.093a.561.561,0,0,1-.4-.958l4.7-4.7a.561.561,0,1,1,.794.794l-4.7,4.7a.561.561,0,0,1-.4.164" transform="translate(-1611.046 -242.241)"/><path class="ae" d="M1902.876,291.093a.561.561,0,0,1-.4-.164l-4.7-4.7a.561.561,0,1,1,.794-.794l4.7,4.7a.561.561,0,0,1-.4.958" transform="translate(-1611.046 -242.241)"/><path class="ae" d="M2574.025,421.734a3.808,3.808,0,1,1,3.812-3.808,3.814,3.814,0,0,1-3.812,3.808m0-6.492a2.685,2.685,0,1,0,2.688,2.685,2.69,2.69,0,0,0-2.688-2.685" transform="translate(-2182.076 -351.653)"/><path class="ae" d="M566.155,288.443H560.3a.561.561,0,0,1-.562-.561v-5.843a.562.562,0,0,1,.562-.561h5.85a.562.562,0,0,1,.562.561v5.843a.561.561,0,0,1-.562.561m-5.288-1.123h4.726V282.6h-4.726Z" transform="translate(-475.214 -239.019)"/><path class="b" d="M1033.873,872.935h-5.85a.561.561,0,0,1-.562-.561V866.53a.561.561,0,0,1,.562-.561h5.85a.561.561,0,0,1,.562.561v5.843a.562.562,0,0,1-.562.561m-5.288-1.122h4.726v-4.721h-4.726Z" transform="translate(-872.301 -735.346)"/><path class="b" d="M1671.675,576.029a.562.562,0,0,1-.4-.165l-4.137-4.132a.561.561,0,0,1,0-.794l4.137-4.132a.562.562,0,0,1,.795,0l4.136,4.132a.56.56,0,0,1,0,.794l-4.136,4.132a.561.561,0,0,1-.4.165m-3.342-4.693,3.342,3.338,3.342-3.338L1671.675,568Z" transform="translate(-1415.241 -481.17)"/><path class="ae" d="M2513.772,815.755h-6.5a.561.561,0,0,1-.487-.842l3.25-5.623a.562.562,0,0,1,.973,0l3.25,5.623a.561.561,0,0,1-.486.842m-5.527-1.123h4.553l-2.277-3.939Z" transform="translate(-2128.163 -686.979)"/><path class="b" d="M2712.2,1196.466h-6.5a.561.561,0,0,1-.487-.842l3.25-5.622a.563.563,0,0,1,.974,0l3.25,5.622a.561.561,0,0,1-.487.842m-5.527-1.122h4.554l-2.277-3.939Z" transform="translate(-2296.626 -1010.263)"/><path class="x" d="M1046.875,1994.1H751.836a.561.561,0,1,1,0-1.123h295.039a.561.561,0,1,1,0,1.123" transform="translate(-637.822 -1692.357)"/><path class="x" d="M253.5,1994.1H236.947a.561.561,0,1,1,0-1.123H253.5a.561.561,0,1,1,0,1.123" transform="translate(-200.688 -1692.357)"/><path class="af" d="M875.256,300.217A24.745,24.745,0,1,1,850.511,275.5a24.731,24.731,0,0,1,24.745,24.717" transform="translate(-701.064 -233.943)"/><path class="e" d="M846.72,321.816a25.39,25.39,0,1,1,25.419-25.39,25.434,25.434,0,0,1-25.419,25.39m0-49.434a24.043,24.043,0,1,0,24.071,24.043,24.084,24.084,0,0,0-24.071-24.043" transform="translate(-697.274 -230.152)"/><path class="e" d="M991.78,351.235a.674.674,0,0,1-.576-.323l-5.942-9.729a.674.674,0,0,1-.033-.641l8.047-16.828a.674.674,0,0,1,1.217.581l-7.89,16.5,5.751,9.417a.674.674,0,0,1-.575,1.024" transform="translate(-836.39 -274.559)"/></g></g></svg>