<svg width="24px" height="14px" viewBox="0 0 24 14" version="1.1"><g id="Page-1" stroke="none" stroke-width="1" fill="none" fill-rule="evenodd"><g id="Hamburger-(1)" fill="#0b4a72" fill-rule="nonzero"><g id="hamburger-top" transform="translate(0.000000, 0.500000)"><path d="M1.76528594,2.45737514 C1.16885044,2.47118178 0.693838882,2.57447594 0.121607506,2.3983986 C0.0162868408,2.02221014 -0.0836369578,1.5940337 0.109996066,1.25858336 C0.223820884,1.06119948 0.421051819,0.934212434 0.616320256,0.826486514 C1.07897889,0.571319262 1.54621669,0.37495809 2.06791377,0.340015347 C2.52435783,0.309504366 2.97802169,0.239618879 3.43381158,0.196153516 C3.69972991,0.17092656 3.96842844,0.14399508 4.23401968,0.157290367 C4.48701823,0.16956294 8.45504058,-0.0158892775 8.58514675,0.0454735887 C8.88786189,0.0214397995 9.04998698,0.0113831075 9.30265845,0.00865586901 C9.80947326,0.00320139201 10.3189047,-0.0158892775 10.8224487,0.0294510626 C11.2757855,0.0700187352 11.7265056,0.110927313 12.1816413,0.103086502 C12.6668687,0.0949047865 13.1525867,0.0979729298 13.6381411,0.0879162379 C14.1477361,0.0773481887 14.6573311,0.0427463502 15.1669262,0.0454735887 C15.6879691,0.0483712796 16.209012,0.092177548 16.7302184,0.101722883 C16.9959732,0.106836455 17.2625457,0.0642233534 17.528464,0.0662687823 C17.7109763,0.0679733064 17.8925072,0.119790838 18.0753465,0.130017982 C18.2094505,0.137517888 18.3453534,0.115359075 18.480275,0.103597859 C18.5188708,0.100188811 18.5571395,0.0759845694 18.594754,0.0780299983 C19.2634748,0.115359075 19.9325227,0.147404128 20.6004258,0.197517135 C21.3062705,0.250357381 22.0426975,0.146722318 22.7356224,0.245243809 C23.1413686,0.303027174 23.547769,0.494786131 23.780979,0.845577183 C23.9464829,1.0944377 24.0621067,1.53113676 23.9638183,1.83130345 C23.8511383,2.17391278 23.5379565,2.23135525 23.2077664,2.29339992 C22.2330596,2.47680671 21.2990747,2.33294488 20.330746,2.4016372 C19.4618505,2.46300007 18.5854321,2.3908987 17.7091773,2.3626036 C17.3111175,2.34964922 16.9120765,2.37641024 16.5135261,2.37453527 C15.7838043,2.37095577 15.053919,2.36004681 14.3241973,2.35135374 C13.7617784,2.3447061 13.199196,2.3274904 12.6367771,2.33209262 C12.1351956,2.33618348 11.6339412,2.37027396 11.1323597,2.37828522 C10.9184475,2.38169427 10.7040447,2.34675152 10.4898055,2.33959252 C10.0210958,2.32374045 9.55238617,2.31419511 9.08351297,2.30260435 C8.80810924,2.2956158 8.53270551,2.28283187 8.25746533,2.28402504 C7.74917864,2.28624092 7.13632861,2.45737514 6.58705342,2.45737514 C6.03777822,2.45737514 2.36204853,2.44373894 1.76528594,2.45737514 Z" id="path-1"></path></g><g id="hamburger-bottom" transform="translate(0.000000, 11.500000)"><path d="M1.76528594,2.4573751 C1.16885044,2.4711818 0.693838882,2.5744759 0.121607506,2.3983986 C0.0162868408,2.0222101 -0.0836369578,1.5940337 0.109996066,1.2585834 C0.223820884,1.0611995 0.421051819,0.9342124 0.616320256,0.8264865 C1.07897889,0.5713193 1.54621669,0.3749581 2.06791377,0.3400153 C2.52435783,0.3095044 2.97802169,0.2396189 3.43381158,0.1961535 C3.69972991,0.1709266 3.96842844,0.1439951 4.23401968,0.1572904 C4.48701823,0.1695629 8.45504058,-0.0158893 8.58514675,0.0454736 C8.88786189,0.0214398 9.04998698,0.0113831 9.30265845,0.0086559 C9.80947326,0.0032014 10.3189047,-0.0158893 10.8224487,0.0294511 C11.2757855,0.0700187 11.7265056,0.1109273 12.1816413,0.1030865 C12.6668687,0.0949048 13.1525867,0.0979729 13.6381411,0.0879162 C14.1477361,0.0773482 14.6573311,0.0427464 15.1669262,0.0454736 C15.6879691,0.0483713 16.209012,0.0921775 16.7302184,0.1017229 C16.9959732,0.1068365 17.2625457,0.0642234 17.528464,0.0662688 C17.7109763,0.0679733 17.8925072,0.1197908 18.0753465,0.130018 C18.2094505,0.1375179 18.3453534,0.1153591 18.480275,0.1035979 C18.5188708,0.1001888 18.5571395,0.0759846 18.594754,0.07803 C19.2634748,0.1153591 19.9325227,0.1474041 20.6004258,0.1975171 C21.3062705,0.2503574 22.0426975,0.1467223 22.7356224,0.2452438 C23.1413686,0.3030272 23.547769,0.4947861 23.780979,0.8455772 C23.9464829,1.0944377 24.0621067,1.5311368 23.9638183,1.8313034 C23.8511383,2.1739128 23.5379565,2.2313552 23.2077664,2.2933999 C22.2330596,2.4768067 21.2990747,2.3329449 20.330746,2.4016372 C19.4618505,2.4630001 18.5854321,2.3908987 17.7091773,2.3626036 C17.3111175,2.3496492 16.9120765,2.3764102 16.5135261,2.3745353 C15.7838043,2.3709558 15.053919,2.3600468 14.3241973,2.3513537 C13.7617784,2.3447061 13.199196,2.3274904 12.6367771,2.3320926 C12.1351956,2.3361835 11.6339412,2.370274 11.1323597,2.3782852 C10.9184475,2.3816943 10.7040447,2.3467515 10.4898055,2.3395925 C10.0210958,2.3237404 9.55238617,2.3141951 9.08351297,2.3026044 C8.80810924,2.2956158 8.53270551,2.2828319 8.25746533,2.284025 C7.74917864,2.2862409 7.13632861,2.4573751 6.58705342,2.4573751 C6.03777822,2.4573751 2.36204853,2.4437389 1.76528594,2.4573751 Z" id="path-3"></path></g></g></g></svg>