<svg xmlns="http://www.w3.org/2000/svg" xmlns:xlink="http://www.w3.org/1999/xlink" width="295.018" height="270.478" viewBox="0 0 295.018 270.478"><defs><style>.a{fill:none;}.b{clip-path:url(#a);}.c{opacity:0.15;}.d{clip-path:url(#c);}.e{fill:#5bd3ff;}.f{fill:#066098;}.g{fill:#fff;}.h{fill:#acb3ba;}.i{fill:#ced5e0;}.j{fill:#eda27c;}.k{fill:#333;}.l{fill:#4d4d4d;}.m{fill:#c3d1ff;}.n{fill:#f7c4a3;}.o{fill:#22b573;}.p{fill:#006837;}.q{fill:#f8c4a3;}.r{fill:#1a1a1a;}.s{fill:#3a8f89;}.ab,.s,.t,.u{fill-rule:evenodd;}.t{fill:#00514e;}.u{fill:#49af91;}.v{fill:#666;}.w{fill:#00de91;}.x{fill:#00b272;}.y{fill:#5c546a;}.z{fill:#b9bbc1;}.aa{fill:#8b8996;}.ab,.ac{fill:#3c415e;}.ad{fill:#ffd200;}.ae{fill:#ff666a;}</style><clipPath id="a"><rect class="a" width="295.018" height="270.477"/></clipPath><clipPath id="c"><rect class="a" width="286.827" height="17.907"/></clipPath></defs><g class="b"><g class="b"><g class="c" transform="translate(0 252.57)"><g class="d"><path d="M286.827,389.942c0,4.945-64.209,8.954-143.414,8.954S0,394.886,0,389.942s64.209-8.954,143.414-8.954S286.827,385,286.827,389.942" transform="translate(0 -380.988)"/></g></g></g><path class="e" d="M283.43,224.6H98.656V332.946H283.663V224.6Z" transform="translate(-33.254 -75.704)"/><path class="f" d="M208.279,309.888l-.233-.233L190.8,322.7l-17.01-12.815-.233-.233L97.6,361.615h186.4Z" transform="translate(-32.898 -104.374)"/><path class="f" d="M191.274,108.962h-.233L98.3,185.621l92.5,70.135h.233l92.5-69.9.233-.233Z" transform="translate(-33.135 -36.727)"/><path class="g" d="M242.783,136.377H142.59V217l63.145,48h.233l63.145-47.766.233-.233V161.076Z" transform="translate(-48.062 -45.968)"/><path class="h" d="M293.725,161.076h26.563l-26.563-24.7Z" transform="translate(-99.004 -45.968)"/><rect class="i" width="36.815" height="4.66" transform="translate(171.188 123.729)"/><rect class="i" width="36.815" height="4.66" transform="translate(171.188 139.108)"/><rect class="i" width="102.057" height="4.66" transform="translate(105.946 154.253)"/><rect class="i" width="102.057" height="4.66" transform="translate(105.946 169.398)"/><rect class="i" width="55.746" height="21.8" transform="translate(105.887 123.794)"/><path class="j" d="M51.814,294.967v-3.2l4.206-1.346v4.542Z" transform="translate(-17.465 -97.892)"/><g class="b"><path class="k" d="M43.832,328.486l1.683,16.822-7.4,25.569h2.86l11.181-22.91A8.836,8.836,0,0,0,53.1,343.4l-.522-8.353Z" transform="translate(-12.847 -110.721)"/><path class="l" d="M46.74,328.486S49.6,338.075,57,344.635l-1.178,26.242h2.86l5.008-21.552a9.5,9.5,0,0,0-.088-4.647l-4.416-16.192Z" transform="translate(-15.754 -110.721)"/><path class="m" d="M46.625,316.854s-1.177-16.317,1.85-19.849,8.075-1.683,12.785-3.028l3.028,5.047L58.9,301.042l.168,15.812Z" transform="translate(-15.64 -99.089)"/><path class="n" d="M62.984,289.235l.67-10.317,1.85-.673.349,10.667Z" transform="translate(-21.23 -93.787)"/><path class="o" d="M57.158,275.038l14.385-9.481s-.336,3.87,2.187,4.879l-16.162,5.442a.471.471,0,0,1-.41-.84" transform="translate(-19.195 -89.51)"/><path class="p" d="M78.946,265.558a5.863,5.863,0,0,0,2.187,5.215s1.009-4.206-2.187-5.215" transform="translate(-26.597 -89.51)"/><path class="q" d="M63.454,274.863s.358.455,1.7-.048a1.209,1.209,0,0,0,.854-1.637,1.871,1.871,0,0,0-2.558,1.686" transform="translate(-21.388 -92.038)"/><path class="n" d="M55.9,286.491s-1.683,3.028-6.056,1.513-.168-8.579,3.028-8.242c0,0,3.2,3.364,3.028,6.729" transform="translate(-16.167 -94.294)"/><path class="n" d="M55.537,286.411c-.336,1.85-4.206,3.2-6.9,1.009s-1.85-7.738-.336-7.906" transform="translate(-15.805 -94.214)"/><path class="k" d="M50.964,287.34s-8.243-.5-6.392-5.214c0,0-1.514-3.87,3.028-5.72s4.879,1.009,4.879,1.009-.673,3.028-2.86,3.2l1.6,2.271s-2.187-.841-2.355.336,2.1,4.121,2.1,4.121" transform="translate(-14.932 -92.957)"/><path class="r" d="M60.173,392.431l-.489,1.563a.869.869,0,0,0,.829,1.128h7.229s.168-1.346-1.513-1.682a17.262,17.262,0,0,1-3.2-1.009Z" transform="translate(-20.104 -132.275)"/><path class="r" d="M37.843,392.431l-.489,1.563a.869.869,0,0,0,.829,1.128h7.229s.168-1.346-1.513-1.682a17.262,17.262,0,0,1-3.2-1.009Z" transform="translate(-12.577 -132.275)"/><path class="n" d="M68.816,286.159l3.7-1.346-.5-9.252s-1.01-2.691-1.346-4.037,3.2-.673,3.364.505a30.748,30.748,0,0,1,0,4.037l1.626,9.211a3.1,3.1,0,0,1-1.608,3.282l-2.848,1.5Z" transform="translate(-23.195 -91.271)"/><path class="s" d="M374.854,287.555c5.913-6.021,10.312,1.627,9.7,9.3s-7.561,35.04-5.435,44.351a15.419,15.419,0,0,1,.306,1.685h-1.268q-.16-.248-.332-.543c-6.687-11.42-11.109-46.508-2.969-54.8" transform="translate(-124.866 -96.194)"/><path class="t" d="M380.736,344.562c-7.514-21.344.507-53.859.533-53.964a.34.34,0,1,1,.66.16c-.026.1-8.066,32.689-.481,53.8Z" transform="translate(-127.25 -97.863)"/><path class="u" d="M392.958,308.248c6.232-3.3,7.8,3.9,5.374,9.861-2.268,5.563-13.262,23.391-15.253,32.209H381.1c-1.352-12.139,3.84-37.822,11.861-42.071" transform="translate(-128.383 -103.62)"/><path class="t" d="M382.239,351.747c.822-18.355,13.995-39.883,14.04-39.956a.284.284,0,1,1,.485.294c-.044.073-13.147,21.488-13.961,39.662Z" transform="translate(-128.839 -105.047)"/><path class="u" d="M356.457,320.932c-6.039-2.637-7,4.185-4.314,9.569,2.073,4.159,10.311,15.731,14.491,24.175h3.683c-1.069-12.2-7.029-30.762-13.86-33.745" transform="translate(-118.217 -107.978)"/><path class="t" d="M370.386,356.022c-3.616-15.686-15.017-31.513-15.061-31.573a.265.265,0,1,0-.432.309c.042.058,11.343,15.746,14.954,31.264Z" transform="translate(-119.606 -109.323)"/><path class="v" d="M358.316,362.733l5.569,21.36h16.961l5.127-21.36Z" transform="translate(-120.776 -122.265)"/><path class="k" d="M385.606,363.146H357.111a.838.838,0,1,1,0-1.677h28.495a.838.838,0,1,1,0,1.677" transform="translate(-120.087 -121.839)"/><path class="w" d="M80.809,382.972s2.937-8.157,11.42-4.894c0,0,1.643-12.882,13.209-14.585s16.485,9.365,16.485,9.365a8.015,8.015,0,0,1,8.484-2.61c5.221,1.631,5.18,5.323,5.18,5.323s2.363-3.25,8.012-1.628,4.755,6.093,4.755,6.093,11.747-3.915,14.357,2.937Z" transform="translate(-27.238 -122.461)"/><path class="x" d="M221.111,386.32s-2.827-7.852-10.993-4.711c0,0,1.885-23.558-13.821-24.5s-14.762,19.474-14.762,19.474a7.716,7.716,0,0,0-8.167-2.513c-5.026,1.571-4.4,7.852-4.4,7.852s-5.87-6.9-11.308-5.339-1.57,6.91-1.57,6.91-11.308-3.769-13.82,2.827Z" transform="translate(-47.955 -120.359)"/><path class="y" d="M408.841,111.595,413.7,106.3l-1.041-2.719s-3.132.441-3.221.706-.353,3.794-.4,4.412-.2,2.9-.2,2.9" transform="translate(-137.806 -34.914)"/><path class="z" d="M427.642,75.327a.533.533,0,0,0-.566-.129L394.252,87.374a.53.53,0,0,0-.038.977l5.9,2.725a1.594,1.594,0,0,1,.892,1.13l1.906,9.533a.53.53,0,0,0,.986.147l3.009-5.589a.53.53,0,0,1,.852-.112l7.463,7.931a.533.533,0,0,0,.386.166.58.58,0,0,0,.1-.008.532.532,0,0,0,.394-.318L427.75,75.9a.531.531,0,0,0-.107-.57" transform="translate(-132.772 -25.335)"/><path class="aa" d="M430.812,75.2l-26.8,16.253a1.581,1.581,0,0,1,.406.766l1.906,9.533a.53.53,0,0,0,.442.42.536.536,0,0,0,.544-.272l3.009-5.589a.517.517,0,0,1,.086-.1l0-.023,20.636-20.855a.532.532,0,0,0-.233-.135" transform="translate(-136.178 -25.348)"/><path class="ab" d="M88.889,263.516,90,262.66c-.476-.618-.949-1.24-1.412-1.867l-1.126.835q.7.953,1.429,1.889" transform="translate(-29.48 -87.904)"/><path class="ab" d="M92.86,268.525l1.077-.9q-.746-.9-1.477-1.814l-1.1.874q.739.926,1.5,1.837" transform="translate(-30.796 -89.597)"/><path class="ab" d="M97.014,273.362l1.034-.945q-.784-.858-1.547-1.746l-1.061.916q.775.9,1.574,1.775" transform="translate(-32.169 -91.234)"/><path class="ab" d="M78.06,247.68l1.194-.733-.609-1-.593-1.008-1.209.708.6,1.02Z" transform="translate(-25.901 -82.561)"/><path class="ab" d="M81.474,253.08l1.167-.776c-.219-.323-.432-.65-.643-.978s-.428-.652-.634-.983l-1.183.753c.209.335.429.663.642,1s.43.662.651.989" transform="translate(-27.026 -84.382)"/><path class="ab" d="M85.07,258.337l1.139-.817c-.452-.636-.906-1.272-1.345-1.917l-1.154.794c.445.653.9,1.3,1.36,1.939" transform="translate(-28.216 -86.155)"/><path class="ab" d="M69.143,230.7l1.277-.577-.477-1.065-.455-1.075-1.292.542.462,1.093Z" transform="translate(-22.987 -76.847)"/><path class="ab" d="M71.864,236.483l1.25-.634c-.343-.7-.7-1.39-1.029-2.1l-1.265.6c.331.718.7,1.419,1.044,2.129" transform="translate(-23.871 -78.789)"/><path class="ab" d="M74.831,242.117l1.222-.686c-.195-.338-.38-.681-.565-1.023l-.558-1.028-1.237.657.564,1.043c.189.347.377.694.573,1.037" transform="translate(-24.839 -80.687)"/><path class="ab" d="M62.8,212.629l1.354-.359-.282-1.128c-.091-.377-.194-.751-.27-1.131l-1.367.31c.078.388.184.771.276,1.155Z" transform="translate(-20.977 -70.787)"/><path class="ab" d="M64.567,218.762l1.331-.44c-.129-.367-.239-.738-.355-1.109L65.2,216.1l-1.344.4.352,1.134c.118.378.23.758.362,1.131" transform="translate(-21.523 -72.84)"/><path class="ab" d="M66.686,224.763l1.3-.512c-.294-.721-.552-1.454-.822-2.182l-1.319.473c.275.742.538,1.489.837,2.221" transform="translate(-22.195 -74.852)"/><path class="ab" d="M60.108,193.684l1.4-.055-.041-1.157.005-1.157-1.4-.011,0,1.191Z" transform="translate(-20.246 -64.481)"/><path class="ab" d="M60.523,200.055l1.392-.166-.129-1.153c-.047-.384-.062-.77-.095-1.155l-1.4.105c.034.4.05.792.1,1.186Z" transform="translate(-20.323 -66.598)"/><path class="ab" d="M61.43,206.349l1.376-.268-.209-1.143c-.034-.191-.072-.381-.1-.571l-.084-.574-1.386.213.087.589c.03.2.07.39.1.585Z" transform="translate(-20.569 -68.691)"/><path class="ab" d="M61.963,174.5l1.362.329.13-.563.156-.556.314-1.111-1.342-.4-.324,1.148-.16.575Z" transform="translate(-20.886 -58.041)"/><path class="ab" d="M60.757,180.812l1.388.2c.087-.766.249-1.519.381-2.278l-1.375-.27c-.137.783-.3,1.562-.393,2.352" transform="translate(-20.479 -60.153)"/><path class="ab" d="M60.156,187.2l1.4.068.027-.578.013-.289.025-.288.1-1.151-1.395-.139-.106,1.187-.026.3-.013.3Z" transform="translate(-20.276 -62.296)"/><path class="ab" d="M69.189,156.729l1.212.7.288-.5c.1-.167.19-.335.3-.5l.626-.973-1.175-.764-.644,1c-.111.165-.209.337-.308.51Z" transform="translate(-23.321 -52.144)"/><path class="ab" d="M66.209,162.392l1.272.587.237-.526c.08-.175.174-.344.259-.516l.526-1.028-1.24-.654-.543,1.061c-.089.178-.184.352-.267.533Z" transform="translate(-22.317 -54.016)"/><path class="ab" d="M63.8,168.3l1.323.461.185-.546.211-.538.422-1.075-1.3-.533-.435,1.111-.217.555Z" transform="translate(-21.503 -55.978)"/><path class="ab" d="M80.941,141.6l1,.979.4-.42.419-.4.837-.806-.965-1.016-.856.824-.428.413Z" transform="translate(-27.282 -47.168)"/><path class="ab" d="M76.618,146.306l1.073.9c.51-.581,1.008-1.173,1.526-1.747l-1.034-.945c-.532.588-1.043,1.2-1.565,1.792" transform="translate(-25.825 -48.711)"/><path class="ab" d="M72.7,151.333l1.144.809.673-.942c.109-.159.23-.31.35-.461l.359-.455-1.105-.862-.369.467c-.123.156-.247.31-.36.474Z" transform="translate(-24.505 -50.365)"/><path class="ab" d="M95.678,129.351l.8,1.154c.316-.219.63-.441.957-.642s.644-.418.975-.615l-.726-1.2c-.343.2-.674.426-1.01.637s-.665.438-.992.665" transform="translate(-32.25 -43.161)"/><path class="ab" d="M90.523,133.122l.87,1.1c.3-.25.61-.479.921-.713l.932-.7-.834-1.126-.95.712c-.317.237-.636.471-.939.726" transform="translate(-30.512 -44.386)"/><path class="ab" d="M85.625,137.188l.935,1.045.872-.77.436-.385.451-.368-.9-1.077-.46.375-.445.393Z" transform="translate(-28.861 -45.717)"/><path class="ab" d="M113.213,121.616l.354,1.356.556-.146.561-.125c.375-.082.746-.172,1.125-.235l-.263-1.376c-.393.066-.781.158-1.17.245l-.583.131Z" transform="translate(-38.16 -40.815)"/><path class="ab" d="M107.066,123.482l.514,1.3c.357-.139.711-.285,1.075-.405s.721-.26,1.088-.369l-.426-1.335c-.382.115-.754.257-1.132.385s-.748.277-1.119.422" transform="translate(-36.088 -41.35)"/><path class="ab" d="M101.224,126.068l.664,1.234c.672-.371,1.364-.7,2.056-1.028L103.363,125c-.721.341-1.442.683-2.139,1.069" transform="translate(-34.119 -42.133)"/><path class="ab" d="M132.416,120.2l-.092,1.4,1.154.093c.385.029.768.08,1.152.119l.158-1.393c-.4-.04-.788-.092-1.185-.122Z" transform="translate(-44.602 -40.517)"/><path class="ab" d="M126.014,120.074l.041,1.4c.77-.017,1.539-.027,2.309,0l.035-1.4c-.794-.025-1.59-.015-2.385,0" transform="translate(-42.475 -40.467)"/><path class="ab" d="M119.6,120.488l.192,1.388c.379-.062.761-.094,1.142-.139.191-.021.381-.044.573-.061l.575-.043-.106-1.4-.6.045c-.2.017-.4.042-.594.063-.4.046-.793.08-1.186.144" transform="translate(-40.313 -40.527)"/><path class="ab" d="M151.255,123.621l-.375,1.35c.748.213,1.5.424,2.24.658l.411-1.34c-.754-.237-1.515-.451-2.276-.668" transform="translate(-50.856 -41.668)"/><path class="ab" d="M145.063,122.065l-.3,1.369c.756.174,1.514.343,2.266.539l.344-1.358c-.766-.2-1.539-.373-2.31-.55" transform="translate(-48.795 -41.144)"/><path class="ab" d="M138.806,120.9l-.206,1.386,1.146.184c.383.062.762.139,1.144.207l.261-1.377c-.39-.07-.778-.148-1.17-.211Z" transform="translate(-46.717 -40.752)"/><path class="ab" d="M169.364,129.913l-.523,1.3c.725.294,1.449.588,2.17.892l.54-1.293c-.726-.306-1.457-.6-2.188-.9" transform="translate(-56.91 -43.789)"/><path class="ab" d="M163.41,127.607l-.485,1.315c.734.268,1.462.55,2.192.829l.508-1.307c-.737-.282-1.472-.567-2.214-.837" transform="translate(-54.916 -43.012)"/><path class="ab" d="M157.4,125.5l-.437,1.332c.371.118.74.245,1.108.371s.739.249,1.106.382l.465-1.322c-.371-.135-.746-.259-1.119-.387s-.747-.256-1.124-.376" transform="translate(-52.908 -42.302)"/><path class="ab" d="M186.926,137.607l-.589,1.272,2.135,1,.595-1.269Z" transform="translate(-62.808 -46.382)"/><path class="ab" d="M181.12,134.954l-.574,1.279,2.143.971.583-1.275Z" transform="translate(-60.856 -45.488)"/><path class="ab" d="M175.3,132.39l-.552,1.287q1.079.462,2.155.937l.565-1.282q-1.082-.476-2.168-.943" transform="translate(-58.9 -44.624)"/><rect class="ac" width="1.401" height="2.359" transform="matrix(0.43, -0.903, 0.903, 0.43, 135.009, 97.925)"/><rect class="ac" width="1.402" height="2.359" transform="translate(131.188 96.107) rotate(-64.538)"/><rect class="ac" width="1.401" height="2.358" transform="matrix(0.427, -0.904, 0.904, 0.427, 127.381, 94.301)"/><path class="ab" d="M221.635,153.879l-.573,1.279,2.162.959.563-1.283Z" transform="translate(-74.512 -51.867)"/><path class="ab" d="M215.827,151.241l-.587,1.272,2.15.984.579-1.275Z" transform="translate(-72.55 -50.978)"/><path class="ab" d="M210.062,148.555l-.6,1.268,2.139,1,.591-1.27Z" transform="translate(-70.603 -50.073)"/><path class="ab" d="M239.313,161.264l-.5,1.309c.736.287,1.479.558,2.219.836l.484-1.315c-.734-.276-1.47-.544-2.2-.829" transform="translate(-80.495 -54.356)"/><path class="ab" d="M233.382,158.917l-.531,1.3q1.1.449,2.2.884l.515-1.3q-1.1-.431-2.183-.878" transform="translate(-78.486 -53.565)"/><path class="ab" d="M227.518,156.461l-.554,1.287c.726.31,1.451.621,2.179.925l.542-1.293c-.724-.3-1.445-.612-2.167-.919" transform="translate(-76.502 -52.738)"/><path class="ab" d="M257.467,167.365l-.384,1.348c.764.211,1.525.43,2.293.626l.356-1.356c-.758-.194-1.51-.41-2.265-.619" transform="translate(-86.654 -56.413)"/><path class="ab" d="M251.363,165.516l-.428,1.334c.751.247,1.51.475,2.266.708l.405-1.342c-.748-.23-1.5-.456-2.243-.7" transform="translate(-84.581 -55.79)"/><path class="ab" d="M245.339,163.486l-.469,1.321c.747.26,1.492.526,2.244.774l.447-1.329c-.744-.245-1.482-.508-2.222-.766" transform="translate(-82.537 -55.105)"/><path class="ab" d="M276.168,171.473l-.21,1.386,1.179.172c.394.056.788.1,1.183.151l.171-1.391c-.387-.05-.776-.094-1.163-.148Z" transform="translate(-93.016 -57.798)"/><path class="ab" d="M269.885,170.374l-.274,1.374c.388.083.78.15,1.17.225s.779.15,1.171.213l.24-1.381c-.387-.062-.77-.141-1.154-.21s-.77-.139-1.152-.221" transform="translate(-90.876 -57.427)"/><path class="ab" d="M263.679,169l-.332,1.362,1.156.278,1.161.26.3-1.368-1.145-.257Z" transform="translate(-88.765 -56.964)"/><path class="ab" d="M295.25,172.783l.02,1.4c.8,0,1.592-.044,2.389-.072l-.068-1.4c-.78.027-1.559.068-2.34.07" transform="translate(-99.518 -58.215)"/><path class="ab" d="M288.882,172.726l-.062,1.4c.8.027,1.591.063,2.387.064l.017-1.4c-.781,0-1.561-.036-2.341-.063" transform="translate(-97.351 -58.22)"/><path class="ab" d="M282.543,172.269l-.139,1.395c.4.044.791.078,1.187.109l1.189.094.1-1.4-1.168-.093c-.389-.03-.778-.064-1.167-.107" transform="translate(-95.189 -58.066)"/><path class="ab" d="M314.135,170.5l.285,1.372c.392-.074.779-.165,1.167-.255l1.165-.27-.335-1.361-1.14.264c-.38.088-.76.177-1.144.249" transform="translate(-105.884 -57.297)"/><path class="ab" d="M307.9,171.661l.2,1.388,1.183-.172,1.178-.2-.246-1.38-1.153.2Z" transform="translate(-103.781 -57.737)"/><path class="ab" d="M301.622,172.423l.107,1.4,1.191-.107.595-.054.594-.069-.156-1.393-.581.068-.583.052Z" transform="translate(-101.666 -58.042)"/><path class="ab" d="M332.272,164.643l.54,1.293c.74-.3,1.463-.63,2.189-.957l-.583-1.274c-.712.32-1.421.646-2.146.938" transform="translate(-111.997 -55.179)"/><path class="ab" d="M326.357,166.973l.459,1.324,1.128-.4,1.116-.426-.505-1.307-1.093.418Z" transform="translate(-110.003 -56.009)"/><path class="ab" d="M320.333,168.927l.374,1.35,1.148-.333.573-.168.57-.183-.423-1.336-.557.178-.562.164Z" transform="translate(-107.973 -56.714)"/><path class="ab" d="M349.116,155.637l.75,1.184c.339-.208.67-.427,1-.646l1-.658-.784-1.162L350.1,155c-.326.216-.651.432-.984.636" transform="translate(-117.675 -52.028)"/><path class="ab" d="M343.674,158.945l.686,1.222c.35-.189.693-.392,1.035-.593l1.028-.6-.723-1.2-1.01.594c-.337.2-.672.4-1.016.583" transform="translate(-115.84 -53.178)"/><path class="ab" d="M338.082,161.943l.617,1.258.537-.26.53-.274,1.06-.549-.657-1.238-1.04.538-.52.269Z" transform="translate(-113.956 -54.227)"/><path class="ab" d="M364.434,144.183l.9,1.069c.6-.514,1.211-1.024,1.8-1.557l-.929-1.049c-.579.526-1.179,1.029-1.775,1.537" transform="translate(-122.838 -48.081)"/><path class="ab" d="M359.5,148.222l.859,1.106c.313-.245.631-.481.939-.733l.923-.75-.886-1.086-.911.74c-.3.248-.617.481-.925.722" transform="translate(-121.176 -49.468)"/><path class="ab" d="M354.423,152.032l.808,1.145.489-.341.481-.353.959-.705-.838-1.124-.945.695-.472.347Z" transform="translate(-119.464 -50.78)"/><path class="ab" d="M378.274,130.961l1.016.965c.543-.576,1.094-1.145,1.622-1.735l-1.033-.947c-.522.585-1.067,1.147-1.6,1.717" transform="translate(-127.503 -43.564)"/><path class="ab" d="M373.823,135.525l.983,1c.286-.274.565-.555.842-.838l.834-.846-1-.98-.825.837c-.274.28-.55.558-.832.829" transform="translate(-126.003 -45.12)"/><path class="ab" d="M369.235,139.922l.947,1.033c.578-.541,1.162-1.077,1.736-1.624l-.968-1.013c-.568.539-1.144,1.069-1.716,1.6" transform="translate(-124.456 -46.622)"/><path class="ab" d="M390.81,116.485l1.094.876c.495-.617.977-1.242,1.466-1.864l-1.106-.86c-.485.616-.964,1.237-1.454,1.848" transform="translate(-131.728 -38.64)"/><path class="ab" d="M386.766,121.417l1.071.9c.509-.6,1.024-1.206,1.517-1.823l-1.083-.888c-.491.613-1,1.208-1.5,1.808" transform="translate(-130.365 -40.316)"/><path class="ab" d="M382.617,126.23l1.045.933,1.564-1.785-1.06-.917Z" transform="translate(-128.967 -41.952)"/><path class="ab" d="M402.229,101.109l1.15.8,1.338-1.955-1.159-.788Z" transform="translate(-135.577 -33.425)"/><path class="ab" d="M398.534,106.308l1.133.824c.233-.32.469-.636.7-.958l.684-.967L399.9,104.4l-.68.961c-.226.32-.461.634-.691.951" transform="translate(-134.332 -35.188)"/><path class="ab" d="M394.748,111.415l1.115.849c.475-.631.957-1.258,1.426-1.893l-1.126-.835c-.465.631-.944,1.252-1.415,1.879" transform="translate(-133.056 -36.921)"/><path class="ad" d="M110.852,147.933a3.9,3.9,0,1,1-3.28-4.432,3.9,3.9,0,0,1,3.28,4.432" transform="translate(-34.751 -48.355)"/><path class="g" d="M107.249,150.7a.414.414,0,0,1-.111-.1l-1.3-1.7a.414.414,0,0,1,.658-.5l1.01,1.323,2.1-2.1a.414.414,0,1,1,.585.586l-2.437,2.434a.414.414,0,0,1-.51.06" transform="translate(-35.646 -49.716)"/><path class="ad" d="M310.144,76.947a2.167,2.167,0,1,1-1.822-2.463,2.167,2.167,0,0,1,1.822,2.463" transform="translate(-103.086 -25.098)"/><path class="g" d="M308.142,78.482a.247.247,0,0,1-.062-.056l-.721-.944a.23.23,0,0,1,.366-.28l.562.735,1.168-1.167a.23.23,0,1,1,.326.326l-1.354,1.352a.229.229,0,0,1-.178.067.238.238,0,0,1-.105-.034" transform="translate(-103.584 -25.854)"/><path class="ad" d="M11.837,146a2.167,2.167,0,1,1-1.823-2.463A2.167,2.167,0,0,1,11.837,146" transform="translate(-2.537 -48.374)"/><path class="g" d="M9.835,147.539a.238.238,0,0,1-.062-.056l-.721-.945a.23.23,0,0,1,.366-.279l.562.735,1.169-1.167a.23.23,0,1,1,.325.325l-1.354,1.352a.228.228,0,0,1-.178.067.233.233,0,0,1-.105-.034" transform="translate(-3.035 -49.131)"/><path class="ad" d="M141.495,2.487A2.166,2.166,0,1,1,139.673.024a2.167,2.167,0,0,1,1.822,2.463" transform="translate(-46.24 0)"/><path class="g" d="M139.492,4.023a.223.223,0,0,1-.062-.056l-.721-.944a.23.23,0,1,1,.365-.28l.562.735L140.8,2.312a.23.23,0,1,1,.326.326L139.775,3.99a.231.231,0,0,1-.284.032" transform="translate(-46.738 -0.756)"/><path class="ae" d="M401.431,243.289a.8.8,0,0,1-.8-.8v-5.636a.8.8,0,0,1,1.6,0v5.636a.8.8,0,0,1-.8.8" transform="translate(-135.039 -79.566)"/><path class="ae" d="M402.817,241.9H397.18a.8.8,0,1,1,0-1.6h5.636a.8.8,0,0,1,0,1.6" transform="translate(-133.606 -80.998)"/><path class="ae" d="M13.7,266.21a.479.479,0,0,1-.479-.479v-3.378a.479.479,0,0,1,.957,0v3.378a.479.479,0,0,1-.479.479" transform="translate(-4.458 -88.269)"/><path class="ae" d="M14.535,265.379H11.157a.479.479,0,1,1,0-.957h3.378a.479.479,0,1,1,0,.957" transform="translate(-3.599 -89.127)"/><path class="ae" d="M56.455,65.616a.479.479,0,0,1-.479-.479V61.759a.479.479,0,1,1,.957,0v3.377a.479.479,0,0,1-.479.479" transform="translate(-18.868 -20.655)"/><path class="ae" d="M57.285,64.786H53.908a.478.478,0,1,1,0-.957h3.378a.478.478,0,1,1,0,.957" transform="translate(-18.009 -21.515)"/><path class="ae" d="M396.336,17.229a.48.48,0,0,1-.479-.479V13.373a.479.479,0,0,1,.958,0V16.75a.479.479,0,0,1-.479.479" transform="translate(-133.43 -4.346)"/><path class="ae" d="M397.167,16.4H393.79a.479.479,0,0,1,0-.958h3.378a.479.479,0,1,1,0,.958" transform="translate(-132.571 -5.205)"/><path class="ae" d="M211.246,82.058a.479.479,0,0,1-.479-.479V78.2a.479.479,0,0,1,.957,0v3.378a.479.479,0,0,1-.479.479" transform="translate(-71.042 -26.198)"/><path class="ae" d="M212.076,81.228H208.7a.479.479,0,1,1,0-.958h3.378a.479.479,0,0,1,0,.958" transform="translate(-70.183 -27.056)"/><path class="ae" d="M394.693,156.048a.479.479,0,0,1-.479-.479v-3.378a.479.479,0,0,1,.958,0v3.378a.48.48,0,0,1-.479.479" transform="translate(-132.876 -51.137)"/><path class="ae" d="M395.524,155.217h-3.378a.479.479,0,0,1,0-.957h3.378a.479.479,0,1,1,0,.957" transform="translate(-132.017 -51.996)"/></g></g></svg>