<svg xmlns="http://www.w3.org/2000/svg" width="220" height="220" viewBox="0 0 220 220"><defs><style>.a{fill:#ebebeb;}.b{fill:#c9c9c9;}.c{fill:#dedede;}.d{fill:#38e3ff;}.e{fill:#577eff;}.f{fill:#12ffe7;}.g{fill:#23527c;}.h{fill:#2f80ed;}.i{fill:#166ee5;}.j{fill:#fff;}</style></defs><g transform="translate(-180.43 -169.046)"><g transform="translate(180.43 169.046)"><path class="a" d="M141.766,88.308l-4.322-4.352a34.948,34.948,0,0,1-10.166-24.629V49.2H44.649V59.327A34.948,34.948,0,0,1,34.482,83.957L30.16,88.307A36.983,36.983,0,0,0,19.4,114.371V227.436a5.726,5.726,0,0,0,5.738,5.714H146.787a5.726,5.726,0,0,0,5.738-5.714V114.37a36.982,36.982,0,0,0-10.759-26.062Z" transform="translate(-19.401 -13.152)"/><path class="b" d="M34.257,227.437V114.372A36.979,36.979,0,0,1,45.016,88.308l4.322-4.351A34.947,34.947,0,0,0,59.5,59.328V49.2H44.649V59.327A34.948,34.948,0,0,1,34.482,83.957L30.16,88.307A36.983,36.983,0,0,0,19.4,114.371V227.436a5.726,5.726,0,0,0,5.738,5.714H40A5.724,5.724,0,0,1,34.257,227.437Z" transform="translate(-19.401 -13.152)"/><path class="c" d="M136.484,227.437V114.372a36.979,36.979,0,0,0-10.759-26.064L121.4,83.958a34.948,34.948,0,0,1-10.167-24.629V49.2h14.856V59.327a34.948,34.948,0,0,0,10.167,24.629l4.322,4.351a36.983,36.983,0,0,1,10.759,26.064V227.436a5.726,5.726,0,0,1-5.738,5.714H130.746A5.725,5.725,0,0,0,136.484,227.437Z" transform="translate(-18.216 -13.152)"/><path class="d" d="M132.642,49.512H38.912a5.055,5.055,0,0,1-5.065-5.044V18.507a5.055,5.055,0,0,1,5.065-5.044h93.73a5.055,5.055,0,0,1,5.065,5.044V44.468A5.055,5.055,0,0,1,132.642,49.512Z" transform="translate(-19.215 -13.463)"/><path class="e" d="M48.7,44.468V18.507a5.055,5.055,0,0,1,5.065-5.044H38.912a5.055,5.055,0,0,0-5.065,5.044V44.468a5.055,5.055,0,0,0,5.065,5.044H53.768A5.055,5.055,0,0,1,48.7,44.468Z" transform="translate(-19.215 -13.463)"/><path class="f" d="M121.781,44.468V18.507a5.055,5.055,0,0,0-5.065-5.044h14.856a5.055,5.055,0,0,1,5.065,5.044V44.468a5.055,5.055,0,0,1-5.065,5.044H116.716A5.055,5.055,0,0,0,121.781,44.468Z" transform="translate(-18.145 -13.463)"/><path class="g" d="M80.237,112.954H70.653a1.812,1.812,0,0,1-1.816-1.808V101.6a1.812,1.812,0,0,0-1.816-1.808H59.556A1.812,1.812,0,0,0,57.74,101.6v9.544a1.812,1.812,0,0,1-1.816,1.808H46.341a1.812,1.812,0,0,0-1.816,1.808V122.2A1.812,1.812,0,0,0,46.341,124h9.584a1.812,1.812,0,0,1,1.816,1.808v9.544a1.812,1.812,0,0,0,1.816,1.808h7.465a1.812,1.812,0,0,0,1.816-1.808v-9.544A1.812,1.812,0,0,1,70.653,124h9.584a1.812,1.812,0,0,0,1.816-1.808v-7.434A1.812,1.812,0,0,0,80.237,112.954Z" transform="translate(3.273 9.545)"/><ellipse class="h" cx="53.464" cy="53.242" rx="53.464" ry="53.242" transform="translate(113.072 113.514)"/><path class="i" d="M183.91,126a54,54,0,0,0-7.428.524,53.2,53.2,0,0,1,0,105.44,54.166,54.166,0,0,0,7.428.524,53.244,53.244,0,1,0,0-106.487Z" transform="translate(-17.374 -12.484)"/><g transform="translate(142.834 128.946)"><path class="j" d="M191.272,176.155l16.049-15.983a1.688,1.688,0,0,0,0-2.394L191.272,141.8a1.7,1.7,0,0,0-2.9,1.2v6.919H161.94a1.522,1.522,0,0,0-1.525,1.519v15.09a1.522,1.522,0,0,0,1.525,1.519h26.43v6.919A1.7,1.7,0,0,0,191.272,176.155Z" transform="translate(-160.415 -141.296)"/><path class="j" d="M176.963,181.712,160.913,197.7a1.688,1.688,0,0,0,0,2.394l16.049,15.983a1.7,1.7,0,0,0,2.9-1.2v-6.919h26.43a1.522,1.522,0,0,0,1.525-1.519v-15.09a1.522,1.522,0,0,0-1.525-1.519h-26.43v-6.919A1.7,1.7,0,0,0,176.963,181.712Z" transform="translate(-160.415 -140.949)"/></g></g></g></svg>