<svg width="120" height="120" viewBox="0 0 120 120" fill="none" xmlns="http://www.w3.org/2000/svg">
<circle cx="60" cy="60" r="60" fill="white"/>
<path fill-rule="evenodd" clip-rule="evenodd" d="M38.9197 54.4811L32.3558 61.045C28.2596 65.1412 28.2596 71.7824 32.3558 75.8786C36.452 79.9748 43.0933 79.9748 47.1895 75.8786L51.2514 71.8167L56.0482 76.6135L51.9863 80.6754C45.2409 87.4208 34.3044 87.4208 27.559 80.6754C20.8137 73.93 20.8137 62.9936 27.559 56.2482L43.3535 40.4537C39.736 44.3628 38.258 49.5377 38.9197 54.4811ZM56.0469 34.9043C60.4647 34.9064 64.8818 36.5927 68.2525 39.9634L68.7428 40.4537C68.5894 40.2879 68.4322 40.1245 68.2711 39.9634C64.8957 36.588 60.4709 34.9017 56.0469 34.9043Z" fill="#38E3FF"/>
<path fill-rule="evenodd" clip-rule="evenodd" d="M82.8349 54.547V45.4645C82.8349 39.6716 78.1388 34.9755 72.3459 34.9755C69.6654 34.9755 67.2198 35.981 65.3655 37.6354C63.2622 36.2834 60.9296 35.4334 58.5381 35.0855C61.69 30.8989 66.7018 28.1918 72.3459 28.1918C81.8854 28.1918 89.6186 35.9251 89.6186 45.4645V68.4947C89.6186 78.0341 81.8854 85.7673 72.3459 85.7673C67.4027 85.7673 62.9445 83.6908 59.796 80.3625L60.1093 80.6758C66.8547 87.4212 77.7911 87.4212 84.5365 80.6758C91.2819 73.9304 91.2819 62.994 84.5365 56.2486L82.8349 54.547Z" fill="#12FFE7"/>
<path fill-rule="evenodd" clip-rule="evenodd" d="M79.7402 61.0452L63.4554 44.7604C59.3592 40.6642 52.7179 40.6642 48.6217 44.7604C44.5255 48.8566 44.5255 55.4978 48.6217 59.594L64.9066 75.8788C69.0027 79.975 75.644 79.975 79.7402 75.8788C83.8364 71.7826 83.8364 65.1414 79.7402 61.0452ZM43.8249 39.9636C37.0796 46.709 37.0796 57.6454 43.8249 64.3908L60.1098 80.6756C66.8551 87.421 77.7916 87.421 84.537 80.6756C91.2824 73.9302 91.2824 62.9938 84.537 56.2484L68.2522 39.9636C61.5068 33.2182 50.5703 33.2182 43.8249 39.9636Z" fill="#577EFF"/>
</svg>
