<svg xmlns="http://www.w3.org/2000/svg" width="73.8" height="95.1" viewBox="0 0 73.8 95.1"><defs><style>.a{fill:#2f80ed;}.b{fill:#555;}</style></defs><g transform="translate(-534.693 -1460.079)"><path class="a" d="M61.192,308.979l-.3,5.9c11.1,2,17.7,6.1,17.7,9.2,0,3-6.3,7.3-18,9.3a3.018,3.018,0,0,0-2.4,3.4,2.941,2.941,0,0,0,3.4,2.4c14.4-2.4,22.9-8,22.9-15,0-7.9-10.6-13.1-23.3-15.2" transform="translate(524 1206)"/><path class="a" d="M41.693,326.379a3.085,3.085,0,0,0-4.2,0,2.987,2.987,0,0,0,0,4.2l3.5,3.5c-15.1-1.2-24.4-6.3-24.4-10,0-3.2,7.3-7.6,19.4-9.5l-.4-5.9c-13.5,2-24.9,7.2-24.9,15.3,0,9.4,15,14.8,30.8,16l-4.1,4.1a3.085,3.085,0,0,0,0,4.2,2.9,2.9,0,0,0,4.2,0l8.8-8.8a2.9,2.9,0,0,0,0-4.2Z" transform="translate(524 1206)"/><path class="b" d="M63.293,294.279l-1-8.4a10.3,10.3,0,0,0-10.3-9.1h-7.2a10.446,10.446,0,0,0-10.3,9.1l-1,8.4a2.27,2.27,0,0,0,1.7,2.4c1.5.3,3.1.6,4.7.8l1.1,19.7a2.948,2.948,0,0,0,2.9,2.8h9a2.882,2.882,0,0,0,2.9-2.8l1.1-19.7c1.6-.2,3.2-.5,4.7-.8a2.045,2.045,0,0,0,1.7-2.4" transform="translate(524 1206)"/><path class="b" d="M48.392,254.079a9.7,9.7,0,1,1-9.7,9.7,9.7,9.7,0,0,1,9.7-9.7" transform="translate(524 1206)"/></g></svg>