<svg xmlns="http://www.w3.org/2000/svg" width="90" height="70.921" viewBox="0 0 90 70.921"><defs><style>.a{fill:#555;}.a,.b{fill-rule:evenodd;}.b{fill:#2f80ed;}</style></defs><g transform="translate(-143 -1281)"><path class="a" d="M8.888,23.168a11.071,11.071,0,0,0,21.5,3.555,17.18,17.18,0,0,1-2.475-8.854,17.793,17.793,0,0,1,.125-2.123A11.079,11.079,0,0,0,8.888,23.168" transform="translate(143 1281)"/><path class="a" d="M72.84,66.816H90V47.838a9.548,9.548,0,0,0-9.606-9.488l-10.652,0a12.185,12.185,0,0,1,2.53,5.076c.142.711.568,1.847.568,2.274Z" transform="translate(143 1281)"/><path class="a" d="M59.619,26.739A11.025,11.025,0,1,0,70.063,12.257a11.077,11.077,0,0,0-8.107,3.5,16.584,16.584,0,0,1,.132,2.111,16.847,16.847,0,0,1-2.469,8.87" transform="translate(143 1281)"/><path class="a" d="M0,66.816H17.16V45.7a8.476,8.476,0,0,0,.285-1.707,12.27,12.27,0,0,1,2.6-5.644H9.608A9.549,9.549,0,0,0,0,47.838Z" transform="translate(143 1281)"/><path class="b" d="M31.9,18.635a13.1,13.1,0,1,0,24.5-6.451l2.711-9.4S48.755,2.088,44.717,0C40.505,1.913,30.322,2.78,30.322,2.78l2.809,9.74h.287A12.99,12.99,0,0,0,31.9,18.635M41.137,5.593h2.35V3.477h3.022V5.593h2.352V8.316H46.509v2.117H43.487V8.316h-2.35Z" transform="translate(143 1281)"/><path class="a" d="M20.791,70.921h47.85V48.189a11.449,11.449,0,0,0-11.53-11.366H32.321a11.449,11.449,0,0,0-11.53,11.366Z" transform="translate(143 1281)"/></g></svg>