<svg xmlns="http://www.w3.org/2000/svg" width="82.206" height="74.922" viewBox="0 0 82.206 74.922"><defs><style>.a{fill:#2f80ed;}.b{fill:#555;}.c{fill:#fff;}</style></defs><g transform="translate(-160.738 -1149.516)"><path class="a" d="M43.238,197.018v-2.755H23.8v2.755Z" transform="translate(139.187 983.947)"/><path class="a" d="M32.042,197.463H23.8v12.4H43.238v-12.4H35C34.841,199.147,32.2,198.994,32.042,197.463Z" transform="translate(139.187 986.039)"/><path class="b" d="M95.979,228.352a23.732,23.732,0,0,0-2.45-3.061,12.688,12.688,0,0,0-7.959-3.52c-1.07-.153-1.99-.306-2.447-1.531a16.072,16.072,0,0,0-8.267-9.336,2.386,2.386,0,0,1-1.224-.918,1.726,1.726,0,0,1-.152-1.224,1.028,1.028,0,0,1,1.071-.459,3.6,3.6,0,0,1,1.376.918c.92.765,1.685,1.837,2.6,2.6,1.988,1.378,3.519.612,4.133-1.684a10.751,10.751,0,0,0,.152-5.816c-.458-2.3-2.447-3.367-4.437-2.143a14.225,14.225,0,0,0-2.3,1.99,9.24,9.24,0,0,1-1.226,1.224,1.9,1.9,0,0,1-2.907-.459,10.3,10.3,0,0,1-.92-1.837c-.611-1.224-1.07-1.224-1.835-.153a.559.559,0,0,0-.155.459c-.152,0-.152-.153-.306-.153v-.612a2.623,2.623,0,0,0-2.447-2.908,8.741,8.741,0,0,0-1.99-.153,12.7,12.7,0,0,1-9.183-3.673,19.609,19.609,0,0,1-2.449-2.6c-.306-.306-.306-.612,0-1.071a5.977,5.977,0,0,0,.918-1.684c.306-1.684-1.224-4.745-2.91-5.357a5.552,5.552,0,0,0-3.519-.153c-3.214.765-5.051,3.061-6.122,5.969a38.621,38.621,0,0,0-1.99,19.132c.459,3.826,2.3,5.969,5.816,6.581,3.673.765,7.5,1.224,11.326,1.684a3.581,3.581,0,0,1,3.366,2.6c1.226,3.061,2.45,6.275,3.675,9.336a12.649,12.649,0,0,0,1.071,1.99c1.224,1.99,2.907,2.449,5.051,1.684a3.689,3.689,0,0,0,2.6-4.745c-.459-1.684-1.071-3.214-1.685-4.9a55.264,55.264,0,0,1-2.6-7.041c-1.378-4.592-3.826-6.888-8.573-7.5-1.837-.306-3.519-.306-5.357-.765-1.835-.306-2.447-1.071-2.3-3.061a36.113,36.113,0,0,1,.614-3.979c.152-.918.459-1.071,1.378-.612a23.8,23.8,0,0,0,9.488,3.52,13.176,13.176,0,0,0,4.9,0c.152.306.152.459.306.765.765,1.684,1.531,3.214,2.141,4.9,1.991,5.51,3.826,11.02,5.663,16.683.308,1.071.765,1.224,1.685.612.611-.306,1.07-.765,1.684-1.071q7.115-4.133,13.775.918c1.071.918,2.143,1.837,3.213,2.908a2.093,2.093,0,0,0-.3-2.3" transform="translate(146.433 978.938)"/><path class="b" d="M79,223.805H60.485a2.117,2.117,0,0,1-2.449-1.837c-.306-1.224-.765-2.3-1.071-3.52a10.127,10.127,0,0,1,0-7.041,9.753,9.753,0,0,0,.306-1.071c.459-2.3-.459-3.52-2.908-3.673H38.9c-3.52,0-7.194.153-10.714.306-3.061.153-4.133,1.378-3.061,4.133a8.892,8.892,0,0,1,0,6.581c-.918,2.908-1.531,5.816-2.3,8.724-.306,1.071.153,1.531,1.071,1.684a15.738,15.738,0,0,0,2.6.153,1.9,1.9,0,0,0,2.143-1.684,11.584,11.584,0,0,0,.153-2.3,12,12,0,0,1,11.479-10.714,11.871,11.871,0,0,1,12.4,9.183,30.974,30.974,0,0,1,.612,3.979,1.646,1.646,0,0,0,1.531,1.531H79.464a1.553,1.553,0,0,0,1.531-.765c1.071-1.837,0-3.52-1.99-3.673" transform="translate(138 990.526)"/><path class="b" d="M72.018,213.663a8.049,8.049,0,0,0-8.418,8.112,8.229,8.229,0,0,0,8.264,8.265,8.189,8.189,0,1,0,.155-16.377" transform="translate(159.68 994.24)"/><path class="b" d="M37.82,213.665a8.266,8.266,0,1,0-.153,16.53,8.266,8.266,0,1,0,.153-16.53" transform="translate(141.533 994.238)"/><path class="b" d="M50.663,188.9a6.7,6.7,0,0,0,7.347-3.979,12.015,12.015,0,0,0,.765-3.367c1.071.306,2.3.612,3.52.918.765.153,1.224,0,1.378-.612s-.153-1.071-.918-1.224c-1.378-.306-2.755-.765-4.133-1.071a2.25,2.25,0,0,1-.918-.765,6.847,6.847,0,0,0-12.7,3.52,6.83,6.83,0,0,0,5.663,6.581" transform="translate(149.811 974)"/><path class="c" d="M3.754,2.024V-5.344H5.426V2.024ZM.906-.824V-2.5H8.274V-.824Z" transform="translate(168.196 1192.278)"/></g></svg>