<svg xmlns="http://www.w3.org/2000/svg" width="79.214" height="74.246" viewBox="0 0 79.214 74.246"><defs><style>.a{fill:#2f80ed;}.b{fill:#555;}</style></defs><g transform="translate(-615.209 -1302.06)"><path class="a" d="M69.083,96.06a12.725,12.725,0,0,0-10.914,6.449A12.721,12.721,0,0,0,47.255,96.06c-11.077,0-16.536,14.056-9.095,22.158l18.687,20.67a1.783,1.783,0,0,0,1.158.5,1.88,1.88,0,0,0,1.323-.5c.494-.661,1.487-1.654,2.644-2.976,4.3-4.961,12.569-14.386,15.213-16.867,8.764-7.772,3.473-22.985-8.1-22.985" transform="translate(604.498 1206)"/><path class="b" d="M32.611,153.148a3.317,3.317,0,0,0,3.307-3.307V125.367a3.317,3.317,0,0,0-3.307-3.307H23.516a3.317,3.317,0,0,0-3.307,3.307v24.639a3.317,3.317,0,0,0,3.307,3.307Z" transform="translate(595 1222.993)"/><path class="b" d="M87.262,133.524h0l-15.378,5.622c-5.292,1.984-16.205,2.646-21,2.646a1.811,1.811,0,0,1-1.819-1.654c-.165-2.976,3.969-1.654,12.071-2.811a2.114,2.114,0,0,0,1.819-1.984,5.646,5.646,0,0,0-5.622-5.622H50.387c-4.961,0-9.922.5-14.386-2.315a6.549,6.549,0,0,1-.661-.331,25.752,25.752,0,0,0-4.465-2.315V149.4c0,.5.015.83,0,1.3a11.276,11.276,0,0,0,3.307.355H63.119a22.5,22.5,0,0,0,10.418-2.48c16.7-8.929,18.19-8.433,18.851-10.914a2.7,2.7,0,0,0-.331-2.48c-.661-1.819-3.142-2.48-4.8-1.654" transform="translate(601.863 1224.758)"/></g></svg>